<svg width="20" height="20" viewBox="0 0 20 20" fill="none" xmlns="http://www.w3.org/2000/svg">
    <path fill-rule="evenodd" clip-rule="evenodd" d="M14.597 18.333c1.62 0 2.502-.84 2.502-2.442v-4.165c.797-.153 1.234-.763 1.234-1.654V7.935c0-1.035-.574-1.688-1.628-1.688H14.89c.48-.467.762-1.077.762-1.764 0-1.646-1.32-2.816-2.973-2.816-1.226 0-2.237.67-2.682 1.866-.446-1.196-1.448-1.866-2.674-1.866-1.662 0-2.973 1.17-2.973 2.816 0 .687.274 1.297.754 1.764H3.295c-1.003 0-1.628.653-1.628 1.688v2.137c0 .89.428 1.501 1.225 1.654v4.165c0 1.603.891 2.442 2.51 2.442h9.195zM9.293 6.247H7.965c-1.414 0-2.168-.823-2.168-1.705 0-.916.694-1.459 1.61-1.459 1.055 0 1.886.806 1.886 2.155v1.009zm2.742 0h-1.337v-1.01c0-1.348.84-2.154 1.894-2.154.917 0 1.602.543 1.602 1.459 0 .882-.77 1.705-2.159 1.705zm-2.793 4.232H3.646c-.428 0-.6-.178-.6-.602V8.121c0-.424.172-.593.6-.593h5.596v2.951zm7.12 0h-5.604V7.528h5.604c.429 0 .592.17.592.593v1.756c0 .424-.163.602-.592.602zm-7.12 6.582H5.386c-.712 0-1.114-.399-1.114-1.102V11.76h4.97v5.301zm5.364 0h-3.848V11.76h4.962v4.199c0 .703-.403 1.102-1.114 1.102z" fill="#7B8E98"/>
</svg>
