<svg width="54" height="60" viewBox="0 0 54 60" fill="none" xmlns="http://www.w3.org/2000/svg">
    <path fill-rule="evenodd" clip-rule="evenodd" d="M44.85 59.167c5.294 0 8.4-2.968 8.4-8.847V20.782c0-5.879-3.135-8.847-9.287-8.847H39.23C39.082 5.942 33.67.833 26.985.833c-6.684 0-12.097 5.109-12.245 11.102h-4.703c-6.181 0-9.287 2.94-9.287 8.847V50.32c0 5.907 3.106 8.847 9.287 8.847H44.85zM34.468 11.935H19.502c.148-3.739 3.313-6.764 7.483-6.764s7.335 3.025 7.483 6.764zm10.293 42.637H10.096c-2.957 0-4.584-1.513-4.584-4.48V21.01c0-2.968 1.627-4.48 4.584-4.48h33.778c2.928 0 4.614 1.512 4.614 4.48v29.081c0 2.968-1.686 4.48-3.727 4.48z" fill="#CFD8DC"/>
</svg>
