<svg width="16" height="16" viewBox="0 0 16 16" fill="none" xmlns="http://www.w3.org/2000/svg">
    <path fill-rule="evenodd" clip-rule="evenodd" d="M11.704 14a.718.718 0 00.523-.221l3.553-3.621a.751.751 0 00.22-.506c0-.417-.29-.695-.68-.695a.667.667 0 00-.492.209l-1.562 1.605-.926 1.106.063-1.46V2.714c0-.423-.283-.714-.699-.714s-.7.29-.7.714v7.703l.064 1.46-.926-1.106L8.58 9.166a.653.653 0 00-.485-.209c-.397 0-.687.278-.687.695 0 .171.082.367.22.506l3.553 3.62a.74.74 0 00.523.222z" fill="#263238"/>
    <path fill-rule="evenodd" clip-rule="evenodd" d="M4.296 14c.41 0 .699-.29.699-.714V5.583l-.063-1.46.926 1.106L7.42 6.834a.653.653 0 00.485.209c.397 0 .68-.278.68-.695a.744.744 0 00-.214-.506l-3.559-3.62a.718.718 0 00-1.04 0L.221 5.841a.751.751 0 00-.22.506c0 .417.283.695.68.695a.667.667 0 00.492-.209L2.727 5.23l.933-1.106-.07 1.46v7.703c0 .423.29.714.706.714z" fill="#01A54E"/>
</svg>
