<svg width="32" height="32" viewBox="0 0 32 32" fill="none" xmlns="http://www.w3.org/2000/svg">
    <path fill-rule="evenodd" clip-rule="evenodd" d="M15.987 2.667c5.886 0 10.68 4.668 10.68 10.393 0 2.113-.656 4.155-1.896 5.93l-.113.156a.911.911 0 01-.043.052l-.042.041-7.31 9.479c-.3.385-.771.615-1.276.615-.422 0-.81-.16-1.12-.437l-.187-.187-7.249-9.461a.697.697 0 01-.118-.147l-.04-.073-.235-.34a10.199 10.199 0 01-1.67-4.795l-.026-.428-.009-.43c0-5.717 4.785-10.368 10.654-10.368zm0 2.211c-4.631 0-8.414 3.667-8.414 8.182a8.07 8.07 0 001.503 4.661l.027.028.061.089 6.823 8.885 6.889-8.956.01-.027a8.125 8.125 0 001.505-4.297l.009-.383c0-4.507-3.775-8.182-8.413-8.182zm1.333 6.569v-2.94h-2.667v2.94H11.64v2.602h3.013v2.914h2.667v-2.915h2.987v-2.6l-2.987-.001z" fill="#CFD8DC"/>
</svg>
