<svg width="24" height="24" viewBox="0 0 24 24" fill="none" xmlns="http://www.w3.org/2000/svg">
    <path fill-rule="evenodd" clip-rule="evenodd" d="M15.332 22c.353 0 .706-.09 1.01-.258l5.28-2.951c.605-.328.878-.805.878-1.47V3.54c0-.735-.414-1.143-1.14-1.143-.253 0-.516.08-.849.259l-5.35 2.93-5.483-3.308A2.067 2.067 0 008.658 2c-.363 0-.727.1-1.04.278L2.368 5.22c-.595.338-.868.815-.868 1.48V20.46c0 .735.414 1.152 1.14 1.152.253 0 .516-.089.839-.268l5.139-2.722 5.583 3.08c.363.199.757.298 1.13.298zM3.257 19.556c-.081 0-.132-.06-.132-.16V7.087c0-.238.091-.406.334-.546l4.14-2.384c.13-.07.241-.13.363-.199v13.085l-4.554 2.464c-.05.02-.1.05-.151.05zm11.156.308c-.141-.08-.293-.15-.444-.229l-4.382-2.434V4.166c.101.06.222.12.323.179l4.503 2.702v12.817zm1.625.179V6.948l4.554-2.444c.05-.03.1-.05.141-.05.091 0 .142.06.142.159v12.31c0 .248-.101.417-.334.556l-4.048 2.315c-.152.09-.303.18-.454.249z" fill="#263238"/>
</svg>
