<svg width="32" height="32" viewBox="0 0 32 32" fill="none" xmlns="http://www.w3.org/2000/svg">
    <path fill-rule="evenodd" clip-rule="evenodd" d="M29.163 15.353l-4.07-6.255a1.04 1.04 0 00-.87-.475H19.16v-2.24c0-.58-.466-1.05-1.042-1.05H3.71c-.576 0-1.042.47-1.042 1.05v17.134c0 .58.466 1.05 1.041 1.05h3.304a3.132 3.132 0 002.946 2.1 3.132 3.132 0 002.946-2.1h7.356a3.132 3.132 0 002.946 2.1 3.132 3.132 0 002.945-2.1h2.14c.576 0 1.042-.47 1.042-1.05V15.93c0-.205-.059-.405-.17-.576zM9.958 24.567c-.574 0-1.041-.471-1.041-1.05 0-.579.467-1.05 1.041-1.05.575 0 1.042.471 1.042 1.05 0 .579-.467 1.05-1.042 1.05zm7.12-2.1h-4.174a3.132 3.132 0 00-2.946-2.1 3.132 3.132 0 00-2.946 2.1H4.75V7.433h12.328v15.034zm6.128 2.1c-.575 0-1.042-.471-1.042-1.05 0-.579.467-1.05 1.042-1.05.574 0 1.041.471 1.041 1.05 0 .579-.467 1.05-1.041 1.05zm4.044-2.1h-1.099a3.132 3.132 0 00-2.945-2.1 3.132 3.132 0 00-2.946 2.1h-1.1V10.723h4.5l3.59 5.519v6.225z" fill="#CFD8DC"/>
</svg>
