<svg width="20" height="20" viewBox="0 0 20 20" fill="none" xmlns="http://www.w3.org/2000/svg">
    <path fill-rule="evenodd" clip-rule="evenodd" d="M18.227 9.595l-2.543-3.91a.65.65 0 00-.545-.295h-3.163v-1.4a.654.654 0 00-.652-.657H2.319a.654.654 0 00-.651.656V14.7c0 .361.291.655.65.655h2.066a1.957 1.957 0 001.84 1.313c.85 0 1.573-.549 1.842-1.313h4.597a1.957 1.957 0 001.841 1.313c.85 0 1.573-.549 1.842-1.313h1.337c.36 0 .651-.293.651-.656V9.955a.66.66 0 00-.106-.36zm-12.003 5.76a.654.654 0 01-.651-.657c0-.362.292-.656.65-.656.36 0 .652.294.652.656a.654.654 0 01-.651.656zm4.45-1.313H8.064a1.957 1.957 0 00-1.841-1.312c-.849 0-1.572.548-1.841 1.312H2.969V4.646h7.704v9.396zm3.83 1.312a.654.654 0 01-.652-.656c0-.362.292-.656.651-.656.36 0 .652.294.652.656a.654.654 0 01-.652.656zm2.527-1.312h-.686a1.958 1.958 0 00-1.842-1.312c-.848 0-1.572.548-1.84 1.312h-.688v-7.34h2.813l2.243 3.45v3.89z" fill="#7B8E98"/>
</svg>
