<svg width="24" height="24" viewBox="0 0 24 24" fill="none" xmlns="http://www.w3.org/2000/svg">
    <path fill-rule="evenodd" clip-rule="evenodd" d="M16.268 22c1.33 0 2.222-.835 2.287-2.12l.641-13.057h1.116A.69.69 0 0021 6.14a.683.683 0 00-.688-.673h-4.249V4.119c0-1.293-.902-2.119-2.334-2.119h-3.477c-1.432 0-2.324.826-2.324 2.12v1.347h-4.24A.695.695 0 003 6.14c0 .368.316.683.688.683h1.125l.642 13.067C5.52 21.174 6.394 22 7.742 22h8.526zM14.585 5.467h-5.17V4.209c0-.512.381-.87.949-.87h3.263c.567 0 .958.358.958.87v1.258zm1.534 15.177H7.872a.939.939 0 01-.958-.916l-.65-12.905h11.445l-.614 12.905c-.028.539-.418.916-.976.916zm-1.358-1.572c.307 0 .53-.242.54-.584l.278-9.42c.01-.332-.223-.584-.539-.584-.288 0-.53.26-.539.584l-.279 9.412c-.01.332.223.592.54.592zm-5.513 0c.316 0 .548-.26.54-.592l-.289-9.412c-.01-.323-.251-.584-.54-.584-.315 0-.548.252-.539.584l.28 9.42c.009.342.232.584.548.584zm2.752 0a.58.58 0 00.567-.584v-9.42A.58.58 0 0012 8.484c-.297 0-.558.26-.558.584v9.42c0 .324.26.584.558.584z" fill="#CFD8DC"/>
</svg>
