<svg width="59" height="24" viewBox="0 0 59 24" fill="none" xmlns="http://www.w3.org/2000/svg">
    <rect width="58.5" height="24" rx="4.5" fill="#fff"/>
    <path d="M40.253 11.337v7.538h4.198v-4.467h4.758a4.654 4.654 0 004.344-3.071h-13.3z" fill="#37A72E"/>
    <path d="M39.693 5.125c.244 3.081 3.166 5.514 6.735 5.514h7.3a4.647 4.647 0 00-4.536-5.514h-9.5z" fill="url(#paint0_linear_710:9731)"/>
    <path d="M33.483 10.559a.253.253 0 01.472.115v8.201h4.199V5.125h-4.199c-.532.018-1.133.407-1.357.886l-3.341 7.147a.277.277 0 01-.038.08v.003a.28.28 0 01-.51-.16V5.126h-4.2v13.75h4.199c.526-.029 1.114-.414 1.334-.886l3.429-7.405a.24.24 0 01.009-.018l.003-.007zM15.35 18.875h-3.02l-2.455-8.08a.276.276 0 00-.548.05v8.03H5.128V5.125h4.677c.772 0 1.582.598 1.808 1.335l2.043 6.666c.101.332.266.331.368 0l2.043-6.666c.226-.738 1.035-1.335 1.808-1.335h4.676v13.75h-4.198v-8.027a.277.277 0 00-.55-.049l-2.453 8.076z" fill="#37A72E"/>
    <defs>
        <linearGradient id="paint0_linear_710:9731" x1="39.693" y1="10.639" x2="53.81" y2="10.639" gradientUnits="userSpaceOnUse">
            <stop stop-color="#00A0E5"/>
            <stop offset="1" stop-color="#0077C3"/>
        </linearGradient>
    </defs>
</svg>
