<svg width="24" height="24" viewBox="0 0 24 24" fill="none" xmlns="http://www.w3.org/2000/svg">
    <path fill-rule="evenodd" clip-rule="evenodd" d="M15.692.15h-7.3C1.729.15.15 1.73.15 8.392v7.301c0 6.663 1.578 8.24 8.24 8.24h7.301c6.663 0 8.24-1.577 8.24-8.24v-7.3c0-6.663-1.577-8.241-8.24-8.241zM19.1 7.704c.52 0 .638.269.52.638-.183.846-1.705 3.091-2.177 3.786-.09.132-.141.208-.139.208-.184.303-.251.437 0 .772.091.125.284.314.505.53.227.223.483.474.687.713.738.839 1.31 1.543 1.46 2.03.135.487-.1.739-.604.739h-1.729c-.458 0-.694-.263-1.197-.824-.216-.24-.48-.536-.833-.888-1.024-.99-1.477-1.125-1.73-1.125-.352 0-.452.084-.452.588v1.56c0 .42-.135.672-1.242.672-1.83 0-3.86-1.108-5.287-3.172-2.148-3.021-2.736-5.304-2.736-5.757 0-.251.084-.486.588-.486h1.745c.437 0 .604.184.772.67.856 2.468 2.283 4.633 2.87 4.633.218 0 .32-.1.32-.655v-2.55c-.042-.726-.295-1.042-.482-1.276-.116-.145-.207-.26-.207-.42 0-.201.168-.402.436-.402h2.72c.368 0 .503.2.503.637v3.44c0 .37.15.504.268.504.218 0 .403-.134.806-.537 1.242-1.393 2.131-3.541 2.131-3.541.118-.252.32-.487.756-.487h1.728z" fill="#fff"/>
</svg>
