<svg width="51" height="24" viewBox="0 0 51 24" fill="none" xmlns="http://www.w3.org/2000/svg">
    <rect width="51" height="24" rx="4.5" fill="#fff"/>
    <path fill="#FF5F00" d="M21.967 6.093h7.171v11.712h-7.171z"/>
    <path d="M22.706 11.95a7.436 7.436 0 012.845-5.855 7.448 7.448 0 100 11.713 7.436 7.436 0 01-2.845-5.858z" fill="#EB001B"/>
    <path fill-rule="evenodd" clip-rule="evenodd" d="M36.89 16.326v.24h-.045v-.24h-.097v-.05h.246v.05h-.103zm.479-.05v.29h-.052v-.22l-.08.189h-.057l-.08-.188v.219h-.054v-.29h.074l.087.207.087-.207h.075z" fill="#F79E1B"/>
    <path d="M37.602 11.95a7.448 7.448 0 01-12.051 5.855 7.448 7.448 0 000-11.712 7.448 7.448 0 0112.051 5.855v.002z" fill="#F79E1B"/>
</svg>
