<svg width="24" height="24" viewBox="0 0 24 24" fill="none" xmlns="http://www.w3.org/2000/svg">
    <path fill-rule="evenodd" clip-rule="evenodd" d="M7.054.072C8.334.014 8.743 0 12.002 0L12 .002c3.26 0 3.67.014 4.948.072 1.277.058 2.15.261 2.913.56.8.301 1.525.772 2.125 1.382A5.89 5.89 0 0123.37 4.14c.297.763.5 1.633.558 2.913C23.986 8.334 24 8.742 24 12c0 3.259-.013 3.67-.072 4.947-.058 1.277-.261 2.15-.558 2.913a6.137 6.137 0 01-3.51 3.51c-.763.296-1.632.499-2.912.557-1.28.058-1.689.072-4.948.072-3.26 0-3.67-.013-4.948-.072-1.277-.059-2.15-.261-2.913-.558a5.892 5.892 0 01-2.125-1.384A5.883 5.883 0 01.63 19.861c-.297-.764-.499-1.633-.558-2.913C.014 15.668 0 15.26 0 12.001c0-3.259.014-3.67.072-4.947.059-1.277.261-2.15.56-2.913.301-.8.773-1.526 1.382-2.125A5.884 5.884 0 014.139.632C4.903.335 5.774.131 7.054.072zm9.795 2.162c-1.265-.058-1.645-.07-4.849-.07l.002-.002c-3.204 0-3.584.012-4.85.07-1.17.053-1.805.249-2.228.413a3.715 3.715 0 00-1.381.898c-.399.387-.706.86-.898 1.381-.164.423-.36 1.058-.413 2.228-.057 1.266-.07 1.645-.07 4.849s.013 3.583.07 4.849c.053 1.17.249 1.805.413 2.228.192.522.5.994.898 1.381.388.399.86.706 1.381.898.423.164 1.059.36 2.229.413 1.265.058 1.645.07 4.849.07s3.584-.012 4.85-.07c1.169-.053 1.805-.249 2.227-.413a3.978 3.978 0 002.278-2.277c.164-.423.36-1.059.413-2.228.058-1.266.07-1.645.07-4.85 0-3.203-.012-3.582-.07-4.848-.053-1.17-.249-1.805-.413-2.228a3.715 3.715 0 00-.898-1.381 3.715 3.715 0 00-1.381-.898c-.423-.164-1.059-.36-2.229-.413zM6.307 9.644a6.162 6.162 0 1111.386 4.716A6.162 6.162 0 016.307 9.643zm1.692 2.355A4.001 4.001 0 1016 12a4.001 4.001 0 00-8.002 0zm10.407-4.964a1.44 1.44 0 100-2.88 1.44 1.44 0 000 2.88z" fill="#fff"/>
</svg>
