<svg width="20" height="20" viewBox="0 0 20 20" fill="none" xmlns="http://www.w3.org/2000/svg">
    <path fill-rule="evenodd" clip-rule="evenodd" d="M9.992 1.667c3.679 0 6.675 2.917 6.675 6.496 0 1.32-.41 2.596-1.185 3.706l-.07.097a.616.616 0 01-.028.033l-.026.026-4.569 5.924c-.187.24-.482.384-.797.384-.264 0-.506-.1-.7-.273l-.117-.117-4.53-5.913a.435.435 0 01-.074-.092l-.025-.045-.147-.213a6.374 6.374 0 01-1.043-2.997l-.017-.267-.006-.27c0-3.572 2.99-6.48 6.659-6.48zm0 1.382c-2.895 0-5.259 2.292-5.259 5.114 0 1.042.334 2.06.94 2.913l.016.017.039.056 4.264 5.553 4.305-5.598.007-.016c.567-.802.893-1.731.94-2.686l.006-.24c0-2.816-2.36-5.113-5.258-5.113zm.833 4.105V5.317H9.158v1.837H7.275V8.78h1.883v1.822h1.667V8.78h1.867V7.154h-1.867z" fill="#fff"/>
</svg>
