<svg width="24" height="24" viewBox="0 0 24 24" fill="none" xmlns="http://www.w3.org/2000/svg">
    <path fill-rule="evenodd" clip-rule="evenodd" d="M21.81 11.54l-1.696-1.714.612-2.333a.654.654 0 00-.46-.797L17.94 6.06l-.636-2.326a.654.654 0 00-.797-.46l-2.333.612L12.46 2.19a.654.654 0 00-.92 0L9.826 3.886l-2.333-.612a.654.654 0 00-.797.46L6.06 6.06l-2.326.636a.654.654 0 00-.46.797l.612 2.333L2.19 11.54a.654.654 0 000 .92l1.697 1.714-.612 2.333a.654.654 0 00.46.797l2.327.636.635 2.326c.095.346.45.552.797.46l2.333-.613 1.714 1.698a.652.652 0 00.92 0l1.714-1.698 2.333.613a.654.654 0 00.797-.46l.636-2.326 2.326-.636a.654.654 0 00.46-.797l-.612-2.333 1.697-1.714a.654.654 0 000-.92zm-2.888 1.979a.654.654 0 00-.168.626l.543 2.068-2.062.563a.654.654 0 00-.459.459l-.563 2.062-2.068-.543a.654.654 0 00-.626.168L12 20.426l-1.519-1.504a.654.654 0 00-.626-.168l-2.068.543-.563-2.062a.654.654 0 00-.459-.459l-2.062-.563.543-2.068a.654.654 0 00-.168-.626L3.574 12l1.504-1.519a.654.654 0 00.168-.626l-.543-2.068 2.062-.563a.654.654 0 00.459-.459l.563-2.062 2.068.543a.654.654 0 00.626-.168L12 3.574l1.519 1.504a.654.654 0 00.626.168l2.068-.543.563 2.062c.061.223.236.398.459.459l2.062.563-.543 2.068a.654.654 0 00.168.626L20.426 12l-1.504 1.519zM9.384 7.204c-1.202 0-2.18.978-2.18 2.18 0 1.202.978 2.18 2.18 2.18 1.202 0 2.18-.978 2.18-2.18 0-1.202-.978-2.18-2.18-2.18zm0 3.052a.873.873 0 010-1.744.873.873 0 010 1.744zm3.052 4.36c0-1.202.978-2.18 2.18-2.18 1.202 0 2.18.978 2.18 2.18 0 1.202-.978 2.18-2.18 2.18a2.182 2.182 0 01-2.18-2.18zm1.308 0a.873.873 0 001.744 0 .873.873 0 00-1.744 0zm.845-6.13a.654.654 0 01.925.925l-6.103 6.103a.651.651 0 01-.925 0 .654.654 0 010-.925l6.103-6.103z" fill="#CFD8DC"/>
</svg>
