<svg width="32" height="32" viewBox="0 0 32 32" fill="none" xmlns="http://www.w3.org/2000/svg">
    <path fill-rule="evenodd" clip-rule="evenodd" d="M24 7.999h5.603A2.397 2.397 0 0132 10.396v11.207A2.397 2.397 0 0129.603 24H24v5.603A2.397 2.397 0 0121.603 32H10.397A2.397 2.397 0 018 29.603V24H2.397A2.397 2.397 0 010 21.603V10.396a2.397 2.397 0 012.397-2.397H8V2.397A2.397 2.397 0 0110.399 0l11.223.01a2.397 2.397 0 012.395 2.405L24 7.999zm-.899.896h6.405c.883 0 1.598.715 1.598 1.598v11.013c0 .882-.715 1.598-1.598 1.598h-6.402v6.402c0 .883-.715 1.598-1.598 1.598H10.494a1.598 1.598 0 01-1.598-1.598v-6.402H2.494a1.598 1.598 0 01-1.598-1.598V10.493c0-.883.715-1.598 1.598-1.598h6.402v-6.4c0-.884.716-1.6 1.6-1.598l11.028.01c.884 0 1.6.718 1.597 1.602l-.02 6.386zm-20.51.896h7.201v-7.2c0-.44.358-.799.8-.798l10.834.01c.442 0 .8.359.799.8l-.023 7.188h7.207c.441 0 .799.357.799.799v10.819a.799.799 0 01-.799.799h-7.201v7.201a.799.799 0 01-.799.799H10.591a.799.799 0 01-.799-.799v-7.201H2.591a.799.799 0 01-.799-.8V10.59c0-.441.358-.8.799-.8zm9.046 1.512c.062-.318.107-.55.799-.969.137-.083.259-.172.384-.263.505-.368 1.061-.773 2.885-.996 2.008-.246 2.95-.05 3.667.154.363.104 1.02.35 1.686.874.668.524 1.314 1.282 1.37 2.624a3.487 3.487 0 01-.283 1.526c-.126.299-.876 1.61-2.408 2.08-1.17.358-2.105.485-2.65.56h-.001c-.169.022-.3.04-.39.058l-.047.01c-.536.105-3.435.674-3.435 2.4 0 1.784 1.952 2.352 3.322 2.352s2.33-.867 2.33-.867.737-.6.7-1.447c-.035-.846-.37-1.299-.852-1.634A4.229 4.229 0 0018 17.39c-.123-.052-.586-.222-.586-.222s1.109-.163 1.867-.344c.536.128 1.849 1.043 1.849 2.648 0 1.604-1.596 3.569-4.76 3.569-1.473 0-2.63-.383-3.548-1.12-.918-.738-1.171-1.84-1.171-2.63 0-.574.242-1.091.54-1.51.468-.66 1.37-1.27 1.96-1.499.26-.1.575-.207.945-.305.619-.164 1.317-.285 1.972-.399.63-.11 1.22-.212 1.665-.34 1.916-.548 2.397-1.426 2.397-2.528s-1.04-1.897-2.139-2.25c-1.099-.354-2.5-.399-3.69.162-.609.286-.735.46-.844.609-.105.142-.194.264-.672.442-.98.366-2.085-.196-2.085-.196l-.356.196s-.061.082-.17.1c-.11.017-.25-.034-.25-.034s.206-.042.25-.06c.043-.017.071-.071.071-.071s-.178.009-.269-.022c-.092-.03-.166-.123-.166-.123s.125.046.25.047c.124 0 .248-.045.248-.045s.196-.027.33-.16zm-1.149 7.12c-.681.775-.671 1.63-.671 1.63s.575-.88 1.496-1.122c.09-.898.8-1.554.8-1.554s-.943.27-1.625 1.045zm10.174-5.739s.128 2.543-5.675 2.543c-5.802 0-5.675-2.543-5.675-2.543h11.35zm-6.838-2.144c.208-.048.352-.191.322-.32-.03-.13-.222-.195-.43-.147-.207.047-.351.19-.321.32.03.129.222.195.43.147z" fill="#01A54E"/>
</svg>
