<svg width="20" height="18" viewBox="0 0 20 18" fill="none" xmlns="http://www.w3.org/2000/svg">
    <path fill-rule="evenodd" clip-rule="evenodd" d="M10 18c.211 0 .514-.137.735-.265C16.405 14.205 20 10.098 20 5.922 20 2.45 17.553 0 14.29 0 12.427 0 10.916.863 10 2.186 9.104.873 7.573 0 5.71 0 2.447 0 0 2.451 0 5.922c0 4.176 3.595 8.284 9.275 11.813.211.128.514.265.725.265zm0-1.657c-.04 0-.11-.049-.201-.117C5.579 13.5 1.62 9.569 1.62 5.921c0-2.608 1.732-4.344 4.069-4.344 1.893 0 2.98 1.147 3.625 2.128.272.392.443.5.685.5.242 0 .393-.118.685-.5.695-.96 1.742-2.128 3.625-2.128 2.336 0 4.069 1.736 4.069 4.344 0 3.647-3.958 7.578-8.168 10.304-.1.068-.17.117-.211.117z" fill="#263238"/>
</svg>
