<svg width="24" height="24" viewBox="0 0 24 24" fill="none" xmlns="http://www.w3.org/2000/svg">
    <path fill-rule="evenodd" clip-rule="evenodd" d="M21.074 7.89c.517 0 .926-.432.926-.95 0-.52-.4-.94-.926-.94H2.926A.93.93 0 002 6.94c0 .518.41.95.926.95h18.148zm-3.996 4.99c.526 0 .926-.422.926-.94 0-.529-.4-.94-.926-.94H2.926a.93.93 0 00-.926.94c0 .509.41.94.926.94h14.152zm-3.947 5.01c.516 0 .925-.432.925-.95a.93.93 0 00-.925-.94H2.926a.93.93 0 00-.926.94c0 .518.41.95.926.95H13.13z" fill="#263238"/>
</svg>
