<svg width="24" height="24" viewBox="0 0 24 24" fill="none" xmlns="http://www.w3.org/2000/svg">
    <path fill-rule="evenodd" clip-rule="evenodd" d="M21.872 11.515L18.82 6.823a.78.78 0 00-.653-.356h-3.796v-1.68A.784.784 0 0013.589 4H2.781A.784.784 0 002 4.787v12.85c0 .436.35.788.781.788H5.26A2.349 2.349 0 007.47 20a2.349 2.349 0 002.21-1.575h5.516A2.349 2.349 0 0017.405 20a2.349 2.349 0 002.209-1.575h1.605a.784.784 0 00.781-.787v-5.692a.792.792 0 00-.128-.431zM7.47 18.425a.785.785 0 01-.782-.787c0-.434.351-.788.782-.788.43 0 .781.354.781.788 0 .434-.35.787-.781.787zm5.34-1.575h-3.13a2.349 2.349 0 00-2.21-1.574 2.349 2.349 0 00-2.21 1.574H3.562V5.575h9.246V16.85zm4.595 1.575a.785.785 0 01-.781-.787c0-.434.35-.788.781-.788.431 0 .781.354.781.788 0 .434-.35.787-.78.787zm3.034-1.575h-.825a2.349 2.349 0 00-2.209-1.574 2.349 2.349 0 00-2.21 1.574h-.823V8.042h3.374l2.692 4.14v4.668z" fill="#CFD8DC"/>
</svg>
