<svg width="21" height="20" viewBox="0 0 21 20" fill="none" xmlns="http://www.w3.org/2000/svg">
    <path fill-rule="evenodd" clip-rule="evenodd" d="M18.376 9.617L16.96 8.188l.511-1.944a.545.545 0 00-.384-.664l-1.938-.53-.53-1.939a.545.545 0 00-.664-.383l-1.944.51-1.428-1.414a.545.545 0 00-.767 0L8.388 3.24l-1.944-.511a.545.545 0 00-.664.383l-.53 1.94-1.939.53a.545.545 0 00-.383.663l.51 1.944-1.414 1.429a.545.545 0 000 .766l1.415 1.429-.511 1.944a.545.545 0 00.383.664l1.94.53.53 1.939c.078.288.374.459.663.383l1.944-.51 1.429 1.414a.543.543 0 00.767 0l1.428-1.415 1.944.511a.545.545 0 00.664-.383l.53-1.94 1.939-.53a.545.545 0 00.383-.663l-.51-1.944 1.414-1.429a.545.545 0 000-.766zm-2.408 1.649a.545.545 0 00-.14.522l.453 1.723-1.719.47a.545.545 0 00-.382.381l-.47 1.719-1.722-.453a.545.545 0 00-.522.14L10.2 17.02l-1.266-1.253a.545.545 0 00-.522-.14l-1.723.453-.47-1.719a.545.545 0 00-.381-.382l-1.719-.47.453-1.722a.545.545 0 00-.14-.522L3.179 10l1.253-1.266a.545.545 0 00.14-.522L4.119 6.49l1.719-.47a.545.545 0 00.382-.381l.47-1.719 1.722.453a.545.545 0 00.522-.14L10.2 2.979l1.266 1.253a.545.545 0 00.522.14l1.723-.453.47 1.719c.05.186.195.331.381.382l1.719.47-.453 1.722a.545.545 0 00.14.522L17.221 10l-1.253 1.266zM8.02 6.004A1.819 1.819 0 006.204 7.82c0 1.002.814 1.817 1.816 1.817A1.819 1.819 0 009.837 7.82 1.819 1.819 0 008.02 6.004zm0 2.543a.727.727 0 11.002-1.455.727.727 0 01-.002 1.455zm2.543 3.633c0-1.002.815-1.817 1.817-1.817s1.816.815 1.816 1.817a1.819 1.819 0 01-1.816 1.816 1.819 1.819 0 01-1.817-1.816zm1.09 0a.727.727 0 101.455-.002.727.727 0 00-1.455.002zm.705-5.109a.545.545 0 01.77.771L8.043 12.93a.543.543 0 01-.77 0 .545.545 0 010-.771l5.086-5.087z" fill="#fff"/>
</svg>
