<svg width="21" height="20" viewBox="0 0 21 20" fill="none" xmlns="http://www.w3.org/2000/svg">
    <path fill-rule="evenodd" clip-rule="evenodd" d="M13.362 3.75a1.46 1.46 0 00-1.448 1.227l-.446.439c-.775.763-1.917 1.219-3.054 1.219h-2.93c-.636 0-1.179.402-1.38.961H4.02c-1.077 0-1.953.863-1.953 1.923s.876 1.923 1.953 1.923h.084c.147.41.477.734.892.88v2.486c0 .795.658 1.442 1.465 1.442.808 0 1.465-.647 1.465-1.442v-2.404h.488c1.137 0 2.28.456 3.054 1.219l.446.438a1.46 1.46 0 001.448 1.228c.808 0 1.465-.648 1.465-1.443V5.192c0-.795-.657-1.442-1.465-1.442zM4.02 10.48a.97.97 0 01-.977-.96.97.97 0 01.977-.962v1.923zM6.46 15.29c.27 0 .488-.216.488-.481v-2.404h-.976v2.404c0 .265.219.48.488.48zm1.465-3.847H5.485a.485.485 0 01-.489-.48V8.076c0-.265.22-.48.489-.48h2.441v3.845zm.973.022a5.38 5.38 0 012.998 1.24V6.334A5.38 5.38 0 018.9 7.575v3.89zm4.952 2.382c0 .265-.22.48-.489.48a.485.485 0 01-.488-.48V5.192c0-.265.219-.48.488-.48.27 0 .489.215.489.48v8.654zm3.763-7.07a.494.494 0 00-.69 0l-.977.961a.476.476 0 000 .68c.19.188.5.188.69 0l.977-.962a.476.476 0 000-.68zm-.834 2.743h1.465c.27 0 .488.215.488.481 0 .265-.218.48-.488.48H16.78a.485.485 0 01-.488-.48c0-.266.219-.48.488-.48zm-.143 2.064l.977.962c.19.187.19.492 0 .68a.494.494 0 01-.69 0l-.977-.962a.476.476 0 010-.68c.19-.188.5-.188.69 0z" fill="#fff"/>
</svg>
