<svg width="21" height="20" viewBox="0 0 21 20" fill="none" xmlns="http://www.w3.org/2000/svg">
    <path fill-rule="evenodd" clip-rule="evenodd" d="M15.69 18.333c1.49 0 2.47-.4 3.33-1.371.07-.069.137-.145.197-.213.511-.571.75-1.134.75-1.67 0-.614-.358-1.185-1.116-1.713l-2.48-1.721c-.767-.529-1.662-.588-2.377.119l-.656.656c-.196.196-.367.204-.554.085-.46-.29-1.39-1.099-2.02-1.73C10.1 10.12 9.461 9.387 9.12 8.85c-.111-.196-.102-.358.093-.554l.648-.656c.716-.716.656-1.619.128-2.377l-1.721-2.48c-.529-.758-1.1-1.108-1.713-1.116-.537-.009-1.1.238-1.67.75l-.213.187C3.7 3.474 3.3 4.454 3.3 5.927c0 2.437 1.5 5.402 4.252 8.155 2.735 2.735 5.709 4.251 8.137 4.251zm.008-1.312c-2.173.043-4.96-1.627-7.166-3.826C6.308 10.98 4.562 8.1 4.604 5.927c.017-.937.35-1.747 1.014-2.326.06-.051.102-.094.162-.136.255-.222.528-.341.775-.341s.469.094.63.35L8.84 5.952c.178.264.196.562-.069.826l-.75.75c-.587.588-.545 1.304-.119 1.875.486.656 1.33 1.61 1.986 2.258.647.656 1.678 1.576 2.343 2.07.57.426 1.287.469 1.874-.12l.75-.749c.264-.264.554-.247.827-.077l2.48 1.653c.255.17.349.384.349.64 0 .246-.12.52-.341.775l-.137.162c-.579.664-1.388.988-2.334 1.005z" fill="#fff"/>
</svg>
