<svg width="21" height="20" viewBox="0 0 21 20" fill="none" xmlns="http://www.w3.org/2000/svg">
    <path fill-rule="evenodd" clip-rule="evenodd" d="M18.827 9.596l-2.543-3.91a.65.65 0 00-.545-.296h-3.163v-1.4a.654.654 0 00-.651-.657H2.918a.654.654 0 00-.651.656V14.7c0 .362.291.655.65.655h2.066a1.957 1.957 0 001.841 1.313c.849 0 1.572-.549 1.841-1.313h4.597a1.957 1.957 0 001.841 1.313c.85 0 1.573-.549 1.842-1.313h1.337c.36 0 .651-.293.651-.656V9.955a.66.66 0 00-.106-.36zM6.824 15.354a.654.654 0 01-.651-.656c0-.362.292-.656.651-.656.359 0 .651.294.651.656a.654.654 0 01-.651.656zm4.45-1.312H8.665a1.957 1.957 0 00-1.841-1.312c-.849 0-1.572.548-1.841 1.312H3.569V4.646h7.705v9.396zm3.83 1.312a.654.654 0 01-.651-.656c0-.362.292-.656.65-.656.36 0 .652.294.652.656a.654.654 0 01-.652.656zm2.527-1.312h-.686a1.957 1.957 0 00-1.841-1.312c-.85 0-1.573.548-1.842 1.312h-.686v-7.34h2.812l2.243 3.45v3.89z" fill="#fff"/>
</svg>
