<svg width="24" height="24" viewBox="0 0 24 24" fill="none" xmlns="http://www.w3.org/2000/svg">
    <path fill-rule="evenodd" clip-rule="evenodd" d="M15.555 4.5c-.88 0-1.611.64-1.739 1.472l-.534.527c-.93.916-2.3 1.463-3.665 1.463H6.102c-.764 0-1.416.482-1.657 1.153h-.101C3.05 9.115 2 10.151 2 11.423c0 1.272 1.051 2.308 2.344 2.308h.1c.177.49.573.88 1.072 1.054v2.984c0 .955.788 1.731 1.757 1.731.97 0 1.758-.776 1.758-1.73v-2.885h.586c1.365 0 2.735.546 3.665 1.462l.534.527a1.752 1.752 0 001.739 1.472c.969 0 1.758-.776 1.758-1.73V6.23c0-.955-.79-1.731-1.758-1.731zM4.344 12.577a1.164 1.164 0 01-1.172-1.154c0-.636.526-1.154 1.172-1.154v2.308zm2.93 5.77a.582.582 0 00.585-.578v-2.884H6.688v2.884c0 .318.262.577.585.577zM9.03 13.73h-2.93a.582.582 0 01-.585-.577V9.692c0-.318.262-.577.586-.577h2.93v4.616zm1.168.026a6.456 6.456 0 013.598 1.487V7.602a6.456 6.456 0 01-3.598 1.487v4.668zm5.942 2.858a.582.582 0 01-.586.577.582.582 0 01-.586-.577V6.231c0-.318.263-.577.586-.577.323 0 .586.259.586.577v10.384zm4.516-8.484a.592.592 0 00-.83 0l-1.171 1.153a.57.57 0 000 .816c.229.226.6.226.829 0l1.172-1.154a.57.57 0 000-.815zm-1 3.292h1.757c.324 0 .586.258.586.577a.581.581 0 01-.586.577h-1.758A.582.582 0 0119.07 12c0-.319.263-.577.586-.577zm-.172 2.477l1.172 1.154a.57.57 0 010 .816.592.592 0 01-.83 0l-1.171-1.154a.57.57 0 010-.816.592.592 0 01.829 0z" fill="#CFD8DC"/>
</svg>
