<svg width="174" height="32" viewBox="0 0 174 32" fill="none" xmlns="http://www.w3.org/2000/svg">
    <path fill-rule="evenodd" clip-rule="evenodd" d="M131.404 25.8c.217 0 .325.07.325.21 0 .056-.005.112-.014.168a5.891 5.891 0 00-.085.448l-.106.889-.009.137-.009.317-.002.673.003.413.012.527.019.393.031.375.031.307.063.545.052.42c.019.13 0 .226-.057.287-.056.06-.216.091-.479.091h-.776c-.245 0-.393-.177-.445-.532l-.015-.133-.02-.281-.017-.378-.015-.655-.009-.828V27.93l.013-.618.015-.235.028-.286.02-.163.049-.366h-2.031c-.132.802-.198 1.52-.198 2.155 0 .588.021 1.134.064 1.638.042.503.091 1.017.148 1.54 0 .148-.026.253-.078.314-.052.06-.205.091-.459.091h-.776c-.235 0-.381-.173-.437-.518l-.008-.057-.015-.143-.02-.29-.016-.378-.015-.645-.007-.587-.004-.923.002-.423.005-.381.014-.492.013-.276.026-.334.021-.17c.008-.05.016-.092.025-.128.071-.285.209-.427.416-.427h4.276l.254-.014.197-.014zm-52.012 0c.09 0 .177.045.259.136a.47.47 0 01.123.325.775.775 0 01-.069.326l-.125.211c-.01.018-.018.033-.024.047-.173.253-.318.5-.436.74-.118.239-.227.503-.327.793l-.667-.122.094-.282.042-.139c.027-.1.04-.203.04-.312 0-.48-.195-.81-.585-.99-.236-.109-.55-.163-.94-.163h-.245l-.013 1.22-.014.883.003.804.01.763.012.56.024.63.016.23.017.174c.018.126-.003.219-.062.278-.059.059-.21.088-.456.088h-.763c-.181 0-.29-.084-.326-.251a1.233 1.233 0 01-.018-.115l-.015-.162-.01-.209-.01-.401-.002-.327.014-.8v-.557l.027-1.479.04-1.33h-.23c-.382 0-.686.05-.913.15-.409.181-.613.516-.613 1.004 0 .065.014.158.044.278l.12.455-.668.122a6.967 6.967 0 00-.253-.695l-.079-.163-.078-.142-.15-.246-.09-.139-.15-.224-.074-.123a.747.747 0 01-.106-.385.47.47 0 01.122-.325c.082-.09.168-.136.259-.136.032 0 .071.002.119.007l.378.047.252.027c.19.037.445.06.763.068.317.01.621.014.912.014h2.996c.373 0 .731-.027 1.076-.082l.25-.027.206-.027c.123-.018.22-.027.293-.027zm-17.588 0c.375 0 .75.076 1.125.23.187.076.422.199.703.368.179.136.328.204.447.204.094 0 .184-.03.269-.089l.306.37c-.195.135-.39.241-.581.318a1.47 1.47 0 01-.543.114.977.977 0 01-.544-.172 2.444 2.444 0 01-.492-.433l-.294-.324a.554.554 0 00-.358-.153c-.375 0-.634.301-.78.904-.102.416-.153.942-.153 1.578.188-.144.44-.288.754-.432.367-.17.652-.255.857-.255.153 0 .31.03.473.09.108.039.214.086.318.14l.155.088c.153.094.264.14.332.14a.564.564 0 00.23-.05 1.11 1.11 0 00.23-.14l.243.318-.152.174-.13.135-.057.054c-.044.04-.096.083-.153.128l-.192.145-.154.106c-.07.045-.13.077-.178.098a.706.706 0 01-.275.05.757.757 0 01-.288-.037l-.083-.045-.119-.073-.072-.048a4.56 4.56 0 00-.384-.23 1.108 1.108 0 00-.524-.152c-.179 0-.354.047-.524.14-.085.051-.183.123-.294.217 0 .61.147 1.124.441 1.54.294.416.71.624 1.246.624.23 0 .469-.045.716-.134.247-.089.533-.252.857-.49l.217.255a2.886 2.886 0 01-2.173.93c-.733-.001-1.364-.175-1.892-.523-.75-.5-1.125-1.282-1.125-2.342v-.408c0-.662.2-1.281.6-1.859.495-.712 1.16-1.069 1.995-1.069zm95.583 0c.375 0 .749.076 1.124.23.188.076.422.199.703.368.179.136.329.204.448.204a.46.46 0 00.268-.089l.307.37c-.196.135-.39.241-.582.318a1.464 1.464 0 01-.543.114.978.978 0 01-.543-.172 2.427 2.427 0 01-.492-.433l-.294-.324a.553.553 0 00-.358-.153c-.375 0-.635.301-.78.904-.102.416-.153.942-.153 1.578a3.93 3.93 0 01.754-.432c.366-.17.652-.255.856-.255.154 0 .311.03.473.09.108.039.214.086.318.14l.155.088c.154.094.264.14.333.14a.567.567 0 00.23-.05c.076-.035.153-.081.23-.14l.243.318-.153.174a2.591 2.591 0 01-.431.388l-.1.074c-.141.102-.252.17-.333.204a.699.699 0 01-.274.05.756.756 0 01-.288-.037l-.084-.045-.118-.073-.073-.048a4.554 4.554 0 00-.383-.23 1.109 1.109 0 00-.524-.152c-.179 0-.354.047-.524.14-.086.051-.184.123-.294.217 0 .61.147 1.124.441 1.54.294.416.709.624 1.246.624.23 0 .469-.045.716-.134.247-.089.532-.252.856-.49l.217.255a2.885 2.885 0 01-2.173.93c-.732-.001-1.363-.175-1.891-.523-.75-.5-1.125-1.282-1.125-2.342v-.408c0-.662.2-1.281.6-1.859.495-.712 1.159-1.069 1.995-1.069zm-108.855 0c.114 0 .32.065.62.195l.279.127.156.076c.541.264.812.49.812.678 0 .041-.043.115-.129.223l-.123.145-.078.085a2.903 2.903 0 00-.39.501c-.057.098-.098.147-.122.147-.01 0-.032-.017-.065-.052l-.08-.092-.111-.137a2.596 2.596 0 00-.44-.453 2.303 2.303 0 00-.915-.403 1.866 1.866 0 00-.152.55l-.028.227c-.01.1-.015.179-.015.238 0 .538.173 1.086.519 1.644.345.559.742.924 1.19 1.095.105-.106.21-.233.316-.38l.095-.134.247-.379.378.306a5.116 5.116 0 01-.94 1.406c-.373.391-.678.587-.914.587-.366 0-.79-.373-1.27-1.119s-.72-1.437-.72-2.073c0-.66.237-1.337.708-2.03.448-.652.838-.978 1.172-.978zm40.562 0c.064.01.108.033.132.07a.233.233 0 01.034.125l-.003.061a1.844 1.844 0 01-.004.04l-.024.15-.038.202a7.398 7.398 0 00-.111.864c-.028.348-.042.67-.042.968v.293c.51 0 .999.062 1.467.188a3.36 3.36 0 011.23.606c.4.316.686.692.863 1.128.12.307.18.627.18.962 0 .25-.088.413-.264.487-.077.031-.203.05-.376.055l-.333.001-.223-.014-.305-.014h-3.421c-.158 0-.274-.042-.348-.125-.074-.084-.111-.214-.111-.39l.002-2.504.008-.857.015-.693.022-.532.02-.293.017-.144c.055-.413.208-.62.458-.62l.404.014h.403l.118-.02a.58.58 0 01.076-.008h.154zm26.213 0c.092 0 .147.023.166.069l.003.173.004.066.032.146.434 1.7.225.85.108.388.157.538.149.482.073.22.528 1.458c0 .073-.087.11-.261.11h-1.337c-.052 0-.09-.035-.115-.105l-.148-.532-.431-1.492c-.193.64-.432 1.128-.717 1.466-.367.439-.818.658-1.35.658-.497 0-.869-.201-1.117-.603-.193-.31-.289-.676-.289-1.096 0-.43.211-.941.634-1.535l.089-.121.121-.154.152-.185.352-.413.372-.424.485-.526c.147-.156.22-.279.22-.37a.927.927 0 00-.02-.185l-.017-.073-.052-.174a.848.848 0 01-.048-.267c0-.046.087-.069.261-.069h1.337zM9.94 0l12.219.011a1.911 1.911 0 011.915 1.915l-.019 6.073h6.098c1.06 0 1.92.86 1.92 1.914v12.172A1.916 1.916 0 0130.154 24h-6.098v6.084A1.92 1.92 0 0122.137 32h-12.2a1.916 1.916 0 01-1.919-1.916V24H1.921A1.92 1.92 0 010 22.085V9.913c0-1.057.858-1.914 1.92-1.914h6.098V1.915C8.018.856 8.882-.001 9.94 0zm137.103 25.8c.091 0 .177.045.259.136.082.09.122.199.122.325a.766.766 0 01-.068.326l-.125.211-.025.047c-.172.253-.317.5-.435.74-.118.239-.227.503-.327.793l-.667-.122.067-.198.069-.223c.027-.1.041-.203.041-.312 0-.48-.196-.81-.586-.99-.236-.109-.549-.163-.94-.163h-.245l-.014 1.22-.013.883.003.804.01.763.017.738.012.316.015.259.016.201.009.08c.018.126-.003.219-.062.278-.059.059-.211.088-.456.088h-.763c-.181 0-.29-.084-.326-.251a1.012 1.012 0 01-.018-.115l-.015-.162-.011-.209-.009-.401-.002-.327.014-.8v-.557l.027-1.479.041-1.33h-.232c-.381 0-.685.05-.912.15-.409.181-.613.516-.613 1.004 0 .065.014.158.044.278l.119.455-.667.122a6.026 6.026 0 00-.3-.794 4.754 4.754 0 00-.26-.452l-.239-.364-.075-.122a.754.754 0 01-.107-.385c0-.126.041-.235.123-.325.082-.09.168-.136.259-.136.032 0 .071.002.119.007l.378.047.252.027c.191.037.445.06.763.068.317.01.621.014.912.014h2.996c.372 0 .731-.027 1.076-.082l.25-.027.206-.027c.123-.018.22-.027.293-.027zm23.341.007c.109.027.163.09.163.19l-.002.048-.014.14-.045.321-.058.36-.059.405-.023.193a7.971 7.971 0 00-.031.453l-.012.366c-.003.13-.004.27-.004.417h.108c.577-1.06 1.127-1.83 1.65-2.31.424-.388.829-.583 1.217-.583.144 0 .275.02.392.061.117.04.176.088.176.143a.43.43 0 01-.061.211l-.047.074c-.18.253-.271.602-.271 1.046l-.013.271-.325.014c-.126-.272-.324-.408-.595-.408-.216 0-.466.12-.75.36a3.37 3.37 0 00-.724.863l-.27.38c.874.245 1.578.62 2.109 1.127.659.625.988 1.25.988 1.874 0 .11-.109.163-.325.163h-.162l-.46-.04c-.135 0-.251.005-.349.015l-.291.039h-.009a.183.183 0 01-.176-.109.842.842 0 01-.054-.166l-.036-.175-.018-.107a3.368 3.368 0 00-.581-1.46 2.193 2.193 0 00-1.123-.835l.003.464.008.414.018.448.005.08c.009.146.024.297.041.446l.085.63c.018.136.009.222-.027.259-.072.072-.262.108-.568.108h-.609c-.225 0-.36-.165-.405-.495l-.014-.12-.026-.364-.023-.525-.014-.496-.012-.795-.003-.692.002-.425.008-.39.012-.353.015-.313.028-.389.021-.201.022-.154a.628.628 0 01.011-.057c.058-.272.187-.408.385-.408l.338.028.649-.041c.072-.01.117-.01.135 0zm-81.357 3.34l-.013.118-.012.212-.003.146v.468l.011.525.03.896h1.514l.224-.014.014-.42c0-.429-.088-.788-.266-1.077-.29-.485-.79-.77-1.5-.854zM10.195.898c-.663-.001-1.214.511-1.273 1.166l-.006.117v6.715h-6.73c-.672 0-1.223.513-1.283 1.169l-.005.117v11.636c0 .672.515 1.222 1.171 1.281l.117.006h6.73v6.715c0 .67.515 1.22 1.172 1.28l.117.005h11.663c.674 0 1.225-.513 1.284-1.168l.005-.117v-6.715h6.73c.672 0 1.224-.514 1.283-1.17l.006-.117V10.181c0-.672-.515-1.222-1.172-1.281l-.117-.005h-6.733l.021-6.704A1.278 1.278 0 0022.017.912l-.116-.005-11.706-.01zM114.056 27.1a6.804 6.804 0 00-.922 1.274c-.245.441-.367.807-.367 1.097 0 .218.061.42.183.607.122.186.315.28.577.28.335 0 .611-.128.828-.382.181-.21.271-.432.271-.668 0-.146-.027-.309-.081-.49l-.136-.45-.163-.573-.19-.695zM10.45 1.793l11.193.01c.325 0 .59.244.629.56l.004.08-.022 7.348h7.38c.33 0 .6.241.639.553l.005.08v11.15a.636.636 0 01-.562.628l-.081.005h-7.376v7.36a.637.637 0 01-.555.636l-.08.005H10.45a.636.636 0 01-.63-.56l-.004-.081v-7.36H2.439a.638.638 0 01-.638-.553l-.005-.08v-11.15c0-.324.245-.59.562-.628l.08-.005h7.377V2.433c0-.356.284-.64.635-.64zm92.166 26.372c.104.017.156.078.156.185l-.012.556.012.556c0 .099-.052.157-.156.173h-.109l-.482-.025-.385.013c-.145 0-.221-.019-.229-.056l-.017-.127-.013-.15a4.957 4.957 0 01-.018-.396l.007-.323.012-.153a.482.482 0 01.029-.136c.032-.07.108-.105.229-.105l.385.013.482-.025h.109zM15.741 9.075c-1.18.144-1.83.363-2.279.6l-.17.095-.152.097-.274.192-.196.14-.135.091-.07.044c-.602.364-.716.586-.776.846l-.025.123a.61.61 0 01-.262.145l-.079.02-.068.018a.742.742 0 01-.171.023.746.746 0 01-.172-.024l-.078-.023.032.035c.03.03.08.07.134.088.027.009.06.014.094.018l.099.005.077-.001-.02.029a.137.137 0 01-.052.042l-.084.024-.165.036.084.023c.048.01.11.019.165.01a.278.278 0 00.142-.069l.029-.03.357-.196.094.043.11.046.146.053c.405.137 1.1.293 1.74.054.374-.139.51-.243.602-.35l.128-.167c.106-.134.278-.294.79-.534 1.193-.56 2.597-.516 3.698-.163 1.102.354 2.144 1.149 2.144 2.25 0 1.103-.483 1.981-2.403 2.53-.28.08-.617.15-.986.218l-1.173.207c-.506.09-1.018.19-1.486.313a9.055 9.055 0 00-.947.305c-.591.228-1.496.84-1.966 1.499-.297.418-.54.936-.54 1.51 0 .79.253 1.892 1.174 2.63.92.737 2.079 1.12 3.556 1.12 3.17 0 4.77-1.965 4.77-3.57 0-1.604-1.316-2.519-1.853-2.647-.12.028-.249.056-.38.084l-.39.076-.675.117-.426.067.541.203.046.019c.241.103.51.233.718.377.483.334.818.787.854 1.633.025.598-.336 1.072-.55 1.3l-.093.093-.145.123-.102.077-.14.096a4.038 4.038 0 01-.082.052l-.191.111a3.65 3.65 0 01-1.735.462c-1.373 0-3.33-.568-3.33-2.353 0-1.081 1.142-1.709 2.127-2.052l.289-.095.272-.078.247-.064.306-.07.312-.061.875-.126.314-.052.347-.065.378-.08c.328-.075.687-.167 1.071-.285 1.202-.367 1.924-1.25 2.241-1.76l.091-.155.062-.12a3.48 3.48 0 00.305-1.57c-.057-1.342-.705-2.1-1.374-2.624a5.122 5.122 0 00-1.395-.778l-.206-.07-.283-.079-.206-.05a6.22 6.22 0 00-.11-.025l-.233-.044c-.65-.11-1.533-.153-2.933.018zM61.608 0c.32 0 .556.106.707.317.15.21.225.477.225.8 0 .172-.055.403-.165.694l-.321.795-.101.272-.068.21-.075.258-.082.304a9.18 9.18 0 00-.202 1.033l-.096.74-.034.234-.031.183-.028.133c-.12.422-.361.634-.722.634-.301 0-.512-.121-.632-.362l-.03-.074-.043-.124-.12-.401-.078-.276c-.441-1.59-1.043-2.665-1.806-3.228-.501-.362-1.223-.543-2.166-.543h-2.287v17.648h2.377v1.206h-9.177v-1.206h2.377V1.599h-2.377V.392h10.742c.441 0 .898-.015 1.37-.045.47-.03.922-.07 1.353-.12l.5-.065.27-.043.118-.022.105-.022c.23-.05.396-.075.497-.075zm14.837 0c1.546 0 2.935.266 4.168.798 1.722.749 2.905 1.95 3.551 3.606h1.32v1.182h-6.896V4.404h.88c-.176-.847-.499-1.537-.969-2.069-.684-.768-1.594-1.153-2.729-1.153-1.37 0-2.407.67-3.111 2.01-.587 1.104-.88 2.483-.88 4.138 0 .473.029.936.087 1.39.724-.651 1.468-1.104 2.231-1.36a7.605 7.605 0 012.436-.385c1.115 0 2.147.286 3.096.857.95.572 1.61 1.36 1.982 2.365h1.144v1.212H75.83v-1.212h1.027c-.157-.532-.411-.946-.763-1.241-.352-.296-.685-.444-.998-.444-.567 0-1.145.114-1.732.34-.587.227-1.056.547-1.409.96l.172 1.055.156.88.048.2.13.449.199.638c.274.907.474 1.68.602 2.32.127.641.19 1.385.19 2.232l-.003.28c-.006.213-.02.376-.04.489-.015.078-.041.177-.078.295l-.088.263-.055.151c.255.138.597.207 1.027.207 1.624 0 2.896-.483 3.816-1.448.665-.69 1.125-1.616 1.38-2.779H78v-1.152h7.309v1.152l-1.028.03a10.767 10.767 0 01-3.434 3.783c-1.545 1.064-3.12 1.596-4.725 1.596a22.45 22.45 0 01-2.406-.133 12.47 12.47 0 01-2.143-.399l.033-.289.023-.303.003-.117c0-.69-.167-1.36-.5-2.01-.234-.453-.635-1.035-1.203-1.744l-.21-.259-.397-.497a36.79 36.79 0 01-.361-.467l-.327-.44c-.104-.14-.201-.278-.293-.41l-.258-.38a8.443 8.443 0 01-.634-1.109c-.362-.798-.543-1.758-.543-2.881 0-3.192 1.076-5.577 3.229-7.153C71.837.621 73.94 0 76.445 0zm26.492 0v1.21h-1.745c.341 2.482.833 5.165 1.474 8.05a114.558 114.558 0 001.728 6.706l.373 1.268.554 2.009h2.083v1.21h-8.42v-1.21h1.87c-.681-2.078-1.397-4.747-1.978-7.35l-.132-.602-.136-.646-.214-1.052-.302-1.559-.239-1.286-.481-2.39c-.301.343-.572.71-.813 1.104-.068.113-.14.233-.213.361l-.229.408-.243.454-.127.245c-.782 1.412-1.344 2.698-1.685 3.859-.34 1.16-.511 2.183-.511 3.071l.003.455.008.41.014.365.01.166.022.299c.03.323.07.555.123.696.107.287.262.446.464.478l.078.006c.28 0 .471.1.572.303.106.225.18.625.224 1.2l.027.463.016.53.003.47c0 .302-.11.5-.33.59a1.8 1.8 0 01-.692.136c-.161 0-.342-.015-.542-.045l-.481-.076c-.12-.02-.266-.03-.437-.03h-.376c-.3 0-.546.01-.735.031l-.107.014c-.2.03-.371.045-.511.045-.281 0-.517-.07-.707-.211-.19-.142-.306-.414-.346-.817v-1.03c0-1.069.17-2.123.511-3.162l.114-.328.136-.362c.05-.127.103-.258.16-.396l.231-.542.267-.594.24-.513.262-.547.437-.884.32-.63 1.894-3.662.868-1.633.261-.513.045-.093c.105-.224.2-.434.286-.633l.158-.38c.265-.667.398-1.166.398-1.5 0-.322-.075-.524-.226-.604-.15-.081-.396-.122-.737-.122h-1.955V0h9.416zm17.791 0v1.23h-2.025v11.011l6.442-7.904V1.23h-1.994V0h8.927v1.23h-2.423v17.993h2.423v1.23h-8.927v-1.23h1.994V6.305l-6.442 7.874v5.044h2.025v1.23h-8.958v-1.23h2.423V1.23h-2.423V0h8.958zm23.856 0c.201 0 .432.133.693.4.107.127.219.25.335.368l.581.57.327.31.175.158.666.561 1.142.947c1.588 1.314 2.643 2.523 3.165 3.628.443.914.664 1.97.664 3.17 0 1.276-.262 2.428-.784 3.457-.442.857-1.161 1.766-2.156 2.728-.995.962-2.004 1.909-3.029 2.842-.164.155-.318.296-.464.423l-.279.236c-.536.437-.932.655-1.187.655-.221 0-.502-.114-.844-.343l-.229-.16-.421-.314-.403-.311-1.027-.814-.478-.398-.654-.556-.396-.345-.362-.323-.33-.301-.433-.413-.248-.25-.215-.227-.182-.206-.079-.095c-1.125-1.428-1.688-3.047-1.688-4.856 0-1.924.683-3.77 2.05-5.542.824-1.066 2.01-2.19 3.557-3.37l.434-.319.221-.168.108-.087.12-.104.207-.194.116-.114c.201-.2.402-.357.603-.472.201-.114.442-.171.724-.171zm20.553 0c2.552 0 4.505.77 5.858 2.312.89 1.014 1.47 2.282 1.741 3.803h1.131v1.142h-7.222V6.115h1.16c0-1.833-.319-3.16-.957-3.979-.502-.644-1.17-.966-2.001-.966-.909 0-1.643.39-2.204 1.17-.735 1.035-1.102 2.634-1.102 4.8 0 1.092.077 2.136.232 3.13l.079.48.046.254.16.825.127.6.142.64.158.68.085.355c.377 1.56.566 2.857.566 3.891 0 .234-.024.449-.073.644l-.13.527-.116.41c.116.097.329.146.638.146 1.044 0 2.035-.703 2.973-2.107a8.206 8.206 0 001.406-4.653l-.003-.302-.01-.244-.016-.185h-1.16v-1.17h7.222v1.17h-1.131c0 2.282-1.035 4.252-3.104 5.91-1.914 1.542-3.992 2.312-6.235 2.312l-.196-.001-.35-.01a4.301 4.301 0 01-.629-.062 4.757 4.757 0 01-.855-.278v-.38c0-.586-.14-1.142-.421-1.668a4.654 4.654 0 00-.108-.192l-.137-.223-.259-.394-.325-.466-.253-.35-.434-.586-.499-.657c-.948-1.21-1.586-2.34-1.914-3.394-.213-.683-.319-1.502-.319-2.458v-.731c0-2.595.841-4.702 2.523-6.32C160.806.76 162.778 0 165.137 0zM12.047 17.473l.094-.096-.104.035-.118.045-.154.065a3.727 3.727 0 00-1.253.9 2.732 2.732 0 00-.643 1.34l-.02.14-.005.054-.005.096.075-.102.09-.113.059-.067.14-.149c.26-.259.65-.563 1.136-.69.06-.588.385-1.072.603-1.336l.106-.122zm130.839-14.08c-1.052.138-1.908.616-2.567 1.437-.66.82-.99 1.7-.99 2.637 0 .86.381 1.827 1.144 2.902.48.668 1.143 1.433 1.99 2.294l.48.479.517.498.811.763.305.295.273.27.239.246.206.221.173.197.14.173c.31.4.495.835.557 1.304a6.825 6.825 0 002.366-1.553c.652-.645 1.066-1.339 1.242-2.082l.042-.204c.041-.195.062-.352.062-.469 0-.094-.014-.213-.04-.356l-.022-.113c-.145-.82-.773-1.856-1.887-3.106l-2.01-2.14-1.707-1.778-.087-.097c-.66-.704-1.072-1.31-1.237-1.817zM20.71 12.685H9.334l.002.068.008.08.02.103.02.082.03.09.037.098.048.105.028.054.065.113.038.058.086.118.1.12.118.123.135.123c.216.184.495.366.856.531l.252.108c.841.33 2.065.569 3.845.569 3.432 0 4.794-.886 5.334-1.612l.083-.12.069-.114.03-.056.05-.107.039-.1.03-.094.03-.122.016-.098.007-.112v-.008zm-6.847-2.636c.21-.032.283.031.312.155.028.124-.029.247-.186.3-.156.054-.51.122-.55-.054-.04-.175.214-.37.424-.402z" fill="#01A54E"/>
</svg>
