<svg width="18" height="20" viewBox="0 0 18 20" fill="none" xmlns="http://www.w3.org/2000/svg">
    <path fill-rule="evenodd" clip-rule="evenodd" d="M15.12 20c1.815 0 2.88-1.018 2.88-3.033V6.84c0-2.016-1.075-3.034-3.184-3.034h-1.623C13.143 1.751 11.287 0 8.995 0 6.703 0 4.847 1.751 4.797 3.806H3.184C1.064 3.806 0 4.814 0 6.84v10.127C0 18.992 1.065 20 3.184 20H15.12zM11.56 3.806H6.43c.05-1.282 1.135-2.319 2.565-2.319s2.515 1.037 2.566 2.32zm3.53 14.619H3.205c-1.015 0-1.572-.519-1.572-1.537v-9.97c0-1.018.557-1.536 1.572-1.536h11.58c1.004 0 1.582.518 1.582 1.536v9.97c0 1.018-.578 1.537-1.277 1.537z" fill="#263238"/>
</svg>
