<svg width="85" height="27" viewBox="0 0 85 27" fill="none" xmlns="http://www.w3.org/2000/svg">
    <path fill-rule="evenodd" clip-rule="evenodd" d="M4.64 2.944c.247-.052.504-.041.746.031.373.068.728.213 1.04.428.168.112.27.299.274.5v10.458c-.01 1.151.062 2.303-.147 3.429-.16.917-.514 1.832-1.173 2.508-.211.25-.466.46-.752.622a1.449 1.449 0 01-.79.218.315.315 0 01-.106-.25c.036-.269.106-.532.21-.784.24-.875.366-1.778.372-2.686.023-4.247.032-8.497.053-12.743 0-.11-.008-.22-.025-.328-.163 0-.264.14-.383.242a5.91 5.91 0 00-1.236 1.738 7.752 7.752 0 00-.68 2.646 5.02 5.02 0 00.12 1.773c.107.452.307.876.587 1.247a.468.468 0 01.063.538c-.155.159-.397.074-.576.017a3.527 3.527 0 01-1.535-1.151A3.58 3.58 0 010 9.242a6.764 6.764 0 01.476-1.977c.357-.937.89-1.799 1.568-2.538.44-.464.927-.88 1.454-1.242.35-.237.736-.42 1.142-.54zm23.025.169c.192-.169.484-.144.727-.113.438.065.866.184 1.274.355.124.055.237.132.332.228-.038.96-.076 1.902-.128 2.851.958.045 1.917.096 2.878.154.167 0 .384.054.416.253.042.298-.008.602-.144.871-.08.138-.191.31-.383.296-.929.015-1.858.046-2.788.06-.052 1.342-.087 2.67-.133 4.006-.025 1.218-.136 2.442 0 3.659.03.48.15.949.35 1.385a.65.65 0 00.474.374c.277.016.548-.08.754-.266.316-.295.57-.65.75-1.042.217-.444.396-.904.535-1.378.028-.21.038-.422.03-.633a10 10 0 01.576-3.289c.288-.768.697-1.514 1.344-2.032a2.57 2.57 0 012.586-.424c.546.228.993.643 1.26 1.17.037-.245-.02-.512.091-.742.154-.25.484-.261.745-.238.354.032.698.135 1.013.301a.658.658 0 01.383.512c-.06 2.038-.143 4.078-.08 6.118.02.443.08.883.178 1.316.08.313.18.65.442.861a.687.687 0 00.825-.053c.383-.292.587-.727.777-1.152a.7.7 0 00.094-.383 13.456 13.456 0 01.03-3.684c.126-.825.4-1.62.808-2.347a4.294 4.294 0 011.823-1.739c.146-.074.303-.126.465-.153a2.905 2.905 0 012.093.8c.139.154.262.32.368.499.05-.228 0-.472.079-.693.123-.259.455-.274.7-.24.422.05.831.174 1.21.367.228.134.228.426.216.66-.021 2.303-.054 4.594-.071 6.89a18.04 18.04 0 001.406-2.302c.523-.969.907-2.006 1.14-3.082a1.883 1.883 0 01-.631-.96 1.869 1.869 0 01.082-.94c.127-.474.484-.854.95-1.01.364-.118.76-.093 1.105.07.247.15.41.405.442.691.035.285.02.573-.046.852.616-.098 1.23-.192 1.834-.35.414-.126.854-.139 1.274-.037a.88.88 0 01.576.65c.09.315.083.65-.021.96-.13.415-.226.84-.284 1.272-.192 1.126-.45 2.28-.261 3.425.058.513.184 1.017.374 1.498.125.253.282.53.576.62a.936.936 0 00.786-.244c.353-.332.598-.764.703-1.237a10.343 10.343 0 01-.106-3.661 8.042 8.042 0 01.84-2.623 3.51 3.51 0 011.474-1.487 2.495 2.495 0 012.303.042c.423.238.772.589 1.009 1.013.038-.248-.025-.522.107-.748.192-.244.557-.23.839-.192.414.073.869.174 1.151.504.192.208.098.503.1.753-.035 1.343-.092 2.686-.087 4.017 0 1.023-.032 2.065.24 3.06.059.269.201.51.407.692.26.168.598.153.84-.039.311-.263.561-.59.733-.96.17-.31.309-.636.413-.974 0-2.253.017-4.505.021-6.758a.478.478 0 01.242-.495c.138-.084.301-.021.45 0 .398.075.818.086 1.185.275a.409.409 0 01.272.358v3.341c-.003.128.002.256.014.384a51.265 51.265 0 011.065-3.02c.148-.37.32-.73.516-1.079.151-.276.504-.322.788-.305.605.046 1.246.307 1.568.85.111.2.168.426.165.654-.011 1.152.054 2.314.136 3.47.027.357.033.72.088 1.074a.152.152 0 00.068-.11c.131-.852.324-1.695.575-2.52.263-.92.58-1.824.95-2.706.098-.219.192-.468.418-.585.323-.177.712-.123 1.052-.021.394.106.764.289 1.088.537.24.186.391.465.416.767-.094 1.793-.18 3.594-.048 5.386.031.495.106.986.223 1.468.063.275.177.535.336.768a.64.64 0 00.727.226c.219-.106.394-.285.495-.506.269-.5.345-1.065.497-1.604.02-.172.13-.321.288-.392.122-.079.251.017.35.09.127.12.09.305.091.459-.034.865-.17 1.771-.68 2.494a2.024 2.024 0 01-1.86.902 2.11 2.11 0 01-1.649-.976c-.456-.691-.639-1.518-.767-2.326-.213-1.612-.16-3.239-.117-4.857a.394.394 0 00-.142.179 13.525 13.525 0 00-.996 2.846 18.534 18.534 0 00-.562 3.887.347.347 0 01-.278.334 1.42 1.42 0 01-1.14 0 1.697 1.697 0 01-.789-.856 4.089 4.089 0 01-.3-1.178c-.214-1.664-.287-3.343-.37-5.016.012-.12-.126-.044-.192-.032-.817 1.42-1.23 3.031-1.44 4.645-.122.94-.186 1.885-.192 2.832a.482.482 0 01-.244.418 1.6 1.6 0 01-.927.127c-.37-.036-.767-.07-1.078-.288a.5.5 0 01-.227-.395c-.023-.307-.028-.616-.055-.925a6.526 6.526 0 01-.513.74 2.395 2.395 0 01-1.233.822 2.067 2.067 0 01-1.958-.6 3.07 3.07 0 01-.71-1.555 3.855 3.855 0 01-1.661 1.837 3.129 3.129 0 01-1.186.349 2.335 2.335 0 01-1.343-.21 2.978 2.978 0 01-1.324-1.465c-.319.717-.87 1.406-1.656 1.617-.787.211-1.616-.104-2.174-.658a4.373 4.373 0 01-1.193-2.648 7.167 7.167 0 010-1.42c.05-1.061.205-2.115.462-3.147a1.22 1.22 0 000-.168c-.566-.03-1.134 0-1.702 0-.294.959-.684 1.886-1.165 2.766a24.003 24.003 0 01-2.903 4.235c.012 1.259.052 2.52-.01 3.776-.06.998-.21 2.01-.627 2.926a3.529 3.529 0 01-1.487 1.662 3.868 3.868 0 01-1.64.46c-.71-.05-1.447-.226-2.002-.696a2.235 2.235 0 01-.767-1.274c-.094-.43-.08-.877.042-1.3.251-.79.767-1.465 1.299-2.075.532-.61 1.184-1.151 1.785-1.727.48-.449.959-.896 1.444-1.343 0-.35-.046-.699-.055-1.048-.205.304-.44.586-.7.843a3.262 3.262 0 01-2.66.896c-.666-.117-1.213-.576-1.612-1.104a4.604 4.604 0 01-.405-.61c-.353.7-.863 1.416-1.646 1.66a2.151 2.151 0 01-2.176-.716 2.919 2.919 0 01-.626-1.45 3.983 3.983 0 01-1.502 1.751 3.182 3.182 0 01-1.43.463 2.291 2.291 0 01-1.57-.384c-.818-.576-1.221-1.547-1.461-2.48a5.998 5.998 0 01-.547 1.181c-.206.349-.453.67-.737.96a2.263 2.263 0 01-1.255.667 2.034 2.034 0 01-1.563-.458 3.144 3.144 0 01-.791-1.092 7.085 7.085 0 01-.55-2.402c-.432.959-.945 1.895-1.699 2.634a4.492 4.492 0 01-2.122 1.238c-.641.14-1.302.17-1.953.088a4.146 4.146 0 01-1.625-.451 1.106 1.106 0 01-.557-.618c-.046-.31.13-.59.301-.833.15-.241.366-.434.622-.556.251-.083.468.12.664.247.293.285.655.49 1.05.595.405.113.839-.035 1.091-.372.193-.333.294-.71.294-1.096 0-.713-.463-1.322-.944-1.807-.451-.432-.925-.84-1.391-1.257-.659 1.13-1.37 2.23-2.042 3.356a7.603 7.603 0 01-1.5 1.963 3.05 3.05 0 01-1.578.817 1.151 1.151 0 01-1.057-.452 3.015 3.015 0 01-.54-1.434c-.088-.91-.108-1.824-.06-2.736.015-1.151.074-2.316.113-3.475.02-.247.025-.496.011-.744-.078.017-.169.019-.219.092-1.109 1.247-1.803 2.801-2.338 4.367a25.15 25.15 0 00-.996 4.21.799.799 0 01-.641.147c-.27-.038-.549 0-.816-.057a.815.815 0 01-.502-.493 3.51 3.51 0 01-.215-1.437c.023-2.742.043-5.484.06-8.226a.326.326 0 01.172-.346c.288-.06.587-.043.867.048.317.083.662.163.9.407.123.113.071.294.08.441 0 1.522-.028 3.044-.02 4.565.498-1.343.99-2.717 1.769-3.935.163-.258.348-.502.552-.73.369-.43.877-.807 1.466-.82.444-.018.846.191 1.234.383.377.163.681.458.854.831.066.229.084.468.054.704-.04 1.309-.08 2.617-.123 3.924 0 .535-.052 1.069-.021 1.602.007.256.052.51.132.752.056.133.134.288.294.313a.533.533 0 00.383-.18c.235-.227.447-.476.632-.745a28.083 28.083 0 001.487-2.389c.276-.502.562-.997.817-1.511-.09-.15-.226-.27-.307-.428a2.09 2.09 0 01-.224-1.656 2.554 2.554 0 01.926-1.357c.318-.219.678-.37 1.058-.441a1.427 1.427 0 011.076.153.768.768 0 01.34.643 2.614 2.614 0 01-.384 1.343c-.223.4-.486.777-.787 1.123.939.683 1.919 1.343 2.721 2.174a2.9 2.9 0 01.848 1.623c.034.32.02.643-.042.96.883-.768 1.566-1.823 1.744-2.994.023-1.786.017-3.575.037-5.363-.818-.015-1.637-.017-2.453-.038a.549.549 0 01-.203-.476 1.727 1.727 0 01.395-1.151c.044-.066.127-.045.192-.05l2.186.03c.034-.829.053-1.656.086-2.484 0-.238 0-.503.161-.697v.002zm8.919 6.908c-.48.096-.835.481-1.06.894a5.532 5.532 0 00-.529 1.813c-.11.813-.145 1.635-.102 2.454.016.638.158 1.266.42 1.848.157.323.428.577.76.712.226.09.478.076.693-.037.417-.246.748-.616.946-1.059a7.29 7.29 0 00.633-2.513c.071-.896.096-1.812-.12-2.687a2.337 2.337 0 00-.615-1.137 1.134 1.134 0 00-1.017-.29l-.01.002zm10.179.03c-.576.158-.975.659-1.232 1.17a7.24 7.24 0 00-.595 2.55c-.042.978-.052 1.983.25 2.927.153.447.412.904.857 1.106.284.13.614.108.879-.058.226-.144.421-.33.576-.549a4.665 4.665 0 00.713-1.644c.2-.868.293-1.756.277-2.646a6.015 6.015 0 00-.254-1.802 1.838 1.838 0 00-.63-.928.97.97 0 00-.832-.125h-.01zm17.653.075c-.503.081-.885.47-1.113.904-.407.768-.53 1.652-.606 2.512-.064.96-.09 1.95.136 2.895.092.48.336.917.696 1.247a.944.944 0 00.896.192c.4-.134.68-.48.904-.82.514-.85.704-1.85.798-2.827a8.203 8.203 0 00-.12-2.675 2.228 2.228 0 00-.638-1.151 1.113 1.113 0 00-.936-.28l-.017.003zM47.97 20.836c-.887.874-1.706 1.855-2.2 3.01-.197.41-.248.875-.143 1.318.087.349.354.624.7.721.433.135.903.089 1.301-.128.339-.245.589-.592.714-.99.263-.745.315-1.535.351-2.322.036-.787.033-1.535.038-2.302-.269.212-.525.44-.767.683l.006.01z" fill="#040404"/>
</svg>
