<svg width="20" height="20" viewBox="0 0 20 20" fill="none" xmlns="http://www.w3.org/2000/svg">
    <path fill-rule="evenodd" clip-rule="evenodd" d="M10 18.333c4.559 0 8.333-3.774 8.333-8.333 0-4.55-3.782-8.333-8.341-8.333-4.55 0-8.325 3.782-8.325 8.333 0 4.559 3.782 8.333 8.333 8.333zm0-1.388A6.911 6.911 0 013.064 10a6.91 6.91 0 016.928-6.944A6.935 6.935 0 0116.945 10 6.913 6.913 0 0110 16.945zm-.008-6.063a.563.563 0 00.572-.572V4.804a.562.562 0 00-.572-.564.555.555 0 00-.564.564v4.943h-3.7a.557.557 0 00-.573.563c0 .327.245.572.572.572h4.265z" fill="#7B8E98"/>
</svg>
