<svg width="14" height="14" viewBox="0 0 14 14" fill="none" xmlns="http://www.w3.org/2000/svg">
    <path fill-rule="evenodd" clip-rule="evenodd" d="M11.11 13.224c.247-.185.301-.49.15-.92l-1.254-3.717L13.212 6.3c.372-.263.522-.543.426-.836-.096-.292-.378-.436-.84-.43l-3.933.03L7.671 1.33C7.526.893 7.31.667 6.998.667c-.306 0-.522.226-.666.662L5.137 5.065l-3.933-.03c-.462-.006-.744.138-.84.43-.102.293.054.573.426.836l3.206 2.286-1.255 3.718c-.15.43-.096.734.15.919.247.19.559.125.931-.143l3.176-2.322 3.182 2.322c.372.268.679.334.93.143zm-.918-1.188l-2.888-2.19a.467.467 0 00-.606 0l-2.888 2.19c-.024.018-.042.024-.054.012-.012-.018-.006-.024 0-.06l1.195-3.407c.084-.233.036-.424-.174-.567L1.787 5.96c-.03-.018-.036-.03-.03-.042.006-.018.018-.018.054-.018l3.632.06c.246.005.402-.09.48-.335l1.045-3.455c.006-.036.018-.048.03-.048.018 0 .03.012.036.048L8.08 5.626c.078.245.234.34.48.335l3.633-.06c.035 0 .047 0 .053.018.007.012-.005.024-.03.042l-2.99 2.053c-.21.143-.258.334-.174.567l1.195 3.407c.006.036.012.042 0 .06-.012.012-.03.006-.054-.012z" fill="#CFD8DC"/>
</svg>
