<svg width="16" height="16" viewBox="0 0 16 16" fill="none" xmlns="http://www.w3.org/2000/svg">
    <path fill-rule="evenodd" clip-rule="evenodd" d="M12.11 14.224c.247-.185.301-.49.15-.92l-1.254-3.717L14.212 7.3c.372-.263.522-.543.426-.836-.096-.292-.378-.436-.84-.43l-3.933.03L8.671 2.33c-.145-.436-.36-.662-.673-.662-.306 0-.522.226-.666.662L6.137 6.065l-3.933-.03c-.462-.006-.744.138-.84.43-.102.293.054.573.426.836l3.206 2.286-1.255 3.718c-.15.43-.096.734.15.919.247.19.559.125.931-.143l3.176-2.322 3.182 2.322c.372.268.679.334.93.143zm-.918-1.188l-2.888-2.19a.446.446 0 00-.306-.114V3.123c.018 0 .03.012.036.048L9.08 6.626c.078.245.234.34.48.335l3.632-.06c.036 0 .048 0 .054.018.007.012-.005.024-.03.042l-2.99 2.053c-.21.143-.258.334-.174.567l1.195 3.407c.006.036.012.042 0 .06-.012.012-.03.006-.054-.012z" fill="#F44336"/>
</svg>
