<svg width="16" height="16" viewBox="0 0 16 16" fill="none" xmlns="http://www.w3.org/2000/svg">
    <path fill-rule="evenodd" clip-rule="evenodd" d="M12.11 14.224c.247-.185.301-.49.15-.92l-1.254-3.717L14.212 7.3c.372-.263.523-.543.426-.836-.096-.292-.378-.436-.84-.43l-3.933.03L8.671 2.33c-.144-.436-.36-.662-.673-.662-.306 0-.522.226-.666.662L6.137 6.065l-3.932-.03c-.463-.006-.745.138-.841.43-.102.293.054.573.426.836l3.206 2.286-1.255 3.718c-.15.43-.096.734.15.919.247.19.559.125.931-.143l3.176-2.322 3.182 2.322c.372.268.679.334.93.143z" fill="#F44336"/>
</svg>
