<svg width="44" height="44" viewBox="0 0 44 44" fill="none" xmlns="http://www.w3.org/2000/svg">
    <g filter="url(#filter0_d_33_2550)">
        <path d="M22 36c-7.732 0-14-6.268-14-14S14.268 8 22 8s14 6.268 14 14-6.268 14-14 14z" fill="#fff"/>
        <path fill-rule="evenodd" clip-rule="evenodd" d="M22 34c-6.627 0-12-5.373-12-12s5.373-12 12-12 12 5.373 12 12-5.373 12-12 12z" fill="#01A54E"/>
        <path fill-rule="evenodd" clip-rule="evenodd" d="M25.5 18.5h2.661c.463 0 .839.375.839.838v5.323a.839.839 0 01-.839.839H25.5v2.661a.839.839 0 01-.839.839H19.34a.839.839 0 01-.839-.839V25.5h-2.661a.839.839 0 01-.839-.84v-5.322c0-.463.376-.839.839-.839H18.5v-2.66c0-.464.376-.84.84-.839l5.33.005c.464 0 .84.377.838.841L25.5 18.5zm-.393.392h2.942c.309 0 .559.25.559.559v5.098a.56.56 0 01-.56.559h-2.94v2.94a.56.56 0 01-.56.56h-5.097a.56.56 0 01-.559-.56v-2.94h-2.94a.56.56 0 01-.56-.56v-5.097c0-.31.25-.56.56-.56h2.94v-2.94c0-.309.25-.56.56-.559l5.105.005c.31 0 .56.251.559.56l-.01 2.934zm-9.043.392h3.22v-3.22a.28.28 0 01.28-.28l4.88.005a.28.28 0 01.28.28l-.01 3.215h3.222a.28.28 0 01.28.28v4.872a.28.28 0 01-.28.28h-3.22v3.22a.28.28 0 01-.28.28h-4.872a.28.28 0 01-.28-.28v-3.22h-3.22a.28.28 0 01-.28-.28v-4.873a.28.28 0 01.28-.28zm4.027.661c.027-.139.047-.24.35-.424.06-.036.113-.075.168-.115.22-.161.464-.338 1.262-.436.878-.107 1.29-.022 1.604.068.159.045.446.153.738.382.292.23.575.56.6 1.148.01.252-.042.471-.125.668a1.8 1.8 0 01-1.053.91c-.512.156-.921.212-1.16.244-.074.01-.132.018-.17.026l-.021.004c-.235.046-1.503.295-1.503 1.05 0 .781.854 1.03 1.454 1.03.599 0 1.018-.38 1.018-.38s.323-.262.307-.633c-.015-.37-.161-.568-.372-.715a1.845 1.845 0 00-.313-.164c-.054-.023-.257-.098-.257-.098s.485-.07.817-.15c.234.056.809.457.809 1.158 0 .702-.698 1.562-2.082 1.562-.645 0-1.151-.168-1.553-.49-.402-.323-.512-.805-.512-1.15 0-.252.106-.478.236-.661.205-.289.6-.556.858-.656.113-.044.251-.09.413-.133.27-.072.576-.125.863-.175.275-.048.534-.093.728-.149.838-.24 1.049-.624 1.049-1.106 0-.482-.455-.83-.936-.984-.48-.155-1.093-.175-1.614.07-.267.126-.322.202-.37.267-.045.062-.084.116-.294.194-.428.16-.912-.086-.912-.086l-.156.086s-.026.036-.074.043a.267.267 0 01-.109-.015s.09-.018.109-.026c.019-.007.031-.031.031-.031s-.077.004-.117-.01a.187.187 0 01-.073-.053s.055.02.109.02.109-.02.109-.02.085-.011.144-.07zm-.502 3.115c-.299.339-.294.713-.294.713s.252-.385.654-.49c.04-.393.35-.68.35-.68s-.412.118-.71.457zm4.45-2.51s.057 1.112-2.482 1.112-2.483-1.113-2.483-1.113h4.966zm-2.99-.939c.09-.02.153-.084.14-.14-.013-.056-.097-.085-.188-.064-.09.02-.154.084-.14.14.012.056.096.085.187.064z" fill="#fff"/>
    </g>
    <defs>
        <filter id="filter0_d_33_2550" x="0" y="0" width="44" height="44" filterUnits="userSpaceOnUse" color-interpolation-filters="sRGB">
            <feFlood flood-opacity="0" result="BackgroundImageFix"/>
            <feColorMatrix in="SourceAlpha" values="0 0 0 0 0 0 0 0 0 0 0 0 0 0 0 0 0 0 127 0" result="hardAlpha"/>
            <feOffset/>
            <feGaussianBlur stdDeviation="4"/>
            <feColorMatrix values="0 0 0 0 0 0 0 0 0 0 0 0 0 0 0 0 0 0 0.1 0"/>
            <feBlend in2="BackgroundImageFix" result="effect1_dropShadow_33_2550"/>
            <feBlend in="SourceGraphic" in2="effect1_dropShadow_33_2550" result="shape"/>
        </filter>
    </defs>
</svg>
