<svg width="17" height="16" viewBox="0 0 17 16" fill="none" xmlns="http://www.w3.org/2000/svg">
<path fill-rule="evenodd" clip-rule="evenodd" d="M7.37003 12C7.70671 12 7.99662 11.8506 8.20236 11.5768L12.7662 5.26141C12.8971 5.08714 13 4.88797 13 4.6971C13 4.27386 12.5885 4 12.1396 4C11.8497 4 11.5972 4.14108 11.4008 4.42324L7.33262 10.1826L5.22842 7.82573C5.01332 7.57676 4.77952 7.47718 4.49896 7.47718C4.04071 7.47718 3.66663 7.80083 3.66663 8.22407C3.66663 8.42324 3.75079 8.61411 3.90978 8.78838L6.49094 11.5851C6.7528 11.8672 7.02401 12 7.37003 12Z" fill="#01A54E"/>
</svg>
