<svg width="20" height="20" viewBox="0 0 20 20" fill="none" xmlns="http://www.w3.org/2000/svg">
<path fill-rule="evenodd" clip-rule="evenodd" d="M14.5972 18.3334C16.2168 18.3334 17.0994 17.4937 17.0994 15.8906V11.7261C17.8963 11.5734 18.3333 10.9627 18.3333 10.0721V7.93471C18.3333 6.89994 17.7592 6.24684 16.7052 6.24684H14.8886C15.3684 5.78034 15.6512 5.16966 15.6512 4.48263C15.6512 2.83717 14.3316 1.66669 12.6778 1.66669C11.4524 1.66669 10.4413 2.33675 9.99568 3.53268C9.55009 2.33675 8.54752 1.66669 7.32215 1.66669C5.65977 1.66669 4.34872 2.83717 4.34872 4.48263C4.34872 5.16966 4.62292 5.78034 5.10279 6.24684H3.29473C2.29216 6.24684 1.66663 6.89994 1.66663 7.93471V10.0721C1.66663 10.9627 2.09508 11.5734 2.89199 11.7261V15.8906C2.89199 17.4937 3.78316 18.3334 5.4027 18.3334H14.5972ZM9.29302 6.24684H7.96483C6.55094 6.24684 5.79687 5.42411 5.79687 4.54201C5.79687 3.62597 6.49096 3.08314 7.40784 3.08314C8.46183 3.08314 9.29302 3.88891 9.29302 5.23751V6.24684ZM12.0351 6.24684H10.6983V5.23751C10.6983 3.88891 11.5381 3.08314 12.5921 3.08314C13.509 3.08314 14.1945 3.62597 14.1945 4.54201C14.1945 5.42411 13.4233 6.24684 12.0351 6.24684ZM9.2416 10.4792H3.64606C3.21761 10.4792 3.04623 10.3011 3.04623 9.87703V8.12131C3.04623 7.69722 3.21761 7.52759 3.64606 7.52759H9.2416V10.4792ZM16.3624 10.4792H10.7583V7.52759H16.3624C16.7909 7.52759 16.9537 7.69722 16.9537 8.12131V9.87703C16.9537 10.3011 16.7909 10.4792 16.3624 10.4792ZM9.24161 17.0611H5.38556C4.67434 17.0611 4.2716 16.6624 4.2716 15.9585V11.76H9.24161V17.0611ZM14.6058 17.0611H10.7583V11.76H15.7198V15.9585C15.7198 16.6624 15.317 17.0611 14.6058 17.0611Z" fill="#7B8E98"/>
</svg>
