<svg width="24" height="24" viewBox="0 0 24 24" fill="none" xmlns="http://www.w3.org/2000/svg">
<path d="M18.0002 14C16.8957 14 16.0002 13.1046 16.0002 12C16.0002 10.8954 16.8957 9.99998 18.0002 9.99998C19.1048 9.99998 20.0002 10.8954 20.0002 12C20.0002 12.5304 19.7895 13.0391 19.4145 13.4142C19.0394 13.7893 18.5307 14 18.0002 14ZM12.0002 14C10.8957 14 10.0002 13.1046 10.0002 12C10.0002 10.8954 10.8957 9.99998 12.0002 9.99998C13.1048 9.99998 14.0002 10.8954 14.0002 12C14.0002 12.5304 13.7895 13.0391 13.4145 13.4142C13.0394 13.7893 12.5307 14 12.0002 14ZM6.00024 14C4.89567 14 4.00024 13.1046 4.00024 12C4.00024 10.8954 4.89567 9.99998 6.00024 9.99998C7.10481 9.99998 8.00024 10.8954 8.00024 12C8.00024 12.5304 7.78953 13.0391 7.41446 13.4142C7.03939 13.7893 6.53068 14 6.00024 14Z" fill="#7B8E98"/>
</svg>
