<svg width="17" height="17" viewBox="0 0 17 17" fill="none" xmlns="http://www.w3.org/2000/svg">
<path fill-rule="evenodd" clip-rule="evenodd" d="M10.6727 13.4583C11.0446 13.4583 11.3332 13.1676 11.3332 12.7987C11.3332 12.6142 11.261 12.4465 11.1334 12.318L7.24829 8.4944L11.1334 4.68202C11.261 4.55345 11.3332 4.38016 11.3332 4.20128C11.3332 3.83234 11.0446 3.54166 10.6727 3.54166C10.4951 3.54166 10.3397 3.60874 10.2176 3.73172L5.89961 7.98012C5.74421 8.12546 5.6665 8.30434 5.6665 8.49999C5.6665 8.69564 5.74421 8.86334 5.89406 9.01427L10.212 13.2683C10.3397 13.3912 10.4951 13.4583 10.6727 13.4583Z" fill="#7B8E98"/>
</svg>
