<svg width="54" height="60" viewBox="0 0 54 60" fill="none" xmlns="http://www.w3.org/2000/svg">
<path fill-rule="evenodd" clip-rule="evenodd" d="M44.85 59.1667C50.1444 59.1667 53.25 56.1986 53.25 50.3196V20.782C53.25 14.903 50.1148 11.9349 43.9627 11.9349H39.2303C39.0824 5.94178 33.6697 0.833328 26.9852 0.833328C20.3007 0.833328 14.888 5.94178 14.7401 11.9349H10.0373C3.85563 11.9349 0.75 14.8744 0.75 20.782V50.3196C0.75 56.2272 3.85563 59.1667 10.0373 59.1667H44.85ZM34.4681 11.935H19.5019C19.6498 8.19639 22.8146 5.17128 26.985 5.17128C31.1554 5.17128 34.3202 8.19639 34.4681 11.935ZM44.7611 54.5719H10.0963C7.13853 54.5719 5.51177 53.0593 5.51177 50.0913V21.0102C5.51177 18.0422 7.13853 16.5297 10.0963 16.5297H43.8737C46.8019 16.5297 48.4878 18.0422 48.4878 21.0102V50.0913C48.4878 53.0593 46.8019 54.5719 44.7611 54.5719Z" fill="#CFD8DC"/>
</svg>
