<svg width="10" height="8" viewBox="0 0 10 8" fill="none" xmlns="http://www.w3.org/2000/svg">
<path fill-rule="evenodd" clip-rule="evenodd" d="M4.07114 8C4.39579 8 4.67535 7.85062 4.87375 7.57676L9.27455 1.26141C9.4008 1.08714 9.5 0.887967 9.5 0.697095C9.5 0.273859 9.10321 0 8.67034 0C8.39078 0 8.14729 0.141079 7.95792 0.423237L4.03507 6.18257L2.00601 3.82573C1.7986 3.57676 1.57315 3.47718 1.30261 3.47718C0.860721 3.47718 0.5 3.80083 0.5 4.22407C0.5 4.42324 0.581162 4.61411 0.734469 4.78838L3.22345 7.58506C3.47595 7.86722 3.73747 8 4.07114 8Z" fill="#01A54E"/>
</svg>
