<svg width="32" height="32" viewBox="0 0 32 32" fill="none" xmlns="http://www.w3.org/2000/svg">
<path fill-rule="evenodd" clip-rule="evenodd" d="M15.9867 2.66666C21.8732 2.66666 26.6667 7.33493 26.6667 13.0602C26.6667 15.1729 26.0112 17.2151 24.7707 18.9901L24.6585 19.1462C24.643 19.1659 24.6287 19.1829 24.6147 19.1982L24.5731 19.2394L17.2624 28.7177C16.9637 29.103 16.4916 29.3333 15.9867 29.3333C15.5649 29.3333 15.1774 29.1732 14.8662 28.8957L14.6797 28.7086L7.43097 19.2478C7.37994 19.198 7.34623 19.1554 7.31313 19.1007L7.27334 19.0283L7.03829 18.6874C6.076 17.2282 5.51074 15.5986 5.36887 13.8929L5.34224 13.4649L5.33334 13.0341C5.33334 7.31775 10.1178 2.66666 15.9867 2.66666ZM15.9867 4.87801C11.356 4.87801 7.57332 8.54513 7.57332 13.0601C7.57332 14.7284 8.1074 16.3559 9.07569 17.7212L9.10317 17.7491L9.16399 17.838L15.9867 26.7226L22.876 17.7665L22.8857 17.7403C23.7942 16.4575 24.3158 14.9708 24.3906 13.4429L24.4 13.0601C24.4 8.55293 20.6252 4.87801 15.9867 4.87801ZM17.32 11.4468V8.50727H14.6533V11.4468L11.64 11.4471V14.0487L14.6533 14.0485V16.9626H17.32V14.0485L20.3067 14.0487V11.4471L17.32 11.4468Z" fill="#CFD8DC"/>
</svg>
