<svg width="32" height="32" viewBox="0 0 32 32" fill="none" xmlns="http://www.w3.org/2000/svg">
<path fill-rule="evenodd" clip-rule="evenodd" d="M29.1628 15.3528L25.0939 9.09754C24.9014 8.80158 24.5739 8.62332 24.2227 8.62332H19.1609V6.38321C19.1609 5.80337 18.6945 5.33334 18.1192 5.33334H3.70833C3.13302 5.33334 2.66666 5.80337 2.66666 6.38321V23.5171C2.66666 24.0969 3.13302 24.5669 3.70833 24.5669H7.0125C7.4425 25.7889 8.60036 26.6667 9.95833 26.6667C11.3163 26.6667 12.4741 25.7889 12.9042 24.5669H20.2597C20.6897 25.7889 21.8476 26.6667 23.2056 26.6667C24.5635 26.6667 25.7214 25.7889 26.1514 24.5669H28.2917C28.867 24.5669 29.3333 24.0969 29.3333 23.5171V15.9285C29.3333 15.7239 29.2741 15.5238 29.1628 15.3528ZM9.95833 24.5669C9.38396 24.5669 8.91666 24.096 8.91666 23.5171C8.91666 22.9382 9.38396 22.4672 9.95833 22.4672C10.5327 22.4672 11 22.9382 11 23.5171C11 24.096 10.5327 24.5669 9.95833 24.5669ZM17.0776 22.4672H12.9041C12.4741 21.2452 11.3162 20.3674 9.95828 20.3674C8.60031 20.3674 7.4425 21.2452 7.01245 22.4672H4.75V7.43305H17.0776V22.4672ZM23.2056 24.5669C22.6312 24.5669 22.1639 24.096 22.1639 23.5171C22.1639 22.9382 22.6312 22.4672 23.2056 22.4672C23.78 22.4672 24.2473 22.9382 24.2473 23.5171C24.2473 24.096 23.78 24.5669 23.2056 24.5669ZM27.25 22.4672H26.1513C25.7213 21.2452 24.5635 20.3674 23.2055 20.3674C21.8475 20.3674 20.6897 21.2452 20.2597 22.4672H19.1608V10.723H23.66L27.25 16.2419V22.4672Z" fill="#CFD8DC"/>
</svg>
