<svg width="20" height="20" viewBox="0 0 20 20" fill="none" xmlns="http://www.w3.org/2000/svg">
<path fill-rule="evenodd" clip-rule="evenodd" d="M9.99171 1.66669C13.6708 1.66669 16.6667 4.58436 16.6667 8.16262C16.6667 9.48308 16.257 10.7595 15.4817 11.8689L15.4116 11.9664C15.4019 11.9787 15.393 11.9893 15.3842 11.9989L15.3582 12.0246L10.789 17.9486C10.6024 18.1894 10.3073 18.3334 9.99171 18.3334C9.72812 18.3334 9.48591 18.2333 9.29141 18.0599L9.17488 17.9429L4.64439 12.0299C4.6125 11.9988 4.59143 11.9721 4.57074 11.9379L4.54587 11.8927L4.39897 11.6796C3.79753 10.7676 3.44424 9.74916 3.35558 8.68309L3.33893 8.41561L3.33337 8.14636C3.33337 4.57362 6.32364 1.66669 9.99171 1.66669ZM9.99172 3.04882C7.09753 3.04882 4.73339 5.34077 4.73339 8.16264C4.73339 9.2053 5.06718 10.2225 5.67237 11.0758L5.68954 11.0932L5.72755 11.1488L9.99172 16.7017L14.2976 11.1041L14.3037 11.0878C14.8715 10.286 15.1974 9.35682 15.2442 8.40186L15.2501 8.16264C15.2501 5.34564 12.8908 3.04882 9.99172 3.04882ZM10 10C11.1506 10 12.0834 9.06728 12.0834 7.91669C12.0834 6.76609 11.1506 5.83335 10 5.83335C8.84945 5.83335 7.91671 6.76609 7.91671 7.91669C7.91671 9.06728 8.84945 10 10 10Z" fill="#7B8E98"/>
</svg>
