<svg width="20" height="20" viewBox="0 0 20 20" fill="none" xmlns="http://www.w3.org/2000/svg">
<path fill-rule="evenodd" clip-rule="evenodd" d="M9.99996 18.3334C14.5588 18.3334 18.3333 14.5588 18.3333 10C18.3333 5.44937 14.5506 1.66669 9.99179 1.66669C5.44114 1.66669 1.66663 5.44937 1.66663 10C1.66663 14.5588 5.44931 18.3334 9.99996 18.3334ZM9.99995 16.9445C6.14374 16.9445 3.06368 13.8562 3.06368 10C3.06368 6.15199 6.13557 3.05558 9.99178 3.05558C13.848 3.05558 16.9362 6.15199 16.9444 10C16.9526 13.8562 13.8562 16.9445 9.99995 16.9445ZM9.92644 7.09153C10.5228 7.09153 10.9885 6.61768 10.9885 6.02944C10.9885 5.43304 10.5228 4.95918 9.92644 4.95918C9.3382 4.95918 8.86435 5.43304 8.86435 6.02944C8.86435 6.61768 9.3382 7.09153 9.92644 7.09153ZM11.8954 14.4935C12.2304 14.4935 12.4918 14.2565 12.4918 13.9216C12.4918 13.603 12.2304 13.3497 11.8954 13.3497H10.8823V9.19119C10.8823 8.75001 10.6617 8.4559 10.2451 8.4559H8.70911C8.37415 8.4559 8.11271 8.70916 8.11271 9.02779C8.11271 9.36276 8.37415 9.59969 8.70911 9.59969H9.5833V13.3497H8.57022C8.23526 13.3497 7.97382 13.603 7.97382 13.9216C7.97382 14.2565 8.23526 14.4935 8.57022 14.4935H11.8954Z" fill="#7B8E98"/>
</svg>
