<svg width="20" height="20" viewBox="0 0 20 20" fill="none" xmlns="http://www.w3.org/2000/svg">
<path fill-rule="evenodd" clip-rule="evenodd" d="M15.7158 17.5C17.4636 17.5 18.3333 16.5921 18.3333 14.7938V5.20622C18.3333 3.40789 17.4636 2.5 15.7158 2.5H4.29248C2.5447 2.5 1.66663 3.39916 1.66663 5.20622V14.7938C1.66663 16.6008 2.5447 17.5 4.29248 17.5H15.7158ZM15.8245 16.0945H4.16703C3.42276 16.0945 3.01299 15.6842 3.01299 14.8723V6.64021C3.01299 5.83708 3.42276 5.41805 4.16703 5.41805H15.8245C16.5688 5.41805 16.9869 5.83708 16.9869 6.64021V14.8723C16.9869 15.6842 16.5688 16.0945 15.8245 16.0945ZM8.85848 8.55202C9.15117 8.55202 9.25152 8.46472 9.25152 8.15918V7.64412C9.25152 7.33858 9.15117 7.24256 8.85848 7.24256H8.36508C8.07239 7.24256 7.97204 7.33858 7.97204 7.64412V8.15918C7.97204 8.46472 8.07239 8.55202 8.36508 8.55202H8.85848ZM11.6348 8.55202C11.9275 8.55202 12.0279 8.46472 12.0279 8.15918V7.64412C12.0279 7.33858 11.9275 7.24256 11.6348 7.24256H11.1498C10.8488 7.24256 10.7568 7.33858 10.7568 7.64412V8.15918C10.7568 8.46472 10.8488 8.55202 11.1498 8.55202H11.6348ZM14.4196 8.55202C14.7123 8.55202 14.8043 8.46472 14.8043 8.15918V7.64412C14.8043 7.33858 14.7123 7.24256 14.4196 7.24256H13.9262C13.6335 7.24256 13.5332 7.33858 13.5332 7.64412V8.15918C13.5332 8.46472 13.6335 8.55202 13.9262 8.55202H14.4196ZM6.08207 11.4066C6.37476 11.4066 6.46675 11.3193 6.46675 11.0138V10.4987C6.46675 10.1932 6.37476 10.1059 6.08207 10.1059H5.58868C5.29599 10.1059 5.19564 10.1932 5.19564 10.4987V11.0138C5.19564 11.3193 5.29599 11.4066 5.58868 11.4066H6.08207ZM8.85848 11.4066C9.15117 11.4066 9.25152 11.3193 9.25152 11.0138V10.4987C9.25152 10.1932 9.15117 10.1059 8.85848 10.1059H8.36508C8.07239 10.1059 7.97204 10.1932 7.97204 10.4987V11.0138C7.97204 11.3193 8.07239 11.4066 8.36508 11.4066H8.85848ZM11.6348 11.4066C11.9275 11.4066 12.0279 11.3193 12.0279 11.0138V10.4987C12.0279 10.1932 11.9275 10.1059 11.6348 10.1059H11.1498C10.8488 10.1059 10.7568 10.1932 10.7568 10.4987V11.0138C10.7568 11.3193 10.8488 11.4066 11.1498 11.4066H11.6348ZM14.4196 11.4066C14.7123 11.4066 14.8043 11.3193 14.8043 11.0138V10.4987C14.8043 10.1932 14.7123 10.1059 14.4196 10.1059H13.9262C13.6335 10.1059 13.5332 10.1932 13.5332 10.4987V11.0138C13.5332 11.3193 13.6335 11.4066 13.9262 11.4066H14.4196ZM6.08207 14.27C6.37476 14.27 6.46675 14.174 6.46675 13.8684V13.3534C6.46675 13.0478 6.37476 12.9605 6.08207 12.9605H5.58868C5.29599 12.9605 5.19564 13.0478 5.19564 13.3534V13.8684C5.19564 14.174 5.29599 14.27 5.58868 14.27H6.08207ZM8.85848 14.27C9.15117 14.27 9.25152 14.174 9.25152 13.8684V13.3534C9.25152 13.0478 9.15117 12.9605 8.85848 12.9605H8.36508C8.07239 12.9605 7.97204 13.0478 7.97204 13.3534V13.8684C7.97204 14.174 8.07239 14.27 8.36508 14.27H8.85848ZM11.6348 14.27C11.9275 14.27 12.0279 14.174 12.0279 13.8684V13.3534C12.0279 13.0478 11.9275 12.9605 11.6348 12.9605H11.1498C10.8488 12.9605 10.7568 13.0478 10.7568 13.3534V13.8684C10.7568 14.174 10.8488 14.27 11.1498 14.27H11.6348Z" fill="#7B8E98"/>
</svg>
