<svg width="20" height="20" viewBox="0 0 20 20" fill="none" xmlns="http://www.w3.org/2000/svg">
<path fill-rule="evenodd" clip-rule="evenodd" d="M15.3575 1.66669C16.3199 1.66669 17.2703 2.35989 17.598 3.28763L17.6406 3.42172L18.3268 6.69144L18.3333 6.78623V8.33766C18.3333 9.16108 17.8875 9.90216 17.1989 10.2916L17.0577 10.3642L17.0578 16.3542C17.0578 17.3559 16.3188 18.1868 15.3626 18.3159L15.2309 18.3291L15.1025 18.3334H4.89757C3.86175 18.3334 3.01271 17.5147 2.94645 16.4841L2.94229 16.3542L2.94224 10.3642L2.93301 10.3604C2.25966 10.0375 1.78864 9.3908 1.68713 8.64206L1.6718 8.49102L1.66663 8.33766V6.78623C1.66663 6.7439 1.67052 6.70171 1.67724 6.66413L2.36263 3.40834C2.62661 2.47206 3.54522 1.7363 4.50505 1.67135L4.64239 1.66669H15.3575ZM14.5918 9.948L14.5237 10.0141C14.1252 10.3711 13.6093 10.5755 13.0614 10.5755C12.5135 10.5755 11.9976 10.3711 11.5991 10.0141L11.5301 9.948L11.4623 10.0141C11.1036 10.3354 10.6499 10.5331 10.1633 10.5694L9.99997 10.5755C9.45211 10.5755 8.93617 10.3711 8.53768 10.0141L8.46908 9.948L8.40083 10.0141C8.04218 10.3354 7.58833 10.5331 7.10174 10.5694L6.93842 10.5755C6.39059 10.5755 5.87475 10.3712 5.4762 10.0141L5.40729 9.948L5.32811 10.024C5.07618 10.2466 4.77732 10.4093 4.45295 10.498L4.30079 10.5334L4.30155 16.3542C4.30155 16.6614 4.52686 16.9154 4.81698 16.9556L4.89758 16.9611H15.1025C15.403 16.9611 15.6534 16.7327 15.693 16.4366L15.6984 16.3542L15.6983 10.5334L15.547 10.498C15.2227 10.4093 14.9238 10.2466 14.6718 10.024L14.5918 9.948ZM7.78938 7.47157H6.08694L6.0873 8.33766C6.0873 8.78352 6.42061 9.15112 6.84593 9.19815L6.93839 9.20324C7.37573 9.20324 7.73821 8.86537 7.7846 8.43192L7.78961 8.33766L7.78938 7.47157ZM10.8504 7.47157H9.14874L9.14887 8.33766C9.14887 8.78352 9.48218 9.15112 9.9075 9.19815L9.99996 9.20324C10.4372 9.20324 10.7997 8.86536 10.846 8.43192L10.8511 8.33766L10.8504 7.47157ZM13.9122 7.47157H12.2097L12.2103 8.33766C12.2103 8.78352 12.5436 9.15112 12.9689 9.19815L13.0614 9.20324C13.4987 9.20324 13.8611 8.8654 13.9075 8.43193L13.9125 8.33766L13.9122 7.47157ZM4.72762 7.47157H3.02518L3.02589 8.33766C3.02589 8.78352 3.3592 9.15112 3.78453 9.19815L3.87699 9.20324C4.31429 9.20324 4.67669 8.8654 4.72307 8.43193L4.72808 8.33766L4.72762 7.47157ZM16.9739 7.47157H15.2715L15.2718 8.33779C15.2718 8.78359 15.6051 9.15113 16.0305 9.19815L16.1229 9.20324C16.5602 9.20324 16.9226 8.86537 16.969 8.43202L16.974 8.33779L16.9739 7.47157ZM15.3575 3.03889H4.64237C4.27616 3.03889 3.85084 3.34261 3.70453 3.68189L3.67396 3.7673L3.22352 6.10001H16.7755L16.3299 3.78394C16.2288 3.42527 15.8238 3.09393 15.4501 3.04507L15.3575 3.03889Z" fill="#7B8E98"/>
</svg>
