<svg width="20" height="20" viewBox="0 0 20 20" fill="none" xmlns="http://www.w3.org/2000/svg">
<path fill-rule="evenodd" clip-rule="evenodd" d="M18.2267 9.59548L15.6836 5.68594C15.5633 5.50096 15.3586 5.38955 15.1392 5.38955H11.9755V3.98948C11.9755 3.62708 11.684 3.33331 11.3245 3.33331H2.31767C1.9581 3.33331 1.66663 3.62708 1.66663 3.98948V14.6981C1.66663 15.0605 1.9581 15.3543 2.31767 15.3543H4.38277C4.65152 16.118 5.37519 16.6666 6.22392 16.6666C7.07265 16.6666 7.79628 16.118 8.06506 15.3543H12.6623C12.931 16.118 13.6547 16.6666 14.5034 16.6666C15.3522 16.6666 16.0758 16.118 16.3446 15.3543H17.6823C18.0418 15.3543 18.3333 15.0605 18.3333 14.6981V9.95526C18.3333 9.82744 18.2962 9.70237 18.2267 9.59548ZM6.22392 15.3543C5.86493 15.3543 5.57288 15.06 5.57288 14.6982C5.57288 14.3363 5.86493 14.042 6.22392 14.042C6.5829 14.042 6.87496 14.3363 6.87496 14.6982C6.87496 15.06 6.5829 15.3543 6.22392 15.3543ZM10.6734 14.042H8.06503C7.79628 13.2783 7.07262 12.7297 6.22389 12.7297C5.37515 12.7297 4.65152 13.2783 4.38274 14.042H2.96871V4.64566H10.6734V14.042ZM14.5034 15.3543C14.1444 15.3543 13.8524 15.06 13.8524 14.6982C13.8524 14.3363 14.1444 14.042 14.5034 14.042C14.8624 14.042 15.1545 14.3363 15.1545 14.6982C15.1545 15.06 14.8624 15.3543 14.5034 15.3543ZM17.0312 14.042H16.3446C16.0758 13.2783 15.3521 12.7296 14.5034 12.7296C13.6547 12.7296 12.931 13.2783 12.6623 14.042H11.9755V6.70189H14.7875L17.0312 10.1512V14.042Z" fill="#7B8E98"/>
</svg>
