<svg width="20" height="20" viewBox="0 0 20 20" fill="none" xmlns="http://www.w3.org/2000/svg">
<path fill-rule="evenodd" clip-rule="evenodd" d="M10.6549 18.1499L16.8188 14.7413C17.5403 14.3363 17.9167 13.9388 17.9167 12.8459V6.79298C17.9167 5.99815 17.6187 5.50902 16.96 5.13453L11.4077 2.06219C10.4588 1.53485 9.54127 1.53485 8.59237 2.06219L3.04796 5.13453C2.38138 5.50902 2.08337 5.99815 2.08337 6.79298V12.8459C2.08337 13.9388 2.46764 14.3363 3.18128 14.7413L9.35306 18.1499C9.79222 18.3945 10.2079 18.3945 10.6549 18.1499ZM13.6898 7.33561L7.61209 3.98814L9.11779 3.15509C9.72164 2.81881 10.2784 2.81117 10.8901 3.15509L16.0581 6.02872L13.6898 7.33561ZM10.004 9.36856L3.94981 6.02873L6.37304 4.67598L12.4272 8.0311L10.004 9.36856ZM9.38443 16.7819L3.88707 13.7325C3.43223 13.4803 3.27538 13.2281 3.27538 12.8077V7.03754L9.38443 10.4385V16.7819ZM10.6156 16.7819V10.4385L16.7247 7.03754V12.8077C16.7247 13.2281 16.5679 13.4803 16.1208 13.7325L10.6156 16.7819Z" fill="#7B8E98"/>
</svg>
