<svg width="70" height="70" viewBox="0 0 70 70" fill="none" xmlns="http://www.w3.org/2000/svg">
<path fill-rule="evenodd" clip-rule="evenodd" d="M34.9999 61.25C35.6167 61.25 36.4979 60.8497 37.1441 60.4779C53.6807 50.1838 64.1666 38.2026 64.1666 26.0212C64.1666 15.8987 57.0291 8.75 47.5125 8.75C42.0786 8.75 37.6728 11.2663 34.9999 15.1266C32.3858 11.2949 27.9212 8.75 22.4873 8.75C12.9707 8.75 5.83325 15.8987 5.83325 26.0212C5.83325 38.2026 16.3192 50.1838 32.8851 60.4779C33.5019 60.8497 34.3831 61.25 34.9999 61.25ZM34.9999 56.4175C34.8824 56.4175 34.6768 56.2745 34.4125 56.0743C22.1055 48.125 10.5622 36.6585 10.5622 26.0212C10.5622 18.415 15.6142 13.3538 22.4286 13.3538C27.9506 13.3538 31.1228 16.6993 33.0026 19.5588C33.7957 20.7026 34.295 21.0172 34.9999 21.0172C35.7049 21.0172 36.1454 20.674 36.9972 19.5588C39.0239 16.7565 42.0786 13.3538 47.5712 13.3538C54.3856 13.3538 59.4376 18.415 59.4376 26.0212C59.4376 36.6585 47.8943 48.125 35.6167 56.0743C35.323 56.2745 35.1174 56.4175 34.9999 56.4175Z" fill="#CFD8DC"/>
</svg>
