<svg width="52" height="24" viewBox="0 0 52 24" fill="none" xmlns="http://www.w3.org/2000/svg">
<rect width="51.75" height="24" rx="4.5" fill="white"/>
<path fill-rule="evenodd" clip-rule="evenodd" d="M26.589 9.52081C26.5653 11.4361 28.2554 12.505 29.5286 13.1405C30.8367 13.7926 31.2761 14.2107 31.2711 14.7937C31.2611 15.6862 30.2276 16.08 29.2602 16.0953C27.5726 16.1222 26.5915 15.6286 25.8114 15.2553L25.2035 18.1692C25.9862 18.5387 27.4353 18.8609 28.9382 18.875C32.4657 18.875 34.7736 17.0914 34.7861 14.3258C34.7998 10.816 30.0466 10.6217 30.0791 9.05284C30.0903 8.5772 30.5334 8.0696 31.5045 7.94046C31.9851 7.87526 33.312 7.82539 34.8161 8.53501L35.4065 5.71571C34.5976 5.41396 33.5578 5.125 32.2634 5.125C28.9432 5.125 26.6078 6.93293 26.589 9.52081ZM41.0796 5.36793C40.4355 5.36793 39.8926 5.75279 39.6504 6.3435L34.6114 18.6679H38.1363L38.8378 16.6822H43.1454L43.5523 18.6679H46.6592L43.948 5.36793H41.0796ZM41.5726 8.96081L42.5899 13.955H39.8039L41.5726 8.96081ZM22.3151 5.36793L19.5365 18.6679H22.8955L25.6728 5.36793H22.3151ZM17.346 5.36793L13.8497 14.4204L12.4355 6.72324C12.2694 5.86402 11.6141 5.36793 10.8864 5.36793H5.17083L5.09094 5.75406C6.26427 6.0149 7.59737 6.43555 8.40496 6.88562C8.89926 7.16052 9.04031 7.40089 9.20258 8.05425L11.8813 18.6679H15.4312L20.8734 5.36793H17.346Z" fill="#1A1F71"/>
</svg>
