<svg width="24" height="24" viewBox="0 0 24 24" fill="none" xmlns="http://www.w3.org/2000/svg">
<path fill-rule="evenodd" clip-rule="evenodd" d="M15.6923 0.150879H8.39156C1.72862 0.150879 0.151001 1.7285 0.151001 8.39144V15.6921C0.151001 22.3551 1.72862 23.9327 8.39156 23.9327H15.6923C22.3552 23.9327 23.9328 22.3551 23.9328 15.6921V8.39144C23.9328 1.7285 22.3552 0.150879 15.6923 0.150879ZM19.0993 7.70333C19.6195 7.70333 19.737 7.97186 19.6195 8.34109C19.4362 9.1873 17.9136 11.432 17.442 12.1272C17.3524 12.2593 17.3008 12.3355 17.3034 12.3355C17.1188 12.6376 17.0517 12.7719 17.3034 13.1075C17.3945 13.2316 17.5874 13.421 17.808 13.6374C18.0348 13.86 18.2908 14.1112 18.4951 14.3495C19.2335 15.1886 19.8041 15.8935 19.9552 16.3802C20.0895 16.867 19.8545 17.1187 19.351 17.1187H17.6223C17.1642 17.1187 16.9281 16.8556 16.4248 16.2949C16.209 16.0545 15.9441 15.7594 15.5916 15.4068C14.5678 14.4166 14.1146 14.2823 13.8629 14.2823C13.5104 14.2823 13.4097 14.3663 13.4097 14.8698V16.4306C13.4097 16.8502 13.2755 17.1019 12.1678 17.1019C10.3384 17.1019 8.30764 15.9942 6.88107 13.9299C4.73282 10.9089 4.14541 8.6264 4.14541 8.17326C4.14541 7.92151 4.22932 7.68654 4.73282 7.68654H6.47827C6.91464 7.68654 7.08247 7.87116 7.2503 8.35787C8.10625 10.825 9.53282 12.99 10.1202 12.99C10.3384 12.99 10.4391 12.8893 10.4391 12.3355V9.78445C10.3977 9.05934 10.1453 8.74341 9.95808 8.50914C9.84199 8.36384 9.751 8.24995 9.751 8.08934C9.751 7.88794 9.91883 7.68654 10.1874 7.68654H12.9062C13.2755 7.68654 13.4097 7.88794 13.4097 8.32431V11.7649C13.4097 12.1341 13.5608 12.2684 13.6783 12.2684C13.8965 12.2684 14.0811 12.1341 14.4839 11.7313C15.7258 10.3383 16.6153 8.19004 16.6153 8.19004C16.7328 7.93829 16.9342 7.70333 17.3706 7.70333H19.0993Z" fill="white"/>
</svg>
