<svg width="51" height="24" viewBox="0 0 51 24" fill="none" xmlns="http://www.w3.org/2000/svg">
<rect width="51" height="24" rx="4.5" fill="white"/>
<rect x="21.9672" y="6.09277" width="7.17103" height="11.7124" fill="#FF5F00"/>
<path d="M22.7058 11.9503C22.704 9.66512 23.753 7.50602 25.5506 6.09512C22.4968 3.69513 18.1114 4.04471 15.4763 6.89818C12.8412 9.75165 12.8412 14.151 15.4763 17.0045C18.1114 19.8579 22.4968 20.2075 25.5506 17.8075C23.7525 16.3962 22.7034 14.2362 22.7058 11.9503Z" fill="#EB001B"/>
<path fill-rule="evenodd" clip-rule="evenodd" d="M36.8907 16.326V16.566H36.8452V16.326H36.7479V16.2764H36.9941V16.326H36.8907ZM37.3686 16.2764V16.566H37.3169V16.3467L37.2362 16.535H37.1803L37.0997 16.3467V16.566H37.0459V16.2764H37.1203L37.2072 16.4833L37.2941 16.2764H37.3686Z" fill="#F79E1B"/>
<path d="M37.6024 11.9502C37.6023 14.802 35.974 17.4033 33.409 18.6495C30.8439 19.8957 27.7925 19.5679 25.5507 17.8054C27.3475 16.3933 28.3966 14.2345 28.3966 11.9492C28.3966 9.6639 27.3475 7.5051 25.5507 6.09299C27.7925 4.33046 30.8439 4.00269 33.409 5.24888C35.974 6.49506 37.6023 9.09643 37.6024 11.9482V11.9502Z" fill="#F79E1B"/>
</svg>
