<svg width="59" height="24" viewBox="0 0 59 24" fill="none" xmlns="http://www.w3.org/2000/svg">
<rect width="58.5" height="24" rx="4.5" fill="white"/>
<path d="M40.2526 11.3369V18.875H44.4507V14.408H49.2085C51.211 14.3931 52.912 13.1171 53.5534 11.3369H40.2526Z" fill="#37A72E"/>
<path d="M39.6927 5.125C39.9373 8.20615 42.8594 10.639 46.4281 10.639C46.4398 10.639 53.7278 10.639 53.7278 10.639C53.7816 10.3564 53.8098 10.0647 53.8098 9.7665C53.8098 7.21415 51.7455 5.14388 49.1919 5.12513L39.6927 5.125Z" fill="url(#paint0_linear_710:9731)"/>
<path d="M33.4829 10.5586C33.5263 10.4817 33.6088 10.4296 33.7035 10.4296C33.8403 10.4296 33.9516 10.5383 33.9553 10.6738L33.9554 18.875H38.1535V5.125H33.9554C33.423 5.14268 32.8215 5.53238 32.5979 6.01074L29.257 13.1577C29.2488 13.1869 29.2359 13.2142 29.2192 13.2387L29.2181 13.2411C29.1671 13.3135 29.0829 13.361 28.9876 13.361C28.8331 13.361 28.7078 13.236 28.7078 13.0819V5.125H24.5096V18.875H28.7078C29.2343 18.846 29.8216 18.4607 30.042 17.9893L33.471 10.5841C33.4736 10.5778 33.4765 10.5716 33.4796 10.5656L33.4829 10.5586Z" fill="#37A72E"/>
<path d="M15.3498 18.875H12.3298L9.8747 10.7946C9.85102 10.6663 9.73834 10.5692 9.6029 10.5692C9.45026 10.5692 9.32652 10.6926 9.32652 10.8449V18.875H5.12842V5.125H8.73179H9.80495C10.5774 5.125 11.3869 5.72301 11.6126 6.45954L13.6557 13.1259C13.7574 13.4576 13.9223 13.4572 14.0239 13.1259L16.067 6.45954C16.2929 5.72249 17.1021 5.125 17.8747 5.125L18.9475 5.125H22.5506V18.875H18.3525V10.8484C18.3525 10.6926 18.2287 10.5692 18.0761 10.5692C17.9389 10.5692 17.8251 10.6688 17.8034 10.7995L15.3498 18.875Z" fill="#37A72E"/>
<defs>
<linearGradient id="paint0_linear_710:9731" x1="39.6927" y1="10.639" x2="53.8098" y2="10.639" gradientUnits="userSpaceOnUse">
<stop stop-color="#00A0E5"/>
<stop offset="1" stop-color="#0077C3"/>
</linearGradient>
</defs>
</svg>
