<svg width="14" height="14" viewBox="0 0 14 14" fill="none" xmlns="http://www.w3.org/2000/svg">
<path fill-rule="evenodd" clip-rule="evenodd" d="M2.91667 5.21057C2.91667 4.90433 3.15606 4.66666 3.45989 4.66666C3.61181 4.66666 3.74991 4.72608 3.85579 4.8312L7.00461 8.03068L10.1442 4.8312C10.2501 4.72608 10.3928 4.66666 10.5401 4.66666C10.844 4.66666 11.0833 4.90433 11.0833 5.21057C11.0833 5.35683 11.0281 5.48481 10.9268 5.58536L7.42813 9.14135C7.30844 9.26933 7.16113 9.33332 7.00001 9.33332C6.83888 9.33332 6.70078 9.26933 6.57648 9.14593L3.07319 5.58993C2.97191 5.48481 2.91667 5.35683 2.91667 5.21057Z" fill="#00CA5F"/>
</svg>
