<svg width="20" height="20" viewBox="0 0 20 20" fill="none" xmlns="http://www.w3.org/2000/svg">
<path fill-rule="evenodd" clip-rule="evenodd" d="M10.0048 10.009C12.2754 10.009 14.1261 8.10115 14.1261 5.77934C14.1261 3.47552 12.2849 1.66667 10.0048 1.66667C7.74378 1.66667 5.88345 3.51152 5.88345 5.79734C5.89299 8.11015 7.73424 10.009 10.0048 10.009ZM10.0048 8.65012C8.61192 8.65012 7.4194 7.39022 7.4194 5.79735C7.4194 4.23147 8.59284 3.02557 10.0048 3.02557C11.4263 3.02557 12.5902 4.21347 12.5902 5.77935C12.5902 7.37222 11.4072 8.65012 10.0048 8.65012ZM15.996 18.3333C17.5797 18.3333 18.3334 17.8834 18.3334 16.8935C18.3334 14.5356 15.1756 11.1249 10.0048 11.1249C4.82448 11.1249 1.66669 14.5356 1.66669 16.8935C1.66669 17.8834 2.42036 18.3333 4.00403 18.3333H15.996ZM16.4539 16.9744H3.55562C3.30758 16.9744 3.20264 16.9114 3.20264 16.7225C3.20264 15.2466 5.62584 12.4838 10.0048 12.4838C14.3742 12.4838 16.7974 15.2466 16.7974 16.7225C16.7974 16.9114 16.702 16.9744 16.4539 16.9744Z" fill="white"/>
</svg>
