<svg width="20" height="20" viewBox="0 0 20 20" fill="none" xmlns="http://www.w3.org/2000/svg">
<path fill-rule="evenodd" clip-rule="evenodd" d="M4.41454 15.582C4.73948 15.9069 5.27 15.9202 5.58831 15.6019L9.99825 11.192L14.2822 15.4759C14.6005 15.7942 15.1443 15.7942 15.4692 15.4693C15.7942 15.1443 15.7875 14.6072 15.4692 14.2889L11.1853 10.0049L15.6019 5.58834C15.9202 5.27003 15.9069 4.73951 15.582 4.41457C15.257 4.08962 14.7331 4.08299 14.4148 4.4013L9.99825 8.81788L5.70768 4.5273C5.38936 4.20899 4.85221 4.20236 4.52727 4.5273C4.20233 4.85224 4.20233 5.39603 4.52064 5.71434L8.81121 10.0049L4.40127 14.4149C4.08296 14.7332 4.08959 15.2571 4.41454 15.582Z" fill="white"/>
</svg>
