<svg width="21" height="20" viewBox="0 0 21 20" fill="none" xmlns="http://www.w3.org/2000/svg">
<path fill-rule="evenodd" clip-rule="evenodd" d="M18.8268 9.59551L16.2837 5.68596C16.1634 5.50098 15.9587 5.38957 15.7392 5.38957H12.5756V3.9895C12.5756 3.6271 12.2841 3.33333 11.9246 3.33333H2.91777C2.55819 3.33333 2.26672 3.6271 2.26672 3.9895V14.6982C2.26672 15.0606 2.55819 15.3543 2.91777 15.3543H4.98287C5.25162 16.118 5.97529 16.6667 6.82402 16.6667C7.67275 16.6667 8.39638 16.118 8.66516 15.3543H13.2624C13.5311 16.118 14.2548 16.6667 15.1035 16.6667C15.9523 16.6667 16.6759 16.118 16.9447 15.3543H18.2823C18.6419 15.3543 18.9334 15.0606 18.9334 14.6982V9.95528C18.9334 9.82746 18.8963 9.70239 18.8268 9.59551ZM6.82402 15.3543C6.46503 15.3543 6.17297 15.06 6.17297 14.6982C6.17297 14.3364 6.46503 14.042 6.82402 14.042C7.183 14.042 7.47506 14.3364 7.47506 14.6982C7.47506 15.06 7.183 15.3543 6.82402 15.3543ZM11.2735 14.042H8.66513C8.39638 13.2783 7.67271 12.7297 6.82398 12.7297C5.97525 12.7297 5.25162 13.2783 4.98284 14.042H3.56881V4.64567H11.2735V14.042ZM15.1035 15.3543C14.7445 15.3543 14.4525 15.06 14.4525 14.6982C14.4525 14.3364 14.7445 14.042 15.1035 14.042C15.4625 14.042 15.7546 14.3364 15.7546 14.6982C15.7546 15.06 15.4625 15.3543 15.1035 15.3543ZM17.6313 14.042H16.9447C16.6759 13.2783 15.9522 12.7297 15.1035 12.7297C14.2548 12.7297 13.5311 13.2783 13.2624 14.042H12.5756V6.70191H15.3876L17.6313 10.1512V14.042Z" fill="white"/>
</svg>
