<svg width="21" height="20" viewBox="0 0 21 20" fill="none" xmlns="http://www.w3.org/2000/svg">
<path fill-rule="evenodd" clip-rule="evenodd" d="M18.3756 9.61652L16.9613 8.1883L17.472 6.24426C17.548 5.95516 17.3769 5.65884 17.0885 5.5801L15.1496 5.05038L14.6199 3.11145C14.5411 2.82314 14.2449 2.65204 13.9557 2.72799L12.0117 3.23873L10.5835 1.82441C10.3711 1.61409 10.0289 1.61409 9.81654 1.82441L8.38831 3.23873L6.44427 2.72802C6.15511 2.65207 5.85888 2.82317 5.78011 3.11148L5.25039 5.05041L3.31145 5.58013C3.02314 5.65891 2.85205 5.95523 2.92799 6.24429L3.4387 8.18833L2.02441 9.61652C1.81409 9.82892 1.81409 10.1711 2.02441 10.3834L3.43873 11.8117L2.92802 13.7557C2.85208 14.0448 3.02317 14.3411 3.31149 14.4199L5.25042 14.9496L5.78014 16.8885C5.85892 17.1768 6.15517 17.348 6.4443 17.272L8.38835 16.7613L9.81657 18.1756C9.92275 18.2808 10.0614 18.3333 10.2 18.3333C10.3387 18.3333 10.4773 18.2808 10.5835 18.1756L12.0117 16.7613L13.9558 17.272C14.2449 17.3479 14.5411 17.1768 14.6199 16.8885L15.1496 14.9496L17.0886 14.4199C17.3769 14.3411 17.548 14.0448 17.472 13.7557L16.9613 11.8117L18.3756 10.3834C18.5859 10.1711 18.5859 9.82892 18.3756 9.61652ZM15.9679 11.2658C15.8323 11.4028 15.7791 11.6012 15.828 11.7877L16.2807 13.5107L14.5622 13.9801C14.3763 14.0309 14.2309 14.1762 14.1801 14.3622L13.7107 16.0807L11.9877 15.6281C11.8012 15.5791 11.6028 15.6322 11.4657 15.7679L10.2 17.0213L8.9342 15.7679C8.83084 15.6656 8.69253 15.6102 8.5507 15.6102C8.50457 15.6102 8.45806 15.6161 8.41229 15.6281L6.6893 16.0807L6.21984 14.3623C6.16906 14.1763 6.02374 14.031 5.83774 13.9802L4.11932 13.5107L4.57192 11.7877C4.62091 11.6013 4.56772 11.4028 4.43204 11.2658L3.17862 10L4.43204 8.73422C4.56772 8.59721 4.62091 8.39877 4.57192 8.21228L4.11932 6.48923L5.83774 6.01977C6.02371 5.96899 6.16902 5.82367 6.21984 5.63767L6.6893 3.91925L8.41229 4.37185C8.59878 4.42088 8.79722 4.36765 8.93423 4.23198L10.2 2.97856L11.4658 4.23198C11.6028 4.36759 11.8012 4.42091 11.9877 4.37185L13.7107 3.91925L14.1802 5.63767C14.2309 5.82364 14.3763 5.96895 14.5623 6.01977L16.2807 6.48923L15.8281 8.21221C15.7791 8.39867 15.8323 8.59714 15.968 8.73415L17.2214 9.99994L15.9679 11.2658ZM8.02014 6.00354C7.01848 6.00354 6.20357 6.81844 6.20357 7.8201C6.20357 8.82176 7.01848 9.63667 8.02014 9.63667C9.0218 9.63667 9.83671 8.82176 9.83671 7.8201C9.83671 6.81844 9.0218 6.00354 8.02014 6.00354ZM8.02015 8.54672C7.6195 8.54672 7.29352 8.22071 7.29352 7.82009C7.29352 7.41944 7.6195 7.09347 8.02015 7.09347C8.4208 7.09347 8.74678 7.41944 8.74678 7.82009C8.74678 8.22074 8.4208 8.54672 8.02015 8.54672ZM10.5633 12.1799C10.5633 11.1782 11.3783 10.3633 12.3799 10.3633C13.3816 10.3633 14.1965 11.1782 14.1965 12.1799C14.1965 13.1815 13.3816 13.9964 12.3799 13.9964C11.3783 13.9964 10.5633 13.1815 10.5633 12.1799ZM11.6533 12.1799C11.6533 12.5805 11.9793 12.9065 12.3799 12.9065C12.7805 12.9065 13.1066 12.5805 13.1066 12.1799C13.1066 11.7792 12.7806 11.4532 12.3799 11.4532C11.9793 11.4532 11.6533 11.7792 11.6533 12.1799ZM12.3578 7.07143C12.5707 6.85861 12.9158 6.85861 13.1285 7.07143C13.3414 7.28426 13.3414 7.62931 13.1285 7.84214L8.04209 12.9285C7.93571 13.035 7.79619 13.0882 7.65677 13.0882C7.51735 13.0882 7.37786 13.0349 7.27145 12.9285C7.05862 12.7157 7.05862 12.3706 7.27145 12.1578L12.3578 7.07143Z" fill="white"/>
</svg>
