<svg width="21" height="20" viewBox="0 0 21 20" fill="none" xmlns="http://www.w3.org/2000/svg">
<path fill-rule="evenodd" clip-rule="evenodd" d="M13.3623 3.75C12.6288 3.75 12.0196 4.28349 11.9138 4.97705L11.4684 5.41561C10.6931 6.17891 9.55148 6.63462 8.41434 6.63462H5.48465C4.84809 6.63462 4.30535 7.03657 4.10379 7.59615H4.01981C2.94285 7.59615 2.06668 8.45885 2.06668 9.51923C2.06668 10.5796 2.94285 11.4423 4.01981 11.4423H4.10379C4.25115 11.8514 4.58087 12.1761 4.99637 12.3212V14.8077C4.99637 15.603 5.65353 16.25 6.46125 16.25C7.26893 16.25 7.92606 15.603 7.92606 14.8077V12.4038H8.41434C9.55145 12.4038 10.6931 12.8596 11.4684 13.6229L11.9138 14.0614C12.0196 14.7549 12.6289 15.2885 13.3623 15.2885C14.17 15.2885 14.8271 14.6414 14.8271 13.8462V5.19231C14.8271 4.39702 14.17 3.75 13.3623 3.75ZM4.01981 10.4808C3.48133 10.4808 3.04324 10.0494 3.04324 9.51922C3.04324 8.98903 3.48133 8.55768 4.01981 8.55768V10.4808ZM6.46121 15.2885C6.73045 15.2885 6.94949 15.0728 6.94949 14.8077V12.4038H5.97293V14.8077C5.97293 15.0728 6.19197 15.2885 6.46121 15.2885ZM7.92606 11.4423H5.48465C5.21541 11.4423 4.99637 11.2266 4.99637 10.9615V8.07693C4.99637 7.81183 5.21541 7.59616 5.48465 7.59616H7.92606V11.4423ZM8.89936 11.4641C10.0119 11.5637 11.0725 12.0004 11.8974 12.7034V6.33503C11.0725 7.03801 10.0119 7.47477 8.89939 7.57432L8.89936 11.4641ZM13.8505 13.8462C13.8505 14.1113 13.6315 14.3269 13.3623 14.3269H13.3623C13.093 14.3269 12.874 14.1113 12.874 13.8462V5.19231C12.874 4.92722 13.093 4.71154 13.3623 4.71154C13.6315 4.71154 13.8505 4.92722 13.8505 5.19231V13.8462ZM17.6137 6.77546C17.4231 6.58773 17.1139 6.58773 16.9232 6.77546L15.9467 7.73699C15.756 7.92475 15.756 8.22914 15.9467 8.4169C16.1373 8.60465 16.4465 8.60462 16.6372 8.4169L17.6137 7.45536C17.8044 7.2676 17.8044 6.96321 17.6137 6.77546ZM16.7802 9.51923H18.2451C18.5147 9.51923 18.7333 9.73448 18.7333 10C18.7333 10.2655 18.5147 10.4808 18.2451 10.4808H16.7802C16.5106 10.4808 16.2919 10.2655 16.2919 10C16.2919 9.73448 16.5106 9.51923 16.7802 9.51923ZM16.6372 11.5831L17.6138 12.5447C17.8045 12.7324 17.8045 13.0368 17.6138 13.2246C17.4231 13.4123 17.1139 13.4123 16.9233 13.2246L15.9467 12.263C15.756 12.0753 15.756 11.7709 15.9467 11.5831C16.1374 11.3954 16.4466 11.3954 16.6372 11.5831Z" fill="white"/>
</svg>
