<svg width="20" height="20" viewBox="0 0 20 20" fill="none" xmlns="http://www.w3.org/2000/svg">
<path fill-rule="evenodd" clip-rule="evenodd" d="M9.99167 1.66667C13.6707 1.66667 16.6667 4.58434 16.6667 8.1626C16.6667 9.48306 16.257 10.7595 15.4817 11.8688L15.4116 11.9664C15.4019 11.9787 15.3929 11.9893 15.3842 11.9989L15.3582 12.0246L10.789 17.9486C10.6023 18.1894 10.3072 18.3333 9.99167 18.3333C9.72808 18.3333 9.48587 18.2333 9.29138 18.0598L9.17484 17.9429L4.64436 12.0299C4.61246 11.9988 4.59139 11.9721 4.5707 11.9379L4.54584 11.8927L4.39893 11.6796C3.7975 10.7676 3.44421 9.74914 3.35554 8.68307L3.3389 8.41559L3.33334 8.14634C3.33334 4.5736 6.3236 1.66667 9.99167 1.66667ZM9.99168 3.04877C7.0975 3.04877 4.73335 5.34073 4.73335 8.1626C4.73335 9.20526 5.06715 10.2224 5.67233 11.0758L5.6895 11.0932L5.72751 11.1488L9.99168 16.7016L14.2975 11.1041L14.3036 11.0877C14.8714 10.2859 15.1974 9.35678 15.2442 8.40182L15.25 8.1626C15.25 5.3456 12.8908 3.04877 9.99168 3.04877ZM10.825 7.15431V5.31707H9.15834V7.15431L7.27501 7.15447V8.78049L9.15834 8.78032V10.6016H10.825V8.78032L12.6917 8.78049V7.15447L10.825 7.15431Z" fill="white"/>
</svg>
