<svg width="32" height="32" viewBox="0 0 32 32" fill="none" xmlns="http://www.w3.org/2000/svg">
<path fill-rule="evenodd" clip-rule="evenodd" d="M24 7.99873L29.6031 7.99872C30.9269 7.99872 32 9.07183 32 10.3956V21.6027C32 22.9265 30.9269 23.9996 29.6031 23.9996H24V29.6032C24 30.9269 22.9269 32 21.6031 32H10.3969C9.07311 32 8 30.9269 8 29.6032V23.9996H2.39685C1.07311 23.9996 0 22.9265 0 21.6027V10.3956C0 9.07183 1.07311 7.99872 2.39686 7.99872L8 7.99873V2.3973C8 1.07271 9.07443 -0.000749818 10.399 0.000439678L21.6225 0.0105561C22.9483 0.0117506 24.0213 1.08902 24.0172 2.4148L24 7.99873ZM23.1012 8.89476L29.5061 8.89475C30.3886 8.89475 31.104 9.61016 31.104 10.4927V21.5056C31.104 22.3881 30.3886 23.1035 29.5061 23.1035H23.104V29.5061C23.104 30.3885 22.3886 31.104 21.5061 31.104H10.4939C9.61138 31.104 8.89598 30.3885 8.89598 29.5061V23.1035H2.49388C1.61138 23.1035 0.895977 22.3881 0.895977 21.5056V10.4927C0.895977 9.61016 1.61138 8.89475 2.49388 8.89475L8.89598 8.89476V2.49447C8.89598 1.61141 9.61226 0.895772 10.4953 0.896567L21.5244 0.906505C22.4083 0.907301 23.1236 1.62548 23.1209 2.50933L23.1012 8.89476ZM2.59095 9.7908L9.792 9.79081V2.59166C9.792 2.15013 10.1501 1.79231 10.5917 1.7927L21.4264 1.80247C21.8683 1.80286 22.226 2.16195 22.2246 2.60388L22.2025 9.79081L29.409 9.7908C29.8503 9.7908 30.208 10.1485 30.208 10.5898V21.4085C30.208 21.8498 29.8503 22.2075 29.409 22.2075H22.208V29.409C22.208 29.8502 21.8503 30.2079 21.4091 30.2079H10.591C10.1497 30.2079 9.792 29.8502 9.792 29.409V22.2075H2.59095C2.1497 22.2075 1.792 21.8498 1.792 21.4085V10.5898C1.792 10.1485 2.14971 9.7908 2.59095 9.7908ZM11.6368 11.3032L11.6368 11.3031C11.6987 10.9854 11.7439 10.7538 12.4358 10.3341C12.5731 10.2509 12.695 10.162 12.8201 10.0709C13.3253 9.70272 13.8811 9.29767 15.705 9.07459C17.713 8.82898 18.6553 9.02446 19.3718 9.22908C19.735 9.3328 20.3912 9.57861 21.0585 10.1031C21.7257 10.6275 22.3724 11.3848 22.4289 12.7267C22.4532 13.3031 22.3334 13.8045 22.1447 14.2527C22.0187 14.552 21.2692 15.8629 19.7367 16.3325C18.5666 16.6911 17.6319 16.8181 17.0861 16.8923L17.086 16.8923C16.917 16.9153 16.7853 16.9332 16.6954 16.9513L16.6488 16.9605C16.1127 17.0657 13.2139 17.6348 13.2139 19.3605C13.2139 21.1454 15.1665 21.7135 16.5362 21.7135C17.9059 21.7135 18.8651 20.8457 18.8651 20.8457C18.8651 20.8457 19.6026 20.2457 19.5668 19.3994C19.531 18.5532 19.1969 18.1002 18.7144 17.7655C18.5083 17.6224 18.2393 17.4918 17.9989 17.389C17.8763 17.3365 17.4134 17.1667 17.4134 17.1667C17.4134 17.1667 18.5217 17.0044 19.2796 16.8226C19.8158 16.9513 21.1289 17.8664 21.1289 19.4707C21.1289 21.0749 19.5329 23.04 16.3698 23.04C14.8957 23.04 13.7391 22.6566 12.821 21.9191C11.9029 21.1817 11.6497 20.0791 11.6497 19.2899C11.6497 18.7161 11.8924 18.1985 12.1895 17.7799C12.6577 17.1201 13.5608 16.5092 14.1502 16.2812C14.4096 16.1808 14.7249 16.0744 15.0955 15.9762C15.714 15.8122 16.4116 15.691 17.067 15.5771L17.0671 15.5771L17.0671 15.5771L17.0672 15.5771C17.6967 15.4677 18.2873 15.365 18.7318 15.2377C20.6476 14.689 21.1289 13.8112 21.1289 12.7089C21.1289 11.6066 20.0893 10.8118 18.9903 10.4583C17.8913 10.1049 16.4909 10.0605 15.3004 10.6208C14.6914 10.9074 14.565 11.0802 14.4556 11.2297C14.3512 11.3724 14.2625 11.4938 13.7841 11.6724C12.8048 12.0382 11.6987 11.4762 11.6987 11.4762L11.3428 11.6724C11.3428 11.6724 11.282 11.7544 11.1726 11.7714C11.0633 11.7885 10.9236 11.7377 10.9236 11.7377C10.9236 11.7377 11.1292 11.6962 11.1726 11.6784C11.216 11.6607 11.2443 11.6066 11.2443 11.6066C11.2443 11.6066 11.0665 11.6155 10.975 11.5851C10.8834 11.5547 10.8093 11.4621 10.8093 11.4621C10.8093 11.4621 10.934 11.5082 11.0583 11.5086C11.1826 11.509 11.307 11.4637 11.307 11.4637C11.307 11.4637 11.5031 11.437 11.6368 11.3032ZM10.4882 18.4223C9.80667 19.1975 9.8168 20.0523 9.8168 20.0523C9.8168 20.0523 10.3925 19.1721 11.3131 18.9315C11.4039 18.0335 12.1134 17.3774 12.1134 17.3774C12.1134 17.3774 11.1697 17.6472 10.4882 18.4223ZM20.6623 12.6841C20.6623 12.6841 20.79 15.2265 14.9873 15.2265C9.18459 15.2265 9.31225 12.6841 9.31225 12.6841H20.6623ZM13.8243 10.5399C14.0317 10.4921 14.1757 10.3486 14.1459 10.2196C14.1161 10.0905 13.9238 10.0247 13.7164 10.0726C13.509 10.1205 13.365 10.2639 13.3948 10.393C13.4246 10.522 13.6169 10.5878 13.8243 10.5399Z" fill="#01A54E"/>
</svg>
