<svg width="25" height="24" viewBox="0 0 25 24" fill="none" xmlns="http://www.w3.org/2000/svg">
<path fill-rule="evenodd" clip-rule="evenodd" d="M12.9276 2C15.813 2 18.1755 4.31001 18.2891 7.17258L18.2933 7.38828L18.2927 8.03515L19.0481 8.03598C19.7425 8.03598 20.3231 8.53198 20.4501 9.18614L20.4694 9.31899L20.4759 9.45544V12.0987C20.4759 12.835 19.9083 13.4426 19.1854 13.5116L19.0481 13.5181L17.5083 13.518L17.4021 13.6772C17.0514 14.1743 16.6126 14.6419 16.1121 15.0618L15.8568 15.2677L15.6777 15.4006L15.6797 15.4479C15.7366 16.1485 16.2125 16.6916 16.8707 16.8097L17.0047 16.8276L17.1432 16.8336C20.6771 16.8336 22.5 18.0361 22.5 21.2118C22.5 21.6471 22.145 22 21.707 22C21.2692 22 20.9141 21.647 20.9141 21.2118C20.9141 18.9866 19.8809 18.4099 17.1432 18.4099C16.7196 18.4099 16.3077 18.3233 15.9275 18.1586L15.8516 18.1219L12.7708 20.3408C12.5564 20.5021 12.2771 20.542 12.03 20.4555L11.9264 20.4106L11.8283 20.3502L8.88389 18.2299L8.77181 18.2705C8.6251 18.3164 8.47481 18.3513 8.32196 18.3747L8.0909 18.401L7.85675 18.4099C5.11914 18.4099 4.08585 18.9867 4.08585 21.2118C4.08585 21.6471 3.73082 22 3.293 22C2.85512 22 2.5 21.6471 2.5 21.2118C2.5 18.0361 4.32296 16.8336 7.85675 16.8336C8.57901 16.8336 9.18952 16.3066 9.30596 15.6134L9.30869 15.5902L9.13461 15.4723C8.50224 15.0226 7.95155 14.4968 7.5269 13.923L7.35276 13.6742L7.25582 13.518L5.95189 13.5181C5.2575 13.5181 4.67688 13.0221 4.54987 12.368L4.53062 12.2351L4.52407 12.0987V9.45544C4.52407 8.71906 5.09168 8.11143 5.81462 8.0425L5.95189 8.03598L6.70655 8.03515L6.70682 7.38813C6.70682 4.57298 8.88269 2.24109 11.6382 2.01754L11.8569 2.0043L12.0723 2H12.9276ZM14.2912 16.4606L14.2255 16.2697L14.2146 16.2761C13.5309 16.5975 12.888 16.7806 12.4268 16.7806C12.0372 16.7806 11.5395 16.6711 11.0039 16.4717L10.7412 16.368L10.672 16.551C10.5893 16.7454 10.4864 16.9306 10.3653 17.1037L10.2433 17.2646L12.2922 18.7396L14.6118 17.0701L14.6007 17.0541C14.4759 16.8681 14.372 16.6691 14.2912 16.4606ZM12.3979 7.29172L12.2981 7.36875C11.1633 8.19045 9.78008 8.61004 8.36059 8.54079L8.29115 8.53502L8.28357 12.0052C8.48976 12.66 8.96269 13.2951 9.62358 13.8553L9.82741 14.0211C10.7311 14.7267 11.8237 15.2045 12.4268 15.2045C13.0442 15.2045 14.2775 14.5899 15.236 13.7368L15.4266 13.5607L15.4683 13.518H14.1781L14.1559 13.5449C13.966 13.7437 13.7118 13.872 13.4342 13.9045L13.2937 13.9128C12.6366 13.9128 12.104 13.3832 12.104 12.7301C12.104 12.0768 12.6365 11.5472 13.2937 11.5472C13.6253 11.5472 13.9344 11.6832 14.156 11.9152L14.1791 11.9418H16.7071V8.5193L16.6359 8.52791C15.164 8.64568 13.7016 8.23769 12.5094 7.37705L12.3979 7.29172ZM7.00539 10.21C7.00539 9.87993 6.7378 9.61234 6.40771 9.61234C6.07761 9.61234 5.81002 9.87993 5.81002 10.21V11.3431C5.81002 11.6732 6.07761 11.9408 6.40771 11.9408C6.7378 11.9408 7.00539 11.6732 7.00539 11.3431V10.21ZM19.1877 10.209C19.1877 9.87949 18.9206 9.61234 18.5911 9.61234C18.2615 9.61234 17.9944 9.87949 17.9944 10.209V11.3441C17.9944 11.6737 18.2615 11.9408 18.5911 11.9408C18.9206 11.9408 19.1877 11.6737 19.1877 11.3441V10.209ZM14.6305 3.9861L14.6109 4.0653C14.4051 4.79867 14.0648 5.48128 13.6092 6.08462L13.5389 6.17119L13.5768 6.19837C14.4701 6.7935 15.5455 7.05972 16.6174 6.94948L16.6804 6.94113L16.6778 6.91196C16.5284 5.71499 15.8202 4.66412 14.7938 4.07398L14.6305 3.9861ZM12.9276 3.57648H12.0723C10.2064 3.57648 8.64471 4.94998 8.3446 6.75703L8.31585 6.96077L8.33907 6.96315C10.4687 7.11052 12.42 5.77078 13.0474 3.77024L13.1013 3.5805L12.9276 3.57648Z" fill="#CFD8DC"/>
</svg>
