<svg width="21" height="20" viewBox="0 0 21 20" fill="none" xmlns="http://www.w3.org/2000/svg">
<path fill-rule="evenodd" clip-rule="evenodd" d="M15.6893 18.3333C17.1804 18.3333 18.1603 17.9329 19.0209 16.9615C19.0891 16.8933 19.1572 16.8167 19.2169 16.7485C19.7281 16.1776 19.9667 15.6152 19.9667 15.0784C19.9667 14.4649 19.6088 13.8941 18.8505 13.3658L16.3709 11.6446C15.6041 11.1163 14.7094 11.0567 13.9936 11.7639L13.3375 12.42C13.1416 12.616 12.9711 12.6245 12.7837 12.5052C12.3236 12.2155 11.3948 11.406 10.7643 10.7755C10.0996 10.1194 9.46058 9.38662 9.11975 8.84982C9.00898 8.65384 9.0175 8.49195 9.21348 8.29597L9.86106 7.63988C10.5768 6.92414 10.5172 6.02095 9.98887 5.26261L8.26767 2.78309C7.73938 2.02475 7.16849 1.6754 6.55499 1.66688C6.01818 1.65836 5.45581 1.90546 4.88492 2.4167C4.80823 2.48487 4.74006 2.54451 4.6719 2.60416C3.70053 3.47326 3.30005 4.45314 3.30005 5.92722C3.30005 8.36414 4.79971 11.3293 7.55192 14.0815C10.2871 16.8167 13.2609 18.3333 15.6893 18.3333ZM15.6978 17.0212C13.525 17.0638 10.7387 15.3937 8.53182 13.1954C6.30789 10.98 4.56113 8.1 4.60373 5.92723C4.62078 4.98995 4.95309 4.18049 5.61771 3.60108C5.67735 3.54996 5.71996 3.50735 5.7796 3.46475C6.03523 3.24321 6.30789 3.12392 6.55499 3.12392C6.8021 3.12392 7.02364 3.21765 7.18553 3.47327L8.83857 5.95279C9.0175 6.21693 9.03454 6.51515 8.7704 6.7793L8.02057 7.52912C7.43264 8.11704 7.47524 8.83278 7.90128 9.40367C8.38696 10.0598 9.23052 11.0141 9.88662 11.6616C10.5342 12.3177 11.5652 13.238 12.2298 13.7322C12.8007 14.1582 13.5165 14.2008 14.1044 13.6129L14.8542 12.8631C15.1184 12.5989 15.4081 12.616 15.6808 12.7864L18.1603 14.4394C18.4159 14.6098 18.5097 14.8228 18.5097 15.0784C18.5097 15.3255 18.3904 15.5982 18.1688 15.8538C18.1177 15.9135 18.0836 15.9561 18.0325 16.0157C17.4531 16.6803 16.6436 17.0041 15.6978 17.0212Z" fill="white"/>
</svg>
