<svg width="20" height="20" viewBox="0 0 20 20" fill="none" xmlns="http://www.w3.org/2000/svg">
<path fill-rule="evenodd" clip-rule="evenodd" d="M4.16666 7.44368C4.16666 7.0062 4.50863 6.66666 4.94268 6.66666C5.1597 6.66666 5.357 6.75155 5.50826 6.90173L10.0066 11.4724L14.4917 6.90173C14.643 6.75155 14.8469 6.66666 15.0573 6.66666C15.4913 6.66666 15.8333 7.0062 15.8333 7.44368C15.8333 7.65263 15.7544 7.83545 15.6097 7.9791L10.6116 13.0591C10.4406 13.2419 10.2302 13.3333 9.99999 13.3333C9.76981 13.3333 9.57252 13.2419 9.39495 13.0656L4.39026 7.98563C4.24557 7.83545 4.16666 7.65263 4.16666 7.44368Z" fill="white"/>
</svg>
