<svg width="85" height="27" viewBox="0 0 85 27" fill="none" xmlns="http://www.w3.org/2000/svg">
<path fill-rule="evenodd" clip-rule="evenodd" d="M4.63971 2.94431C4.88717 2.89204 5.14378 2.90259 5.38611 2.97501C5.75908 3.04267 6.11351 3.18849 6.4261 3.4029C6.59434 3.51456 6.69693 3.70181 6.70048 3.9037V14.3611C6.69089 15.5123 6.76188 16.6636 6.55273 17.7899C6.39348 18.7071 6.0385 19.6224 5.38036 20.2978C5.16856 20.5481 4.91386 20.7586 4.62819 20.9195C4.39126 21.067 4.11674 21.143 3.83766 21.1382C3.76666 21.0752 3.72789 20.9836 3.73212 20.8888C3.76804 20.6193 3.83833 20.3556 3.94127 20.104C4.1829 19.2288 4.30806 18.3256 4.31351 17.4177C4.33654 13.1714 4.34613 8.92132 4.36724 4.67505C4.36767 4.56519 4.35933 4.45548 4.3423 4.34694C4.1792 4.34694 4.0775 4.48701 3.95854 4.58871C3.44462 5.08844 3.0259 5.67751 2.72284 6.32713C2.34157 7.16196 2.11159 8.05787 2.04359 8.97313C1.97749 9.56649 2.01778 10.1669 2.16256 10.7461C2.27039 11.1978 2.47027 11.6224 2.7497 11.9933C2.88261 12.1408 2.90799 12.3562 2.81302 12.5306C2.6576 12.6898 2.41584 12.6054 2.23739 12.5478C1.62915 12.3133 1.0978 11.9148 0.702362 11.3966C0.241126 10.7733 -0.0053164 10.0171 8.69938e-05 9.24176C0.0582372 8.56277 0.218668 7.89646 0.475946 7.26541C0.833303 6.32773 1.36525 5.46633 2.04359 4.72686C2.48322 4.26286 2.97075 3.84672 3.49803 3.48541C3.84888 3.24807 4.23386 3.06561 4.63971 2.94431ZM27.6652 3.11294C27.8571 2.94409 28.1487 2.96903 28.3924 2.99973C28.8301 3.06492 29.2581 3.18416 29.6665 3.35471C29.7903 3.40957 29.9029 3.487 29.9984 3.58304C29.9601 4.54243 29.9217 5.48456 29.8699 6.43436C30.828 6.47913 31.7874 6.53029 32.748 6.58786C32.915 6.58786 33.1318 6.64158 33.1644 6.84114C33.2058 7.13939 33.1556 7.44316 33.0205 7.71227C32.9399 7.85042 32.8286 8.02119 32.6368 8.00776C31.7081 8.02311 30.7794 8.05381 29.8488 8.06724C29.797 9.41039 29.7624 10.7382 29.7164 12.0737C29.6914 13.2921 29.5801 14.5163 29.7164 15.7328C29.7467 16.2121 29.8651 16.6817 30.0656 17.1181C30.1526 17.3131 30.3297 17.4529 30.5395 17.4923C30.8165 17.5079 31.0881 17.4118 31.2936 17.2256C31.6096 16.9308 31.8645 16.5768 32.0439 16.1837C32.2609 15.7404 32.44 15.2796 32.5792 14.806C32.6067 14.5961 32.617 14.3844 32.6099 14.1728C32.6161 13.052 32.8107 11.9403 33.1855 10.884C33.4733 10.1165 33.882 9.3701 34.5287 8.85202C35.2485 8.24845 36.2403 8.08585 37.1152 8.42797C37.6609 8.6563 38.1077 9.07114 38.3758 9.59843C38.4123 9.35283 38.3547 9.08612 38.466 8.85586C38.6195 8.60642 38.9496 8.59491 39.2105 8.61793C39.5648 8.65026 39.9092 8.75266 40.2236 8.91918C40.4316 9.01205 40.5767 9.20583 40.6074 9.4315C40.5479 11.4692 40.4635 13.5089 40.5268 15.5486C40.5477 15.9917 40.6074 16.4322 40.7052 16.8649C40.7858 17.1776 40.8856 17.5153 41.1466 17.7264C41.4028 17.8945 41.7394 17.8726 41.9716 17.6727C42.3554 17.381 42.5588 16.9455 42.7488 16.5214C42.8163 16.4052 42.8489 16.2719 42.8428 16.1376C42.6841 14.914 42.6944 13.6744 42.8735 12.4536C42.9994 11.6291 43.273 10.8342 43.6813 10.1069C44.1015 9.35825 44.7364 8.75272 45.5041 8.36849C45.6501 8.29372 45.8067 8.24194 45.9685 8.21499C46.7452 8.19097 47.4992 8.47915 48.0619 9.01512C48.2009 9.16881 48.3243 9.33592 48.4303 9.514C48.4802 9.28567 48.4303 9.04198 48.5089 8.82132C48.6317 8.56229 48.9637 8.54694 49.2093 8.58148C49.6308 8.63099 50.0401 8.75509 50.4181 8.94796C50.6465 9.08228 50.6465 9.37393 50.635 9.60802C50.6138 11.9106 50.5812 14.2016 50.564 16.4984C51.0896 15.7671 51.5597 14.9974 51.9704 14.1958C52.4931 13.2272 52.8768 12.1899 53.1102 11.1143C52.805 10.868 52.5843 10.5326 52.4789 10.1549C52.4255 9.83958 52.4539 9.51585 52.5614 9.21467C52.6884 8.73965 53.0451 8.35992 53.5112 8.20347C53.8753 8.08612 54.2704 8.1115 54.6164 8.27447C54.8629 8.42362 55.026 8.6789 55.0578 8.96523C55.093 9.2497 55.0774 9.53817 55.0117 9.81717C55.6276 9.71931 56.2416 9.62529 56.8461 9.46795C57.2597 9.34133 57.6997 9.32808 58.1201 9.42958C58.413 9.53012 58.6316 9.7771 58.6958 10.08C58.7864 10.3946 58.7791 10.7292 58.6747 11.0394C58.5444 11.4547 58.4494 11.8803 58.3907 12.3116C58.1988 13.4379 57.9417 14.5911 58.1297 15.7366C58.1884 16.2503 58.3142 16.7542 58.5039 17.2352C58.6286 17.4885 58.7859 17.7648 59.0795 17.855C59.3653 17.8996 59.6557 17.8097 59.8662 17.6113C60.2191 17.2785 60.4638 16.8473 60.5685 16.3737C60.3158 15.1693 60.2801 13.9295 60.463 12.7126C60.5902 11.7965 60.8745 10.9091 61.3034 10.0896C61.6319 9.45557 62.146 8.9368 62.777 8.60258C63.5055 8.24031 64.3649 8.25607 65.0796 8.64479C65.5028 8.88315 65.8521 9.23373 66.0888 9.65791C66.1272 9.41039 66.0639 9.136 66.1963 8.90959C66.3882 8.6659 66.7527 8.67933 67.0348 8.71771C67.4493 8.79062 67.904 8.89232 68.1861 9.22235C68.378 9.42958 68.2839 9.72507 68.2859 9.97451C68.2513 11.3177 68.1937 12.6608 68.1995 13.9924C68.1995 15.0152 68.1669 16.0571 68.4394 17.0529C68.4976 17.3207 68.6402 17.5628 68.8461 17.7437C69.1055 17.9124 69.4436 17.897 69.6866 17.7053C69.9972 17.4421 70.2472 17.1148 70.4195 16.7459C70.5897 16.4358 70.7279 16.1092 70.8321 15.7712C70.8321 13.5185 70.8493 11.2659 70.8532 9.0132C70.8209 8.81366 70.9178 8.61542 71.095 8.51816C71.2331 8.43373 71.3962 8.49705 71.5459 8.51816C71.9431 8.59299 72.3633 8.6045 72.7298 8.79254C72.8843 8.84677 72.9915 8.98797 73.0022 9.15135C73.0022 10.2642 73.0022 11.3771 73.0022 12.492C72.9991 12.62 73.0036 12.7482 73.0157 12.8757C73.3438 11.8607 73.6892 10.8495 74.0806 9.85555C74.2292 9.48536 74.4016 9.12515 74.5967 8.77719C74.7483 8.50089 75.1014 8.45484 75.3854 8.4721C75.9898 8.51816 76.6306 8.77911 76.953 9.32213C77.0642 9.52208 77.1211 9.74766 77.118 9.97643C77.1065 11.1277 77.1717 12.2905 77.2542 13.4456C77.2811 13.8025 77.2869 14.1651 77.3425 14.5201C77.38 14.4954 77.4046 14.4553 77.4097 14.4107C77.5412 13.5577 77.7335 12.7151 77.9853 11.8895C78.2481 10.9696 78.5653 10.0662 78.9351 9.18397C79.033 8.96523 79.127 8.71579 79.3534 8.59874C79.6758 8.42222 80.0653 8.47594 80.4049 8.57764C80.7991 8.68422 81.1686 8.86672 81.4928 9.1149C81.7331 9.30106 81.8841 9.57952 81.9092 9.88241C81.8152 11.6746 81.7289 13.4763 81.8613 15.2684C81.8921 15.7633 81.9666 16.2545 82.0838 16.7363C82.1468 17.0109 82.2607 17.2712 82.4196 17.5038C82.586 17.7308 82.881 17.8226 83.1468 17.7302C83.3659 17.6244 83.5411 17.4452 83.6419 17.2237C83.9105 16.7248 83.9873 16.1588 84.1388 15.6196C84.1594 15.4476 84.2686 15.299 84.4267 15.2281C84.5495 15.1495 84.678 15.2454 84.7778 15.3183C84.9044 15.4373 84.8661 15.6234 84.868 15.7769C84.8335 16.6423 84.6972 17.548 84.1887 18.2713C83.7803 18.8901 83.0663 19.2361 82.3275 19.1732C81.6535 19.1301 81.0408 18.767 80.6793 18.1965C80.2226 17.5057 80.0403 16.6787 79.9118 15.8709C79.6988 14.2592 79.7525 12.632 79.7947 11.0145C79.7308 11.0587 79.6814 11.1207 79.6527 11.1929C79.2158 12.1014 78.8817 13.0558 78.6569 14.0385C78.3323 15.3107 78.1439 16.6139 78.0947 17.926C78.0916 18.0887 77.976 18.2275 77.8165 18.2598C77.4532 18.419 77.0399 18.419 76.6767 18.2598C76.3212 18.0764 76.0419 17.7733 75.8881 17.404C75.7302 17.0284 75.6293 16.6313 75.5888 16.2259C75.3738 14.5623 75.3009 12.8834 75.2184 11.2102C75.2299 11.0893 75.0918 11.1661 75.0265 11.1776C74.2091 12.5975 73.7966 14.2093 73.5855 15.823C73.4641 16.7622 73.4 17.708 73.3937 18.6551C73.3935 18.8282 73.3005 18.9879 73.15 19.0734C72.8605 19.207 72.5378 19.2511 72.2232 19.2C71.8529 19.1636 71.4557 19.1309 71.1448 18.9122C71.0103 18.8244 70.9261 18.6774 70.9184 18.5169C70.8954 18.2099 70.8896 17.901 70.8628 17.5921C70.7093 17.8505 70.5381 18.0979 70.3505 18.3327C70.0364 18.7301 69.6044 19.0176 69.1167 19.154C68.404 19.3137 67.66 19.0854 67.1595 18.5534C66.7806 18.1129 66.5344 17.574 66.4496 16.9992C66.1127 17.7774 65.5287 18.4228 64.7879 18.8355C64.4198 19.0296 64.0167 19.1483 63.6021 19.1847C63.1436 19.2497 62.676 19.1769 62.259 18.9755C61.6637 18.6517 61.1967 18.1346 60.935 17.5096C60.6165 18.2272 60.0658 18.916 59.2791 19.1271C58.4924 19.3382 57.6635 19.0235 57.1051 18.469C56.4172 17.7481 55.9961 16.8139 55.9116 15.821C55.8646 15.3489 55.8646 14.8733 55.9116 14.4011C55.9626 13.3396 56.1174 12.2856 56.374 11.2543C56.3779 11.1981 56.3779 11.1417 56.374 11.0855C55.808 11.0567 55.24 11.0855 54.6721 11.0855C54.3784 12.0448 53.9882 12.9718 53.5074 13.8524C52.6939 15.3637 51.7206 16.7834 50.6043 18.0871C50.6158 19.3459 50.6561 20.6065 50.5947 21.8633C50.5333 22.8611 50.3836 23.8723 49.9672 24.7894C49.6642 25.4895 49.1424 26.0725 48.4802 26.4511C47.9743 26.7246 47.4139 26.882 46.8396 26.9116C46.1297 26.8617 45.3928 26.6852 44.8383 26.2151C44.4445 25.8905 44.1737 25.4409 44.0708 24.941C43.9771 24.5106 43.9916 24.0636 44.113 23.6401C44.3644 22.8515 44.8805 22.1761 45.412 21.5659C45.9435 20.9557 46.5959 20.4146 47.1965 19.839C47.6762 19.39 48.1559 18.9429 48.6413 18.4958C48.6413 18.1466 48.5953 17.7974 48.5857 17.4482C48.381 17.7517 48.1464 18.0338 47.8853 18.2905C47.1792 18.9748 46.2021 19.304 45.2259 19.1866C44.5601 19.0695 44.0132 18.611 43.6141 18.0833C43.4632 17.891 43.3278 17.6869 43.2093 17.4731C42.8562 18.1735 42.3458 18.8892 41.5629 19.1329C40.7604 19.3324 39.9144 19.0542 39.387 18.4172C39.0491 18.0003 38.8327 17.4984 38.7615 16.9666C38.4446 17.686 37.9218 18.2955 37.2591 18.7184C36.8263 18.9844 36.3362 19.143 35.8296 19.1808C35.2766 19.2483 34.7179 19.1118 34.2581 18.7971C33.4407 18.2214 33.0378 17.2505 32.7979 16.3161C32.6591 16.7288 32.4757 17.1251 32.2511 17.4981C32.0453 17.8466 31.7979 18.1687 31.5143 18.4575C31.1786 18.8091 30.7386 19.0432 30.2594 19.1252C29.697 19.197 29.1301 19.0307 28.6956 18.6666C28.3562 18.3641 28.0865 17.9916 27.905 17.5748C27.5825 16.8124 27.3961 15.9993 27.3543 15.1725C26.9226 16.1319 26.4103 17.0683 25.6562 17.807C25.0776 18.4087 24.3427 18.8373 23.534 19.0446C22.8927 19.1852 22.2321 19.2151 21.5807 19.1329C21.0138 19.0955 20.4606 18.9421 19.9555 18.682C19.6967 18.5563 19.4971 18.3346 19.3991 18.0641C19.353 17.7533 19.5295 17.4731 19.7003 17.2314C19.8496 16.9899 20.0655 16.7966 20.322 16.6749C20.5734 16.5924 20.7902 16.7958 20.9859 16.9224C21.2792 17.2071 21.6406 17.4119 22.0355 17.5173C22.4413 17.6298 22.8747 17.4821 23.1273 17.145C23.3199 16.812 23.4212 16.4341 23.4208 16.0494C23.4208 15.3356 22.9584 14.7273 22.4768 14.2419C22.0259 13.8102 21.5519 13.4015 21.0857 12.9851C20.4275 14.1152 19.7157 15.2147 19.0441 16.341C18.6543 17.0728 18.1475 17.7358 17.5436 18.304C17.1106 18.7269 16.5616 19.0115 15.9664 19.1214C15.5584 19.1699 15.1555 18.9973 14.9091 18.6685C14.609 18.2451 14.4233 17.7514 14.3699 17.2352C14.2814 16.3259 14.2608 15.4113 14.3085 14.499C14.3239 13.3477 14.3834 12.183 14.4217 11.0241C14.4428 10.7765 14.4466 10.5277 14.4333 10.2796C14.3546 10.2969 14.2644 10.2988 14.2145 10.3717C13.1055 11.6189 12.4109 13.1731 11.8755 14.7389C11.4233 16.1109 11.0901 17.5194 10.8797 18.9487C10.6972 19.0877 10.4637 19.1415 10.2388 19.0964C9.96824 19.058 9.69002 19.0964 9.4233 19.0388C9.18974 18.959 9.00489 18.7777 8.92058 18.5457C8.74947 18.0869 8.67626 17.5974 8.70568 17.1086C8.7287 14.3672 8.74853 11.6253 8.76516 8.88272C8.74108 8.74223 8.81101 8.60237 8.93785 8.53734C9.22619 8.47743 9.52518 8.49397 9.80514 8.58531C10.1217 8.66782 10.4671 8.74841 10.7051 8.9921C10.8279 9.1053 10.776 9.28567 10.7856 9.43341C10.7856 10.955 10.7569 12.4766 10.7645 13.9982C11.2634 12.6551 11.7546 11.2812 12.5337 10.0628C12.6972 9.80475 12.8821 9.56085 13.0863 9.33364C13.4547 8.90383 13.9631 8.52583 14.5522 8.5124C14.9955 8.49513 15.3984 8.70428 15.786 8.89616C16.1631 9.05865 16.4671 9.35445 16.6399 9.72699C16.7058 9.95557 16.724 10.1952 16.6936 10.4312C16.6533 11.7398 16.6149 13.0484 16.5708 14.3551C16.5708 14.8904 16.519 15.4239 16.5497 15.9573C16.5569 16.2131 16.6015 16.4665 16.6821 16.7094C16.7377 16.8418 16.8164 16.9973 16.9756 17.0222C17.123 17.0177 17.2619 16.9524 17.3594 16.8418C17.5941 16.6154 17.8056 16.366 17.9907 16.0974C18.526 15.3264 19.0223 14.5291 19.4777 13.7085C19.754 13.2057 20.0399 12.7107 20.2951 12.1965C20.205 12.0468 20.0687 11.9278 19.9881 11.7686C19.6862 11.2719 19.6049 10.6718 19.7636 10.1127C19.9147 9.57074 20.2405 9.09386 20.6904 8.75608C21.0084 8.53723 21.3684 8.38693 21.7477 8.31476C22.1127 8.22193 22.4996 8.27711 22.8241 8.46827C23.038 8.61193 23.1656 8.85337 23.1637 9.11106C23.16 9.5853 23.0274 10.0496 22.78 10.4542C22.5574 10.8547 22.2938 11.2309 21.9933 11.5767C22.9315 12.2598 23.912 12.9198 24.7141 13.7507C25.1647 14.186 25.4622 14.7555 25.5622 15.374C25.5963 15.6941 25.5821 16.0175 25.52 16.3334C26.4026 15.5658 27.0857 14.5105 27.2642 13.3401C27.2872 11.5537 27.2814 9.76537 27.3006 7.97706C26.4832 7.96171 25.6639 7.95979 24.8484 7.93868C24.7054 7.82399 24.6291 7.64546 24.645 7.46282C24.6327 7.04381 24.7732 6.63462 25.0403 6.31155C25.0844 6.24632 25.1669 6.26742 25.2322 6.26167L27.4177 6.29237C27.4522 5.46345 27.4714 4.63646 27.504 3.80754C27.504 3.56961 27.504 3.30482 27.6652 3.11102V3.11294ZM36.5838 10.0208C36.1041 10.1167 35.7491 10.5024 35.5246 10.9149C35.2454 11.4845 35.0663 12.0978 34.995 12.7282C34.8844 13.5412 34.8504 14.3629 34.8933 15.1823C34.9086 15.8201 35.0515 16.4484 35.3136 17.0301C35.4699 17.3533 35.7407 17.607 36.0734 17.7419C36.2986 17.8311 36.5515 17.8178 36.7661 17.7055C37.1832 17.4586 37.5137 17.0886 37.712 16.6463C38.0715 15.853 38.286 15.0017 38.3452 14.1327C38.4162 13.2366 38.4412 12.3214 38.2244 11.4464C38.1308 11.0169 37.9179 10.6226 37.6103 10.3086C37.3399 10.0502 36.9594 9.94179 36.5934 10.0188L36.5838 10.0208ZM46.7626 10.0518C46.1869 10.2091 45.7878 10.7099 45.5307 11.2203C45.1791 12.0271 44.9775 12.8912 44.9359 13.7704C44.8937 14.7489 44.8841 15.7544 45.1853 16.6984C45.3388 17.1455 45.5979 17.6022 46.043 17.8036C46.327 17.9334 46.6572 17.9118 46.9218 17.7461C47.1476 17.6024 47.3432 17.416 47.4975 17.1973C47.8395 16.7005 48.0819 16.142 48.2113 15.5529C48.4107 14.6854 48.5035 13.7969 48.4876 12.9069C48.495 12.297 48.4096 11.6894 48.2343 11.1052C48.1264 10.7376 47.9064 10.4129 47.6049 10.1765C47.3607 10.0104 47.0543 9.96453 46.7722 10.0518H46.7626ZM64.4157 10.1264C63.913 10.207 63.5311 10.5965 63.3028 11.0302C62.896 11.7977 62.7732 12.6823 62.6965 13.5419C62.6331 14.5013 62.6063 15.4914 62.8327 16.4373C62.9249 16.9171 63.1691 17.3544 63.5292 17.6845C63.7748 17.8989 64.1135 17.9714 64.4253 17.8764C64.8244 17.7421 65.1045 17.3967 65.329 17.0552C65.8433 16.2051 66.0332 15.2055 66.1273 14.2288C66.2338 13.3366 66.1929 12.433 66.0064 11.554C65.9148 11.1149 65.6928 10.7136 65.3693 10.4027C65.1171 10.17 64.7716 10.0666 64.433 10.1226L64.4157 10.1264ZM47.9696 20.8353C47.0831 21.7102 46.2638 22.6907 45.7707 23.8458C45.5728 24.2557 45.522 24.7211 45.6267 25.164C45.7138 25.5128 45.9811 25.7881 46.3271 25.8855C46.7603 26.0204 47.2296 25.974 47.628 25.7569C47.9665 25.5125 48.2169 25.1652 48.3418 24.7668C48.6047 24.0224 48.6565 23.2318 48.693 22.4451C48.7294 21.6584 48.7256 20.9101 48.7313 20.1426C48.4625 20.3552 48.2062 20.5833 47.9638 20.8257L47.9696 20.8353Z" fill="#040404"/>
</svg>
