<svg width="20" height="20" viewBox="0 0 20 20" fill="none" xmlns="http://www.w3.org/2000/svg">
<path fill-rule="evenodd" clip-rule="evenodd" d="M15.3575 1.66669C16.3199 1.66669 17.2703 2.35989 17.598 3.28763L17.6406 3.42172L18.3268 6.69144L18.3333 6.78623V8.33766C18.3333 9.16108 17.8875 9.90216 17.1989 10.2916L17.0577 10.3642L17.0578 16.3542C17.0578 17.3559 16.3188 18.1868 15.3626 18.3159L15.2309 18.3291L15.1025 18.3334H4.89757C3.86175 18.3334 3.01271 17.5147 2.94645 16.4841L2.94229 16.3542L2.94224 10.3642L2.93301 10.3604C2.25966 10.0375 1.78864 9.3908 1.68713 8.64206L1.6718 8.49102L1.66663 8.33766V6.78623C1.66663 6.7439 1.67052 6.70171 1.67724 6.66413L2.36263 3.40834C2.62661 2.47206 3.54522 1.7363 4.50505 1.67135L4.64239 1.66669H15.3575ZM14.5918 9.94799L14.5237 10.0141C14.1252 10.3711 13.6093 10.5754 13.0614 10.5754C12.5135 10.5754 11.9976 10.3711 11.5991 10.0141L11.53 9.94799L11.4622 10.0141C11.1036 10.3354 10.6498 10.5331 10.1633 10.5694L9.99996 10.5754C9.45209 10.5754 8.93615 10.3711 8.53767 10.0141L8.46906 9.94799L8.40081 10.0141C8.04216 10.3354 7.58832 10.5331 7.10173 10.5694L6.9384 10.5754C6.39058 10.5754 5.87473 10.3711 5.47619 10.0141L5.40728 9.94799L5.3281 10.024C5.07617 10.2466 4.77731 10.4093 4.45294 10.498L4.30077 10.5334L4.30153 16.3542C4.30153 16.6614 4.52685 16.9154 4.81696 16.9556L4.89757 16.9611H15.1025C15.403 16.9611 15.6534 16.7327 15.6929 16.4366L15.6984 16.3542L15.6983 10.5334L15.547 10.498C15.2226 10.4093 14.9238 10.2466 14.6718 10.024L14.5918 9.94799ZM7.78939 7.47156H6.08695L6.08731 8.33766C6.08731 8.78351 6.42062 9.15111 6.84594 9.19815L6.9384 9.20323C7.37574 9.20323 7.73822 8.86537 7.7846 8.43191L7.78962 8.33766L7.78939 7.47156ZM10.8504 7.47156H9.14874L9.14887 8.33766C9.14887 8.78351 9.48218 9.15111 9.9075 9.19815L9.99996 9.20323C10.4372 9.20323 10.7997 8.86535 10.846 8.43191L10.8511 8.33766L10.8504 7.47156ZM13.9122 7.47156H12.2097L12.2103 8.33766C12.2103 8.78351 12.5436 9.15111 12.9689 9.19815L13.0614 9.20323C13.4987 9.20323 13.8611 8.86539 13.9075 8.43192L13.9125 8.33766L13.9122 7.47156ZM4.7276 7.47156H3.02516L3.02587 8.33766C3.02587 8.78351 3.35919 9.15111 3.78451 9.19815L3.87697 9.20323C4.31427 9.20323 4.67667 8.86539 4.72305 8.43192L4.72806 8.33766L4.7276 7.47156ZM16.9739 7.47156H15.2715L15.2719 8.33778C15.2719 8.78358 15.6051 9.15112 16.0305 9.19815L16.123 9.20323C16.5602 9.20323 16.9226 8.86537 16.969 8.43202L16.974 8.33778L16.9739 7.47156ZM15.3575 3.03891H4.64239C4.27618 3.03891 3.85086 3.34262 3.70455 3.6819L3.67398 3.76731L3.22354 6.10002H16.7756L16.3299 3.78395C16.2288 3.42528 15.8238 3.09394 15.4501 3.04509L15.3575 3.03891Z" fill="#7B8E98"/>
</svg>
