<svg width="20" height="20" viewBox="0 0 20 20" fill="none" xmlns="http://www.w3.org/2000/svg">
<path fill-rule="evenodd" clip-rule="evenodd" d="M10.0047 10.009C12.2753 10.009 14.1261 8.10117 14.1261 5.77936C14.1261 3.47554 12.2848 1.66669 10.0047 1.66669C7.74371 1.66669 5.88338 3.51154 5.88338 5.79736C5.89292 8.11017 7.73417 10.009 10.0047 10.009ZM10.0047 8.65013C8.61187 8.65013 7.41935 7.39023 7.41935 5.79736C7.41935 4.23148 8.59279 3.02558 10.0047 3.02558C11.4262 3.02558 12.5901 4.21348 12.5901 5.77936C12.5901 7.37223 11.4071 8.65013 10.0047 8.65013ZM15.996 18.3334C17.5796 18.3334 18.3333 17.8834 18.3333 16.8935C18.3333 14.5357 15.1755 11.1249 10.0047 11.1249C4.82442 11.1249 1.66663 14.5357 1.66663 16.8935C1.66663 17.8834 2.4203 18.3334 4.00397 18.3334H15.996ZM16.4539 16.9745H3.55558C3.30753 16.9745 3.20259 16.9115 3.20259 16.7225C3.20259 15.2466 5.62579 12.4838 10.0047 12.4838C14.3741 12.4838 16.7973 15.2466 16.7973 16.7225C16.7973 16.9115 16.7019 16.9745 16.4539 16.9745Z" fill="#7B8E98"/>
</svg>
