<svg width="20" height="20" viewBox="0 0 20 20" fill="none" xmlns="http://www.w3.org/2000/svg">
<path fill-rule="evenodd" clip-rule="evenodd" d="M9.99158 1.66669C13.6706 1.66669 16.6666 4.58436 16.6666 8.16262C16.6666 9.48308 16.2569 10.7595 15.4816 11.8689L15.4115 11.9664C15.4018 11.9787 15.3928 11.9893 15.3841 11.9989L15.3581 12.0246L10.7889 17.9486C10.6022 18.1894 10.3072 18.3334 9.99158 18.3334C9.72799 18.3334 9.48578 18.2333 9.29129 18.0599L9.17475 17.9429L4.64427 12.0299C4.61238 11.9988 4.5913 11.9721 4.57062 11.9379L4.54575 11.8927L4.39885 11.6796C3.79741 10.7676 3.44412 9.74916 3.35546 8.68309L3.33881 8.41561L3.33325 8.14636C3.33325 4.57362 6.32352 1.66669 9.99158 1.66669ZM9.99159 3.0488C7.0974 3.0488 4.73325 5.34075 4.73325 8.16262C4.73325 9.20529 5.06705 10.2225 5.67223 11.0758L5.68941 11.0932L5.72742 11.1488L9.99159 16.7016L14.2974 11.1041L14.3035 11.0877C14.8713 10.286 15.1973 9.3568 15.2441 8.40184L15.2499 8.16262C15.2499 5.34563 12.8907 3.0488 9.99159 3.0488ZM9.99992 10C11.1505 10 12.0833 9.06728 12.0833 7.91669C12.0833 6.76609 11.1505 5.83335 9.99992 5.83335C8.84933 5.83335 7.91659 6.76609 7.91659 7.91669C7.91659 9.06728 8.84933 10 9.99992 10Z" fill="#7B8E98"/>
</svg>
