<svg width="20" height="20" viewBox="0 0 20 20" fill="none" xmlns="http://www.w3.org/2000/svg">
<path fill-rule="evenodd" clip-rule="evenodd" d="M10.0001 18.3334C14.5589 18.3334 18.3334 14.5588 18.3334 10C18.3334 5.44937 14.5507 1.66669 9.99191 1.66669C5.44126 1.66669 1.66675 5.44937 1.66675 10C1.66675 14.5588 5.44943 18.3334 10.0001 18.3334ZM10.0001 16.9445C6.14387 16.9445 3.06381 13.8562 3.06381 10C3.06381 6.15198 6.1357 3.05558 9.99191 3.05558C13.8481 3.05558 16.9364 6.15198 16.9445 10C16.9527 13.8562 13.8563 16.9445 10.0001 16.9445ZM9.99191 10.8824C10.3105 10.8824 10.5638 10.6373 10.5638 10.3105V4.80394C10.5638 4.48531 10.3105 4.24022 9.99191 4.24022C9.67328 4.24022 9.42819 4.48531 9.42819 4.80394V9.74675H5.72721C5.40041 9.74675 5.15531 9.99185 5.15531 10.3105C5.15531 10.6373 5.40041 10.8824 5.72721 10.8824H9.99191Z" fill="#7B8E98"/>
</svg>
