<svg width="20" height="20" viewBox="0 0 20 20" fill="none" xmlns="http://www.w3.org/2000/svg">
<path fill-rule="evenodd" clip-rule="evenodd" d="M14.8892 18.3334C16.3804 18.3334 17.3603 17.9329 18.2209 16.9615C18.289 16.8934 18.3572 16.8167 18.4168 16.7485C18.9281 16.1776 19.1667 15.6153 19.1667 15.0785C19.1667 14.465 18.8088 13.8941 18.0504 13.3658L15.5709 11.6446C14.804 11.1163 13.9093 11.0567 13.1936 11.7639L12.5375 12.42C12.3415 12.616 12.1711 12.6245 11.9836 12.5052C11.5235 12.2155 10.5948 11.406 9.96421 10.7755C9.29959 10.1194 8.66053 9.38664 8.3197 8.84984C8.20893 8.65386 8.21745 8.49197 8.41343 8.29599L9.06101 7.6399C9.77675 6.92416 9.71711 6.02097 9.18882 5.26263L7.46762 2.78311C6.93933 2.02477 6.36844 1.67542 5.75494 1.6669C5.21813 1.65838 4.65576 1.90548 4.08487 2.41672C4.00818 2.48489 3.94001 2.54453 3.87185 2.60418C2.90048 3.47328 2.5 4.45316 2.5 5.92724C2.5 8.36416 3.99966 11.3294 6.75187 14.0815C9.48705 16.8167 12.4608 18.3334 14.8892 18.3334ZM14.8978 17.0212C12.7249 17.0638 9.93865 15.3937 7.73177 13.1954C5.50784 10.98 3.76108 8.10001 3.80368 5.92724C3.82072 4.98997 4.15303 4.1805 4.81766 3.60109C4.8773 3.54997 4.9199 3.50737 4.97955 3.46476C5.23517 3.24323 5.50784 3.12394 5.75494 3.12394C6.00205 3.12394 6.22359 3.21766 6.38548 3.47328L8.03851 5.9528C8.21745 6.21694 8.23449 6.51517 7.97035 6.77931L7.22052 7.52913C6.63258 8.11706 6.67519 8.83279 7.10123 9.40368C7.58691 10.0598 8.43047 11.0141 9.08657 11.6617C9.73415 12.3178 10.7652 13.238 11.4298 13.7322C12.0007 14.1582 12.7164 14.2008 13.3044 13.6129L14.0542 12.8631C14.3183 12.5989 14.608 12.616 14.8807 12.7864L17.3603 14.4394C17.6159 14.6098 17.7096 14.8228 17.7096 15.0785C17.7096 15.3256 17.5903 15.5982 17.3688 15.8538C17.3177 15.9135 17.2836 15.9561 17.2324 16.0157C16.653 16.6803 15.8436 17.0041 14.8978 17.0212Z" fill="#7B8E98"/>
</svg>
