<svg width="20" height="20" viewBox="0 0 20 20" fill="none" xmlns="http://www.w3.org/2000/svg">
<path fill-rule="evenodd" clip-rule="evenodd" d="M18.2268 9.59548L15.6837 5.68594C15.5634 5.50096 15.3587 5.38955 15.1393 5.38955H11.9756V3.98948C11.9756 3.62708 11.6842 3.33331 11.3246 3.33331H2.31779C1.95822 3.33331 1.66675 3.62708 1.66675 3.98948V14.6981C1.66675 15.0605 1.95822 15.3543 2.31779 15.3543H4.38289C4.65164 16.118 5.37531 16.6666 6.22404 16.6666C7.07277 16.6666 7.7964 16.118 8.06519 15.3543H12.6624C12.9312 16.118 13.6548 16.6666 14.5036 16.6666C15.3523 16.6666 16.0759 16.118 16.3447 15.3543H17.6824C18.0419 15.3543 18.3334 15.0605 18.3334 14.6981V9.95526C18.3334 9.82744 18.2964 9.70237 18.2268 9.59548ZM6.22404 15.3543C5.86506 15.3543 5.573 15.06 5.573 14.6981C5.573 14.3363 5.86506 14.042 6.22404 14.042C6.58302 14.042 6.87508 14.3363 6.87508 14.6981C6.87508 15.06 6.58302 15.3543 6.22404 15.3543ZM10.6736 14.042H8.06515C7.7964 13.2783 7.07274 12.7296 6.22401 12.7296C5.37528 12.7296 4.65164 13.2783 4.38286 14.042H2.96883V4.64565H10.6736V14.042ZM14.5036 15.3543C14.1446 15.3543 13.8525 15.06 13.8525 14.6981C13.8525 14.3363 14.1446 14.042 14.5036 14.042C14.8625 14.042 15.1546 14.3363 15.1546 14.6981C15.1546 15.06 14.8625 15.3543 14.5036 15.3543ZM17.0313 14.042H16.3447C16.0759 13.2783 15.3523 12.7296 14.5035 12.7296C13.6548 12.7296 12.9312 13.2783 12.6624 14.042H11.9756V6.70188H14.7876L17.0313 10.1512V14.042Z" fill="#7B8E98"/>
</svg>
