<svg width="20" height="20" viewBox="0 0 20 20" fill="none" xmlns="http://www.w3.org/2000/svg">
<path fill-rule="evenodd" clip-rule="evenodd" d="M16.1896 16.6667C17.5483 16.6667 18.3333 15.9122 18.3333 14.4177V6.40842C18.3333 4.92118 17.5407 4.16669 15.9631 4.16669H3.81035C2.45165 4.16669 1.66663 4.91393 1.66663 6.40842V14.4177C1.66663 15.9194 2.4592 16.6667 4.0368 16.6667H16.1896ZM10.0151 11.2328C9.71312 11.2328 9.41874 11.095 9.10171 10.7831L3.40274 5.37824C3.5688 5.31294 3.76506 5.27667 3.99151 5.27667H16.0084C16.2424 5.27667 16.4462 5.31294 16.6123 5.39275L10.9284 10.7831C10.6038 11.095 10.3094 11.2328 10.0151 11.2328ZM2.82907 14.541C2.82152 14.5048 2.82152 14.4612 2.82152 14.4177V6.33587V6.33587L7.1618 10.4276L2.82907 14.541ZM17.1784 14.5193L12.8683 10.4276L17.1784 6.35763V14.5193V14.5193ZM16.0084 15.5567H3.99151C3.78015 15.5567 3.59144 15.5277 3.44048 15.4624L7.95437 11.1748L8.44501 11.6391C8.97339 12.1397 9.47913 12.3501 10.0151 12.3501C10.5434 12.3501 11.0567 12.1397 11.5851 11.6391L12.0757 11.1748L16.5821 15.4551C16.416 15.5277 16.2273 15.5567 16.0084 15.5567Z" fill="#7B8E98"/>
</svg>
