<svg width="20" height="20" viewBox="0 0 20 20" fill="none" xmlns="http://www.w3.org/2000/svg">
<path fill-rule="evenodd" clip-rule="evenodd" d="M12.4541 15.6C12.8741 15.6 13.2 15.2717 13.2 14.855C13.2 14.6467 13.1186 14.4573 12.9744 14.3121L8.58653 9.99368L12.9744 5.68793C13.1186 5.54272 13.2 5.34701 13.2 5.14498C13.2 4.72829 12.8741 4.39999 12.4541 4.39999C12.2535 4.39999 12.078 4.47575 11.9401 4.61465L7.06332 9.41285C6.88781 9.577 6.80005 9.77902 6.80005 9.99999C6.80005 10.221 6.88781 10.4104 7.05705 10.5808L11.9338 15.3853C12.078 15.5242 12.2535 15.6 12.4541 15.6Z" fill="#263238"/>
</svg>
