<svg width="20" height="20" viewBox="0 0 20 20" fill="none" xmlns="http://www.w3.org/2000/svg">
<path fill-rule="evenodd" clip-rule="evenodd" d="M7.54598 15.6C7.126 15.6 6.80005 15.2717 6.80005 14.855C6.80005 14.6467 6.88154 14.4573 7.02571 14.3121L11.4136 9.99368L7.02571 5.68793C6.88154 5.54272 6.80005 5.34701 6.80005 5.14498C6.80005 4.72829 7.126 4.39999 7.54598 4.39999C7.74657 4.39999 7.92209 4.47575 8.05999 4.61465L12.9368 9.41285C13.1123 9.577 13.2 9.77902 13.2 9.99999C13.2 10.221 13.1123 10.4104 12.943 10.5808L8.06626 15.3853C7.92209 15.5242 7.74657 15.6 7.54598 15.6Z" fill="#263238"/>
</svg>
