<svg width="14" height="14" viewBox="0 0 14 14" fill="none" xmlns="http://www.w3.org/2000/svg">
<path fill-rule="evenodd" clip-rule="evenodd" d="M11.1108 13.2238C11.3569 13.0388 11.411 12.7344 11.2609 12.3047L10.0061 8.58651L13.2121 6.30068C13.5843 6.03808 13.7344 5.75758 13.6384 5.46513C13.5423 5.17269 13.2601 5.02945 12.7978 5.03542L8.86535 5.06526L7.67059 1.32916C7.52649 0.893479 7.31036 0.666687 6.99816 0.666687C6.69196 0.666687 6.47583 0.893479 6.33173 1.32916L5.13697 5.06526L1.20447 5.03542C0.74218 5.02945 0.460001 5.17269 0.36394 5.46513C0.261875 5.75758 0.417974 6.03808 0.790211 6.30068L3.99625 8.58651L2.74145 12.3047C2.59136 12.7344 2.64539 13.0388 2.89155 13.2238C3.1377 13.4148 3.4499 13.3491 3.82214 13.0806L6.99816 10.7589L10.1802 13.0806C10.5524 13.3491 10.8586 13.4148 11.1108 13.2238ZM10.1922 12.0362L7.30435 9.84582C7.11223 9.69661 6.89009 9.69661 6.69797 9.84582L3.81013 12.0362C3.78612 12.0541 3.76811 12.06 3.7561 12.0481C3.74409 12.0302 3.75009 12.0242 3.7561 11.9884L4.95086 8.58056C5.03491 8.3478 4.98688 8.15681 4.77675 8.01358L1.78685 5.96051C1.75683 5.9426 1.75082 5.93067 1.75683 5.91873C1.76283 5.90083 1.77484 5.90083 1.81086 5.90083L5.44317 5.96051C5.68933 5.96648 5.84543 5.87099 5.92348 5.62629L6.96814 2.17069C6.97414 2.13488 6.98615 2.12295 6.99816 2.12295C7.01617 2.12295 7.02818 2.13488 7.03418 2.17069L8.07885 5.62629C8.1569 5.87099 8.313 5.96648 8.55915 5.96051L12.1915 5.90083C12.2275 5.90083 12.2395 5.90083 12.2455 5.91873C12.2515 5.93067 12.2395 5.9426 12.2155 5.96051L9.22558 8.01358C9.01544 8.15681 8.96741 8.3478 9.05147 8.58056L10.2462 11.9884C10.2522 12.0242 10.2582 12.0302 10.2462 12.0481C10.2342 12.06 10.2162 12.0541 10.1922 12.0362Z" fill="#CFD8DC"/>
</svg>
