<svg width="16" height="16" viewBox="0 0 16 16" fill="none" xmlns="http://www.w3.org/2000/svg">
<path fill-rule="evenodd" clip-rule="evenodd" d="M12.1108 14.2238C12.3569 14.0388 12.411 13.7344 12.2609 13.3047L11.0061 9.58651L14.2121 7.30068C14.5843 7.03808 14.7344 6.75758 14.6384 6.46513C14.5423 6.17269 14.2601 6.02945 13.7978 6.03542L9.86535 6.06526L8.67059 2.32916C8.52649 1.89348 8.31036 1.66669 7.99816 1.66669C7.69196 1.66669 7.47583 1.89348 7.33173 2.32916L6.13697 6.06526L2.20447 6.03542C1.74218 6.02945 1.46 6.17269 1.36394 6.46513C1.26187 6.75758 1.41797 7.03808 1.79021 7.30068L4.99625 9.58651L3.74145 13.3047C3.59136 13.7344 3.64539 14.0388 3.89155 14.2238C4.1377 14.4148 4.4499 14.3491 4.82214 14.0806L7.99816 11.7589L11.1802 14.0806C11.5524 14.3491 11.8586 14.4148 12.1108 14.2238ZM11.1922 13.0362L8.30432 10.8458C8.20826 10.7682 8.1062 10.7265 7.99813 10.7324V3.12295C8.01614 3.12295 8.02815 3.13488 8.03415 3.17069L9.07881 6.62629C9.15686 6.87099 9.31296 6.96648 9.55912 6.96051L13.1914 6.90083C13.2275 6.90083 13.2395 6.90083 13.2455 6.91873C13.2515 6.93067 13.2395 6.9426 13.2154 6.96051L10.2255 9.01358C10.0154 9.15681 9.96738 9.3478 10.0514 9.58056L11.2462 12.9884C11.2522 13.0242 11.2582 13.0302 11.2462 13.0481C11.2342 13.06 11.2162 13.0541 11.1922 13.0362Z" fill="#F44336"/>
</svg>
