<svg width="8" height="12" viewBox="0 0 8 12" fill="none" xmlns="http://www.w3.org/2000/svg">
<path fill-rule="evenodd" clip-rule="evenodd" d="M1.54598 11.6C1.126 11.6 0.800049 11.2717 0.800049 10.855C0.800049 10.6467 0.881538 10.4573 1.02571 10.3121L5.41357 5.99368L1.02571 1.68793C0.881538 1.54272 0.800049 1.34701 0.800049 1.14498C0.800049 0.728292 1.126 0.399994 1.54598 0.399994C1.74657 0.399994 1.92209 0.475755 2.05999 0.61465L6.93678 5.41285C7.11229 5.577 7.20005 5.77902 7.20005 5.99999C7.20005 6.22096 7.11229 6.41037 6.94305 6.58083L2.06626 11.3853C1.92209 11.5242 1.74657 11.6 1.54598 11.6Z" fill="white"/>
</svg>
