<svg width="8" height="12" viewBox="0 0 8 12" fill="none" xmlns="http://www.w3.org/2000/svg">
<path fill-rule="evenodd" clip-rule="evenodd" d="M6.45405 11.6C6.87403 11.6 7.19999 11.2717 7.19999 10.855C7.19999 10.6467 7.1185 10.4573 6.97433 10.3121L2.58647 5.99368L6.97433 1.68793C7.1185 1.54272 7.19999 1.34701 7.19999 1.14498C7.19999 0.728292 6.87403 0.399994 6.45405 0.399994C6.25347 0.399994 6.07795 0.475755 5.94005 0.61465L1.06326 5.41285C0.887745 5.577 0.799988 5.77902 0.799988 5.99999C0.799988 6.22096 0.887745 6.41037 1.05699 6.58083L5.93378 11.3853C6.07795 11.5242 6.25347 11.6 6.45405 11.6Z" fill="white"/>
</svg>
