<svg width="70" height="70" viewBox="0 0 70 70" fill="none" xmlns="http://www.w3.org/2000/svg">
<path fill-rule="evenodd" clip-rule="evenodd" d="M55.5822 58.3333C57.1931 58.3333 58.3332 57.1059 58.3332 55.5348C58.3332 54.7984 58.0853 54.111 57.5401 53.5709L45.8672 41.984C48.3208 38.7927 49.783 34.8404 49.783 30.5445C49.783 20.1604 41.208 11.6667 30.7247 11.6667C20.2415 11.6667 11.6665 20.1604 11.6665 30.5445C11.6665 40.9285 20.2415 49.4222 30.7247 49.4222C34.8635 49.4222 38.6801 48.0966 41.8028 45.8873L53.55 57.5232C54.0952 58.0633 54.814 58.3333 55.5822 58.3333ZM30.7247 45.3472C22.5463 45.3472 15.7805 38.6455 15.7805 30.5445C15.7805 22.4435 22.5463 15.7417 30.7247 15.7417C38.9032 15.7417 45.669 22.4435 45.669 30.5445C45.669 38.6455 38.9032 45.3472 30.7247 45.3472Z" fill="#CFD8DC"/>
</svg>
