<svg width="10" height="6" viewBox="0 0 10 6" fill="none" xmlns="http://www.w3.org/2000/svg">
<path fill-rule="evenodd" clip-rule="evenodd" d="M0.916748 1.21058C0.916748 0.904347 1.15613 0.666672 1.45996 0.666672C1.61188 0.666672 1.74999 0.726091 1.85587 0.831216L5.00469 4.03069L8.1443 0.831216C8.25018 0.726091 8.39289 0.666672 8.5402 0.666672C8.84403 0.666672 9.08342 0.904347 9.08342 1.21058C9.08342 1.35684 9.02817 1.48482 8.9269 1.58538L5.42821 5.14137C5.30852 5.26935 5.16121 5.33334 5.00008 5.33334C4.83896 5.33334 4.70085 5.26935 4.57656 5.14594L1.07327 1.58995C0.97199 1.48482 0.916748 1.35684 0.916748 1.21058Z" fill="#00CA5F"/>
</svg>
