<svg width="44" height="44" viewBox="0 0 44 44" fill="none" xmlns="http://www.w3.org/2000/svg">
<g filter="url(#filter0_d_33_2550)">
<path d="M22 36C14.2685 36 8 29.7315 8 22C8 14.2685 14.2685 8 22 8C29.7315 8 36 14.2685 36 22C36 29.7315 29.7315 36 22 36Z" fill="white"/>
<path fill-rule="evenodd" clip-rule="evenodd" d="M22 34C15.373 34 10 28.627 10 22C10 15.373 15.373 10 22 10C28.627 10 34 15.373 34 22C34 28.627 28.627 34 22 34Z" fill="#01A54E"/>
<path fill-rule="evenodd" clip-rule="evenodd" d="M25.5 18.4994L28.1611 18.4994C28.6244 18.4994 29 18.875 29 19.3383V24.6609C29 25.1242 28.6244 25.4998 28.1611 25.4998H25.5V28.1611C25.5 28.6244 25.1244 29 24.6611 29H19.3389C18.8756 29 18.5 28.6244 18.5 28.1611V25.4998H15.8389C15.3756 25.4998 15 25.1242 15 24.6609V19.3383C15 18.875 15.3756 18.4994 15.8389 18.4994L18.5 18.4994V15.8389C18.5 15.3753 18.876 14.9996 19.3397 15L24.67 15.0048C25.1341 15.0052 25.5096 15.3823 25.5082 15.8463L25.5 18.4994ZM25.1068 18.8915L28.0488 18.8915C28.3576 18.8915 28.608 19.1418 28.608 19.4507V24.5485C28.608 24.8574 28.3576 25.1078 28.0488 25.1078H25.108V28.0487C25.108 28.3576 24.8576 28.608 24.5488 28.608H19.4513C19.1424 28.608 18.892 28.3576 18.892 28.0487V25.1078H15.9513C15.6424 25.1078 15.392 24.8574 15.392 24.5485V19.4507C15.392 19.1418 15.6424 18.8915 15.9513 18.8915L18.892 18.8915V15.9514C18.892 15.6423 19.1427 15.3918 19.4518 15.3921L24.5571 15.3967C24.8665 15.397 25.1168 15.6484 25.1159 15.9577L25.1068 18.8915ZM16.0636 19.2835L19.284 19.2835V16.0639C19.284 15.9093 19.4093 15.7841 19.5639 15.7842L24.4441 15.7886C24.5988 15.7888 24.724 15.9145 24.7235 16.0691L24.7136 19.2835L27.9364 19.2835C28.0908 19.2835 28.216 19.4087 28.216 19.5631V24.4361C28.216 24.5906 28.0908 24.7158 27.9364 24.7158H24.716V27.9363C24.716 28.0908 24.5908 28.216 24.4364 28.216H19.5636C19.4092 28.216 19.284 28.0908 19.284 27.9363V24.7158H16.0636C15.9092 24.7158 15.784 24.5906 15.784 24.4361V19.5631C15.784 19.4087 15.9092 19.2835 16.0636 19.2835ZM20.0911 19.9451L20.0911 19.9451C20.1182 19.8061 20.1379 19.7048 20.4406 19.5212C20.5007 19.4847 20.554 19.4459 20.6087 19.406L20.6087 19.406L20.6087 19.406L20.6087 19.406C20.8298 19.2449 21.0729 19.0677 21.8709 18.9701C22.7494 18.8627 23.1616 18.9482 23.4751 19.0377C23.634 19.0831 23.9211 19.1906 24.213 19.4201C24.505 19.6496 24.7879 19.9809 24.8126 20.5679C24.8232 20.8201 24.7708 21.0394 24.6882 21.2356C24.6331 21.3665 24.3052 21.94 23.6348 22.1455C23.1229 22.3024 22.7139 22.3579 22.4751 22.3904L22.4751 22.3904H22.4751L22.4751 22.3904L22.475 22.3904L22.475 22.3904C22.4011 22.4004 22.3435 22.4083 22.3042 22.4162L22.2838 22.4202C22.0493 22.4663 20.781 22.7152 20.781 23.4702C20.781 24.2511 21.6353 24.4996 22.2345 24.4996C22.8338 24.4996 23.2534 24.12 23.2534 24.12C23.2534 24.12 23.5761 23.8575 23.5604 23.4873C23.5448 23.117 23.3986 22.9189 23.1875 22.7724C23.0973 22.7098 22.9797 22.6526 22.8745 22.6077C22.8208 22.5847 22.6183 22.5104 22.6183 22.5104C22.6183 22.5104 23.1032 22.4394 23.4348 22.3599C23.6694 22.4162 24.2439 22.8165 24.2439 23.5184C24.2439 24.2203 23.5456 25.08 22.1617 25.08C21.5168 25.08 21.0108 24.9122 20.6091 24.5896C20.2075 24.267 20.0967 23.7846 20.0967 23.4393C20.0967 23.1883 20.2029 22.9619 20.3329 22.7787C20.5377 22.4901 20.9328 22.2228 21.1907 22.123C21.3041 22.0791 21.4421 22.0326 21.6042 21.9896C21.8748 21.9178 22.18 21.8648 22.4668 21.815L22.4668 21.815C22.7422 21.7671 23.0006 21.7222 23.1951 21.6665C24.0333 21.4264 24.2439 21.0424 24.2439 20.5602C24.2439 20.0779 23.789 19.7302 23.3082 19.5755C22.8274 19.4209 22.2147 19.4015 21.6939 19.6466C21.4274 19.772 21.3721 19.8476 21.3243 19.913C21.2786 19.9754 21.2398 20.0285 21.0305 20.1067C20.6021 20.2667 20.1181 20.0208 20.1181 20.0208L19.9624 20.1067C19.9624 20.1067 19.9358 20.1426 19.888 20.15C19.8401 20.1574 19.779 20.1352 19.779 20.1352C19.779 20.1352 19.869 20.1171 19.888 20.1093C19.907 20.1016 19.9193 20.0779 19.9193 20.0779C19.9193 20.0779 19.8416 20.0818 19.8015 20.0685C19.7615 20.0552 19.729 20.0147 19.729 20.0147C19.729 20.0147 19.7836 20.0348 19.838 20.035C19.8923 20.0352 19.9468 20.0154 19.9468 20.0154C19.9468 20.0154 20.0325 20.0037 20.0911 19.9451ZM19.5886 23.0598C19.2904 23.3989 19.2949 23.7729 19.2949 23.7729C19.2949 23.7729 19.5467 23.3878 19.9495 23.2825C19.9892 22.8897 20.2996 22.6026 20.2996 22.6026C20.2996 22.6026 19.8868 22.7206 19.5886 23.0598ZM24.0397 20.5493C24.0397 20.5493 24.0956 21.6616 21.5569 21.6616C19.0182 21.6616 19.0741 20.5493 19.0741 20.5493H24.0397ZM21.0481 19.6112C21.1389 19.5903 21.2019 19.5275 21.1888 19.4711C21.1758 19.4146 21.0917 19.3858 21.0009 19.4068C20.9102 19.4277 20.8472 19.4905 20.8602 19.5469C20.8732 19.6034 20.9574 19.6322 21.0481 19.6112Z" fill="white"/>
</g>
<defs>
<filter id="filter0_d_33_2550" x="0" y="0" width="44" height="44" filterUnits="userSpaceOnUse" color-interpolation-filters="sRGB">
<feFlood flood-opacity="0" result="BackgroundImageFix"/>
<feColorMatrix in="SourceAlpha" type="matrix" values="0 0 0 0 0 0 0 0 0 0 0 0 0 0 0 0 0 0 127 0" result="hardAlpha"/>
<feOffset/>
<feGaussianBlur stdDeviation="4"/>
<feColorMatrix type="matrix" values="0 0 0 0 0 0 0 0 0 0 0 0 0 0 0 0 0 0 0.1 0"/>
<feBlend mode="normal" in2="BackgroundImageFix" result="effect1_dropShadow_33_2550"/>
<feBlend mode="normal" in="SourceGraphic" in2="effect1_dropShadow_33_2550" result="shape"/>
</filter>
</defs>
</svg>
